M48
; DRILL file {KiCad (5.1.10)-1} date 10/19/21 15:37:22
; FORMAT={-:-/ absolute / inch / decimal}
; #@! TF.CreationDate,2021-10-19T15:37:22+02:00
; #@! TF.GenerationSoftware,Kicad,Pcbnew,(5.1.10)-1
; #@! TF.FileFunction,Plated,1,2,PTH
FMAT,2
INCH
T1C0.0118
T2C0.0315
T3C0.0394
T4C0.0433
T5C0.0512
T6C0.0591
%
G90
G05
T1
X3.9961Y-3.9961
X3.9961Y-4.1732
X3.9961Y-4.4094
X4.0059Y-4.0846
X4.0059Y-4.2323
X4.0059Y-4.3209
X4.0059Y-4.5079
X4.0059Y-4.5866
X4.0354Y-5.4134
X4.0354Y-5.4724
X4.0354Y-5.5315
X4.0354Y-5.5906
X4.0354Y-5.6496
X4.0945Y-4.1929
X4.1142Y-5.4134
X4.1142Y-5.4724
X4.1142Y-5.5315
X4.1142Y-5.5906
X4.1142Y-5.6496
X4.1929Y-5.4134
X4.1929Y-5.4724
X4.1929Y-5.5315
X4.1929Y-5.5906
X4.1929Y-5.6496
X4.2126Y-3.9961
X4.2126Y-4.1929
X4.2717Y-5.4134
X4.2717Y-5.4724
X4.2717Y-5.5315
X4.2717Y-5.5906
X4.2717Y-5.6496
X4.3209Y-4.1929
X4.3307Y-3.9961
X4.378Y-4.1693
X4.4094Y-5.8465
X4.4488Y-4.5866
X4.4488Y-5.4134
X4.5276Y-3.9961
X4.5669Y-3.9961
X4.5669Y-4.4094
X4.5669Y-4.4488
X4.5669Y-4.4882
X4.5669Y-4.5276
X4.5669Y-4.5669
X4.5669Y-5.8465
X4.5866Y-4.5866
X4.6063Y-4.4094
X4.6063Y-4.5669
X4.626Y-5.0787
X4.626Y-4.7441
X4.626Y-5.0
X4.6457Y-4.4094
X4.6457Y-4.5669
X4.6457Y-5.2362
X4.6457Y-5.4134
X4.6535Y-4.8268
X4.685Y-4.4094
X4.685Y-4.5669
X4.7087Y-5.1457
X4.7146Y-3.9961
X4.7146Y-4.4193
X4.7244Y-4.4488
X4.7244Y-4.4882
X4.7244Y-4.5276
X4.7244Y-4.5669
X4.752Y-5.0157
X4.7756Y-5.189
X4.8031Y-5.8465
X4.8228Y-3.9961
X4.8307Y-5.185
X4.9988Y-4.6469
X5.0Y-3.9961
X5.0197Y-5.8465
X5.1142Y-4.9016
X5.1181Y-4.3799
X5.1181Y-4.4094
X5.1476Y-4.3799
X5.1476Y-4.4094
X5.1575Y-4.8425
X5.1614Y-4.7913
X5.1732Y-4.7559
X5.1772Y-4.311
X5.1772Y-4.3799
X5.1772Y-4.4094
X5.1772Y-4.5866
X5.1969Y-3.9961
X5.1969Y-4.1142
X5.1969Y-4.5669
X5.2126Y-5.8465
X5.2165Y-4.5472
X5.2165Y-4.5866
X5.2205Y-4.2126
X5.2362Y-4.5276
X5.2362Y-4.5669
X5.2362Y-5.4488
X5.2559Y-4.5472
X5.2648Y-4.6467
X5.2756Y-4.9606
X5.3071Y-5.752
X5.3189Y-4.9291
X5.3307Y-4.5551
X5.3346Y-5.0787
X5.3465Y-5.0394
X5.3465Y-5.6969
X5.3543Y-4.4724
X5.3858Y-5.748
X5.3898Y-5.6457
X5.4134Y-5.0787
X5.4213Y-5.4449
X5.4449Y-4.189
X5.4724Y-5.1378
X5.5Y-4.7835
X5.5039Y-4.2953
X5.5039Y-4.6339
X5.5039Y-5.6535
X5.5079Y-5.5748
X5.5118Y-4.2283
X5.5118Y-5.3543
X5.5354Y-5.3937
X5.5472Y-5.2047
X5.563Y-4.8583
X5.5709Y-4.1929
X5.5709Y-4.5433
X5.5709Y-4.6378
X5.5709Y-4.752
X5.6457Y-5.5157
X5.6496Y-5.8465
X5.6693Y-4.4685
X5.6693Y-4.5276
X5.6693Y-4.5866
X5.6693Y-4.9843
X5.7205Y-5.3386
X5.7283Y-4.4685
X5.7283Y-4.5276
X5.7283Y-4.5866
X5.7795Y-5.1024
X5.7874Y-4.1929
X5.7874Y-4.4685
X5.7874Y-4.5276
X5.7874Y-4.5866
X5.8071Y-5.8465
X5.815Y-5.3976
X5.8425Y-5.1732
X5.8622Y-5.126
X5.8819Y-5.3386
X5.8937Y-4.9882
X5.9213Y-5.126
X5.9213Y-5.5
X5.9409Y-5.5472
X5.9567Y-5.2087
X5.9843Y-4.1929
X6.0103Y-5.2987
X6.0315Y-4.8465
X6.0354Y-5.4488
X6.0394Y-4.4567
X6.0394Y-4.5591
X6.0394Y-4.6654
X6.0394Y-4.7559
X6.0433Y-5.8465
X6.0551Y-5.0039
X6.0551Y-5.1142
X6.0591Y-4.9606
X6.0827Y-5.7953
X6.1122Y-4.9213
X6.122Y-5.7087
X6.1746Y-4.3321
X6.1772Y-4.5276
X6.1811Y-4.4783
X6.1811Y-5.6496
X6.1811Y-4.2205
X6.185Y-4.7126
X6.2087Y-4.9449
X6.2402Y-4.2126
X6.2441Y-5.5866
X6.2559Y-4.3425
X6.2598Y-4.4843
X6.2717Y-5.4724
X6.2795Y-4.1929
X6.2795Y-4.9449
X6.2913Y-5.5866
X6.2953Y-5.811
X6.3386Y-4.2638
X6.3386Y-4.5354
X6.3583Y-3.9961
X6.3583Y-4.1142
X6.3716Y-5.5842
X6.374Y-4.7598
X6.3858Y-4.4882
X6.4409Y-5.5827
X6.4449Y-4.7953
X6.4469Y-4.4783
X6.4567Y-5.7362
X6.5039Y-4.1535
X6.5197Y-4.7717
X6.5354Y-5.8465
X6.5551Y-3.9961
X6.8307Y-4.0157
X6.8307Y-4.252
X6.8307Y-4.4882
X6.8307Y-4.6457
X6.8307Y-4.8228
X6.8307Y-5.0197
X6.8307Y-5.2559
X6.8307Y-5.4331
X6.8307Y-5.6102
X6.8307Y-5.8465
T2
X4.4685Y-4.3898
X4.4685Y-4.4685
X4.49Y-4.7146
X4.49Y-4.9114
T3
X5.16Y-5.8071
X5.26Y-5.8071
X5.36Y-5.8071
X5.46Y-5.8071
X6.23Y-5.17
X6.23Y-5.2684
X6.23Y-5.3669
X6.45Y-4.1
X6.45Y-4.2
X6.45Y-4.3
X6.6535Y-4.5965
X6.6535Y-4.6965
X6.6535Y-4.8524
X6.7535Y-4.8524
X6.8009Y-5.17
X6.8009Y-5.3669
T4
X4.0618Y-5.1181
X4.1618Y-5.1181
X4.2618Y-5.1181
T5
X4.1339Y-4.3307
X4.1339Y-4.5307
X4.1339Y-4.7307
X4.1339Y-4.9307
T6
G00X6.4997Y-5.048
M15
G01X6.5509Y-5.048
M16
G05
G00X6.4997Y-5.4889
M15
G01X6.5509Y-5.4889
M16
G05
T0
M30
