%TF.GenerationSoftware,KiCad,Pcbnew,(5.1.10)-1*%
%TF.CreationDate,2021-10-19T15:37:20+02:00*%
%TF.ProjectId,OpenHeat,4f70656e-4865-4617-942e-6b696361645f,1.0*%
%TF.SameCoordinates,Original*%
%TF.FileFunction,Copper,L2,Bot*%
%TF.FilePolarity,Positive*%
%FSLAX46Y46*%
G04 Gerber Fmt 4.6, Leading zero omitted, Abs format (unit mm)*
G04 Created by KiCad (PCBNEW (5.1.10)-1) date 2021-10-19 15:37:20*
%MOMM*%
%LPD*%
G01*
G04 APERTURE LIST*
%TA.AperFunction,ComponentPad*%
%ADD10O,1.905000X2.000000*%
%TD*%
%TA.AperFunction,ComponentPad*%
%ADD11R,1.905000X2.000000*%
%TD*%
%TA.AperFunction,ComponentPad*%
%ADD12R,2.000000X2.000000*%
%TD*%
%TA.AperFunction,ComponentPad*%
%ADD13C,2.000000*%
%TD*%
%TA.AperFunction,ComponentPad*%
%ADD14R,3.200000X2.000000*%
%TD*%
%TA.AperFunction,ComponentPad*%
%ADD15O,1.700000X1.700000*%
%TD*%
%TA.AperFunction,ComponentPad*%
%ADD16R,1.700000X1.700000*%
%TD*%
%TA.AperFunction,ComponentPad*%
%ADD17C,2.600000*%
%TD*%
%TA.AperFunction,ComponentPad*%
%ADD18R,2.600000X2.600000*%
%TD*%
%TA.AperFunction,SMDPad,CuDef*%
%ADD19R,1.800000X2.500000*%
%TD*%
%TA.AperFunction,ComponentPad*%
%ADD20C,1.600000*%
%TD*%
%TA.AperFunction,ComponentPad*%
%ADD21R,1.600000X1.600000*%
%TD*%
%TA.AperFunction,ViaPad*%
%ADD22C,0.500000*%
%TD*%
%TA.AperFunction,Conductor*%
%ADD23C,2.000000*%
%TD*%
%TA.AperFunction,Conductor*%
%ADD24C,1.000000*%
%TD*%
%TA.AperFunction,Conductor*%
%ADD25C,4.000000*%
%TD*%
%TA.AperFunction,Conductor*%
%ADD26C,0.500000*%
%TD*%
%TA.AperFunction,Conductor*%
%ADD27C,0.300000*%
%TD*%
%TA.AperFunction,Conductor*%
%ADD28C,0.250000*%
%TD*%
%TA.AperFunction,Conductor*%
%ADD29C,0.254000*%
%TD*%
%TA.AperFunction,Conductor*%
%ADD30C,0.100000*%
%TD*%
%TA.AperFunction,Conductor*%
%ADD31C,0.200000*%
%TD*%
G04 APERTURE END LIST*
D10*
%TO.P,Q2,3*%
%TO.N,GND*%
X103170000Y-130000000D03*
%TO.P,Q2,2*%
%TO.N,Net-(D4-Pad2)*%
X105710000Y-130000000D03*
D11*
%TO.P,Q2,1*%
%TO.N,Net-(Q2-Pad1)*%
X108250000Y-130000000D03*
%TD*%
%TO.P,U1,4*%
%TO.N,Net-(U1-Pad4)*%
%TA.AperFunction,SMDPad,CuDef*%
G36*
G01*
X128750000Y-103625000D02*
X128750000Y-102375000D01*
G75*
G02*
X129375000Y-101750000I625000J0D01*
G01*
X130625000Y-101750000D01*
G75*
G02*
X131250000Y-102375000I0J-625000D01*
G01*
X131250000Y-103625000D01*
G75*
G02*
X130625000Y-104250000I-625000J0D01*
G01*
X129375000Y-104250000D01*
G75*
G02*
X128750000Y-103625000I0J625000D01*
G01*
G37*
%TD.AperFunction*%
%TO.P,U1,1*%
%TO.N,+24V*%
%TA.AperFunction,SMDPad,CuDef*%
G36*
G01*
X118625000Y-104250000D02*
X117375000Y-104250000D01*
G75*
G02*
X116750000Y-103625000I0J625000D01*
G01*
X116750000Y-102375000D01*
G75*
G02*
X117375000Y-101750000I625000J0D01*
G01*
X118625000Y-101750000D01*
G75*
G02*
X119250000Y-102375000I0J-625000D01*
G01*
X119250000Y-103625000D01*
G75*
G02*
X118625000Y-104250000I-625000J0D01*
G01*
G37*
%TD.AperFunction*%
%TO.P,U1,2*%
%TO.N,GND*%
%TA.AperFunction,SMDPad,CuDef*%
G36*
G01*
X119250000Y-113375000D02*
X119250000Y-114625000D01*
G75*
G02*
X118625000Y-115250000I-625000J0D01*
G01*
X117375000Y-115250000D01*
G75*
G02*
X116750000Y-114625000I0J625000D01*
G01*
X116750000Y-113375000D01*
G75*
G02*
X117375000Y-112750000I625000J0D01*
G01*
X118625000Y-112750000D01*
G75*
G02*
X119250000Y-113375000I0J-625000D01*
G01*
G37*
%TD.AperFunction*%
%TO.P,U1,3*%
%TO.N,+3V3*%
%TA.AperFunction,SMDPad,CuDef*%
G36*
G01*
X129375000Y-112750000D02*
X130625000Y-112750000D01*
G75*
G02*
X131250000Y-113375000I0J-625000D01*
G01*
X131250000Y-114625000D01*
G75*
G02*
X130625000Y-115250000I-625000J0D01*
G01*
X129375000Y-115250000D01*
G75*
G02*
X128750000Y-114625000I0J625000D01*
G01*
X128750000Y-113375000D01*
G75*
G02*
X129375000Y-112750000I625000J0D01*
G01*
G37*
%TD.AperFunction*%
%TD*%
D12*
%TO.P,SW1,A*%
%TO.N,/EC_A*%
X158242000Y-131318000D03*
D13*
%TO.P,SW1,C*%
%TO.N,GND*%
X158242000Y-133818000D03*
%TO.P,SW1,B*%
%TO.N,/EC_B*%
X158242000Y-136318000D03*
D14*
%TO.P,SW1,MP*%
%TO.N,N/C*%
X165742000Y-128218000D03*
X165742000Y-139418000D03*
D13*
%TO.P,SW1,S2*%
%TO.N,GND*%
X172742000Y-131318000D03*
%TO.P,SW1,S1*%
%TO.N,Net-(R10-Pad2)*%
X172742000Y-136318000D03*
%TD*%
D15*
%TO.P,JP1,2*%
%TO.N,GND*%
X171540000Y-123250000D03*
D16*
%TO.P,JP1,1*%
%TO.N,/GPIO0*%
X169000000Y-123250000D03*
%TD*%
D15*
%TO.P,J5,2*%
%TO.N,Net-(C12-Pad1)*%
X169000000Y-119290000D03*
D16*
%TO.P,J5,1*%
%TO.N,Net-(C12-Pad2)*%
X169000000Y-116750000D03*
%TD*%
D15*
%TO.P,J4,3*%
%TO.N,GND*%
X163830000Y-109220000D03*
%TO.P,J4,2*%
%TO.N,Net-(J4-Pad2)*%
X163830000Y-106680000D03*
D16*
%TO.P,J4,1*%
%TO.N,Net-(J4-Pad1)*%
X163830000Y-104140000D03*
%TD*%
D15*
%TO.P,J3,4*%
%TO.N,/OLED_SDA*%
X131064000Y-147500000D03*
%TO.P,J3,3*%
%TO.N,/OLED_SCL*%
X133604000Y-147500000D03*
%TO.P,J3,2*%
%TO.N,GND*%
X136144000Y-147500000D03*
D16*
%TO.P,J3,1*%
%TO.N,+3V3*%
X138684000Y-147500000D03*
%TD*%
D17*
%TO.P,J1,4*%
%TO.N,Net-(D4-Pad2)*%
X105000000Y-125240000D03*
%TO.P,J1,3*%
%TO.N,+24V*%
X105000000Y-120160000D03*
%TO.P,J1,2*%
%TO.N,GND*%
X105000000Y-115080000D03*
D18*
%TO.P,J1,1*%
%TO.N,+24V*%
X105000000Y-110000000D03*
%TD*%
D19*
%TO.P,D4,2*%
%TO.N,Net-(D4-Pad2)*%
X109750000Y-124000000D03*
%TO.P,D4,1*%
%TO.N,+24V*%
X109750000Y-120000000D03*
%TD*%
D20*
%TO.P,C9,2*%
%TO.N,+24V*%
X114046000Y-119750000D03*
%TO.P,C9,1*%
%TO.N,GND*%
X114046000Y-124750000D03*
%TD*%
%TO.P,C3,2*%
%TO.N,GND*%
%TA.AperFunction,SMDPad,CuDef*%
G36*
G01*
X133475000Y-112512500D02*
X132525000Y-112512500D01*
G75*
G02*
X132275000Y-112262500I0J250000D01*
G01*
X132275000Y-111587500D01*
G75*
G02*
X132525000Y-111337500I250000J0D01*
G01*
X133475000Y-111337500D01*
G75*
G02*
X133725000Y-111587500I0J-250000D01*
G01*
X133725000Y-112262500D01*
G75*
G02*
X133475000Y-112512500I-250000J0D01*
G01*
G37*
%TD.AperFunction*%
%TO.P,C3,1*%
%TO.N,+3V3*%
%TA.AperFunction,SMDPad,CuDef*%
G36*
G01*
X133475000Y-114587500D02*
X132525000Y-114587500D01*
G75*
G02*
X132275000Y-114337500I0J250000D01*
G01*
X132275000Y-113662500D01*
G75*
G02*
X132525000Y-113412500I250000J0D01*
G01*
X133475000Y-113412500D01*
G75*
G02*
X133725000Y-113662500I0J-250000D01*
G01*
X133725000Y-114337500D01*
G75*
G02*
X133475000Y-114587500I-250000J0D01*
G01*
G37*
%TD.AperFunction*%
%TD*%
%TO.P,C2,2*%
%TO.N,GND*%
%TA.AperFunction,SMDPad,CuDef*%
G36*
G01*
X114349999Y-105962500D02*
X115650001Y-105962500D01*
G75*
G02*
X115900000Y-106212499I0J-249999D01*
G01*
X115900000Y-107037501D01*
G75*
G02*
X115650001Y-107287500I-249999J0D01*
G01*
X114349999Y-107287500D01*
G75*
G02*
X114100000Y-107037501I0J249999D01*
G01*
X114100000Y-106212499D01*
G75*
G02*
X114349999Y-105962500I249999J0D01*
G01*
G37*
%TD.AperFunction*%
%TO.P,C2,1*%
%TO.N,+24V*%
%TA.AperFunction,SMDPad,CuDef*%
G36*
G01*
X114349999Y-102837500D02*
X115650001Y-102837500D01*
G75*
G02*
X115900000Y-103087499I0J-249999D01*
G01*
X115900000Y-103912501D01*
G75*
G02*
X115650001Y-104162500I-249999J0D01*
G01*
X114349999Y-104162500D01*
G75*
G02*
X114100000Y-103912501I0J249999D01*
G01*
X114100000Y-103087499D01*
G75*
G02*
X114349999Y-102837500I249999J0D01*
G01*
G37*
%TD.AperFunction*%
%TD*%
%TO.P,C1,2*%
%TO.N,GND*%
X113500000Y-113500000D03*
D21*
%TO.P,C1,1*%
%TO.N,+24V*%
X113500000Y-111500000D03*
%TD*%
D22*
%TO.N,GND*%
X147000000Y-113500000D03*
X144000000Y-113500000D03*
X145500000Y-113500000D03*
X144000000Y-116500000D03*
X145500000Y-116500000D03*
X147000000Y-116500000D03*
X147000000Y-115000000D03*
X145500000Y-115000000D03*
X144000000Y-115000000D03*
X111200000Y-105900000D03*
X118200000Y-122600000D03*
X121300000Y-131800000D03*
X122700000Y-131700000D03*
X119600000Y-130700000D03*
X135800000Y-144700000D03*
X159900000Y-147600000D03*
X161000000Y-115200000D03*
X163700000Y-121800000D03*
X157700000Y-125600000D03*
X159500000Y-125600000D03*
X132600000Y-107000000D03*
X140000000Y-107400000D03*
X136000000Y-113600000D03*
X141300000Y-123400000D03*
X137500000Y-129000000D03*
X139000000Y-130500000D03*
X135500000Y-129000000D03*
X155500000Y-145000000D03*
X157000000Y-143500000D03*
X150400000Y-139700000D03*
X139800000Y-143600000D03*
X150400000Y-130200000D03*
X151300000Y-132300000D03*
X149400000Y-135600000D03*
X146800000Y-129600000D03*
X153300000Y-138400000D03*
X159800000Y-141900000D03*
X145300000Y-135600000D03*
X140900000Y-132200000D03*
X140600000Y-137000000D03*
X158600000Y-141900000D03*
X157000006Y-107200000D03*
X153800000Y-129900000D03*
X118000000Y-137500000D03*
X118000000Y-133000000D03*
X113000000Y-137500000D03*
X108500000Y-137500000D03*
X104500000Y-137500000D03*
X112000000Y-148500000D03*
X116000000Y-148500000D03*
X122000000Y-148500000D03*
X127500000Y-148500000D03*
X143500000Y-148500000D03*
X147500000Y-148500000D03*
X153500000Y-148500000D03*
X166000000Y-148500000D03*
X173500000Y-142500000D03*
X173500000Y-148500000D03*
X173500000Y-138000000D03*
X173500000Y-133500000D03*
X173500000Y-127500000D03*
X173500000Y-122500000D03*
X173500000Y-118000000D03*
X173500000Y-114000000D03*
X173500000Y-108000000D03*
X173500000Y-102000000D03*
X166500000Y-101500000D03*
X161500000Y-101500000D03*
X161500000Y-104500000D03*
X158500000Y-107000000D03*
X159500000Y-106500000D03*
X141500000Y-106500000D03*
X147000000Y-106500000D03*
X152000000Y-106500000D03*
X132000000Y-101500000D03*
X132000000Y-104500000D03*
X127000000Y-101500000D03*
X122500000Y-101500000D03*
X116000000Y-101500000D03*
X110000000Y-101500000D03*
X101500000Y-101500000D03*
X101500000Y-106000000D03*
X107000000Y-101500000D03*
X101500000Y-112000000D03*
X116500000Y-116500000D03*
X113000000Y-116500000D03*
X117500000Y-120500000D03*
X117500000Y-127000000D03*
X102500000Y-137500000D03*
X102500000Y-139000000D03*
X104500000Y-139000000D03*
X106500000Y-139000000D03*
X108500000Y-139000000D03*
X108500000Y-140500000D03*
X106500000Y-140500000D03*
X104500000Y-140500000D03*
X102500000Y-140500000D03*
X102500000Y-142000000D03*
X104500000Y-142000000D03*
X106500000Y-142000000D03*
X108500000Y-142000000D03*
X108500000Y-143500000D03*
X106500000Y-143500000D03*
X104500000Y-143500000D03*
X102500000Y-143500000D03*
X106500000Y-137500000D03*
X157100000Y-119700000D03*
X153200000Y-123100000D03*
X153400000Y-113200000D03*
X153400000Y-115800000D03*
X153400000Y-118500000D03*
X153400000Y-120800000D03*
X141500000Y-115400000D03*
X141500000Y-117800000D03*
X141500000Y-120700000D03*
X139800000Y-109100000D03*
X135400000Y-115700000D03*
X131500000Y-109500000D03*
X138300000Y-106400000D03*
X159300000Y-139000000D03*
X147700000Y-137100000D03*
X143400000Y-140100000D03*
X139900000Y-141600000D03*
X133000000Y-138400000D03*
X136900000Y-143400000D03*
X136800000Y-146000000D03*
X132400000Y-148500000D03*
X131100000Y-121700000D03*
X153900000Y-126000000D03*
X161900000Y-120900000D03*
X165600000Y-121200000D03*
X162200000Y-114000000D03*
X156900000Y-115000000D03*
X158900000Y-110300000D03*
X159000000Y-113900000D03*
X161000000Y-108300000D03*
X165200000Y-105500000D03*
X134800000Y-146100000D03*
X154500000Y-147200000D03*
X164000000Y-145700000D03*
X163600000Y-141800000D03*
X144000000Y-126600000D03*
X149700000Y-126700000D03*
X118000000Y-112000000D03*
X116000000Y-114000000D03*
X120000000Y-114000000D03*
X118000000Y-116000000D03*
X116000000Y-112000000D03*
X119750000Y-112250000D03*
X120000000Y-116000000D03*
X116000000Y-116000000D03*
X117000000Y-112000000D03*
X119000000Y-112000000D03*
X120000000Y-113000000D03*
X120000000Y-115000000D03*
X119000000Y-116000000D03*
X117000000Y-116000000D03*
X116000000Y-115000000D03*
X116000000Y-113000000D03*
X131500000Y-112000000D03*
X131500000Y-111250000D03*
X130000000Y-111250000D03*
X130750000Y-111250000D03*
X130750000Y-112000000D03*
X130000000Y-112000000D03*
X117499998Y-129000000D03*
X101750000Y-116500000D03*
X101750000Y-114500000D03*
X101750000Y-109750000D03*
X101750000Y-107500000D03*
X101750000Y-103750000D03*
X104000000Y-106500000D03*
X107000000Y-106500000D03*
X109750000Y-106500000D03*
X115000000Y-101500000D03*
X119750000Y-101500000D03*
%TO.N,+3V3*%
X132000000Y-116000000D03*
X133500000Y-115500000D03*
X132500000Y-115500000D03*
X133000000Y-116000000D03*
X131500000Y-116500000D03*
X133000000Y-115000000D03*
X132500000Y-116500000D03*
X163750000Y-113750000D03*
X152662500Y-134587500D03*
X134000000Y-126000000D03*
%TO.N,/ESP_EN*%
X140000000Y-136000000D03*
X137700000Y-138300000D03*
%TO.N,Net-(C10-Pad1)*%
X129900000Y-124500000D03*
X153799994Y-127100000D03*
%TO.N,/MTDI*%
X161838000Y-141838000D03*
X150900000Y-140900000D03*
%TO.N,/OLED_SDA*%
X157000000Y-113750000D03*
X131000000Y-122999992D03*
%TO.N,/OLED_SCL*%
X156835000Y-110035000D03*
X131400000Y-120800000D03*
%TO.N,/GPIO0*%
X155250010Y-125000000D03*
%TO.N,Net-(R6-Pad1)*%
X126969500Y-118030500D03*
X133725728Y-118025728D03*
%TO.N,/EC_B*%
X135100000Y-125200000D03*
%TO.N,/EC_A*%
X139700000Y-121500000D03*
X148900000Y-130200004D03*
%TO.N,Net-(R10-Pad2)*%
X139800000Y-117700000D03*
X148400000Y-131400000D03*
%TO.N,/HEAT_PWM*%
X135800000Y-128000000D03*
X120700000Y-127400000D03*
%TD*%
D23*
%TO.N,GND*%
X103200000Y-130030000D02*
X103170000Y-130000000D01*
%TO.N,+24V*%
X105160000Y-120000000D02*
X105000000Y-120160000D01*
X109750000Y-120000000D02*
X105160000Y-120000000D01*
X113796000Y-120000000D02*
X114046000Y-119750000D01*
D24*
X113500000Y-111500000D02*
X113500000Y-109500000D01*
X113399990Y-109399990D02*
X113399990Y-108699990D01*
X113500000Y-109500000D02*
X113399990Y-109399990D01*
X113399990Y-108699990D02*
X112800000Y-108100000D01*
X112800000Y-108100000D02*
X112800000Y-104200000D01*
X113500000Y-103500000D02*
X115000000Y-103500000D01*
X112800000Y-104200000D02*
X113500000Y-103500000D01*
X117500000Y-103500000D02*
X118000000Y-103000000D01*
X115000000Y-103500000D02*
X117500000Y-103500000D01*
D25*
X105410000Y-119750000D02*
X105000000Y-120160000D01*
X114046000Y-119750000D02*
X105410000Y-119750000D01*
X108300000Y-110000000D02*
X105000000Y-110000000D01*
X109500000Y-111200000D02*
X108300000Y-110000000D01*
X109500000Y-119750000D02*
X109500000Y-111200000D01*
X114046000Y-119750000D02*
X109500000Y-119750000D01*
D24*
%TO.N,+3V3*%
X133000000Y-114000000D02*
X130000000Y-114000000D01*
X133000000Y-115000000D02*
X132000000Y-116000000D01*
X133000000Y-114000000D02*
X133000000Y-115000000D01*
D26*
X158300000Y-108300000D02*
X163750000Y-113750000D01*
X138700000Y-108300000D02*
X158300000Y-108300000D01*
X133000000Y-114000000D02*
X138700000Y-108300000D01*
X134900000Y-126900000D02*
X134000000Y-126000000D01*
X136975000Y-126900000D02*
X134900000Y-126900000D01*
X144662500Y-134587500D02*
X136975000Y-126900000D01*
X152662500Y-134587500D02*
X144662500Y-134587500D01*
D27*
%TO.N,/ESP_EN*%
X140000000Y-136000000D02*
X137700000Y-138300000D01*
%TO.N,Net-(C10-Pad1)*%
X153799994Y-128450006D02*
X153799994Y-127100000D01*
X149550000Y-132700000D02*
X153799994Y-128450006D01*
X145500000Y-132700000D02*
X149550000Y-132700000D01*
X136800000Y-124000000D02*
X145500000Y-132700000D01*
X130400000Y-124000000D02*
X136800000Y-124000000D01*
X129900000Y-124500000D02*
X130400000Y-124000000D01*
D23*
%TO.N,Net-(D4-Pad2)*%
X109750000Y-124000000D02*
X107700000Y-124000000D01*
X106460000Y-125240000D02*
X105000000Y-125240000D01*
X107700000Y-124000000D02*
X106460000Y-125240000D01*
X105710000Y-125950000D02*
X105000000Y-125240000D01*
X105710000Y-130000000D02*
X105710000Y-125950000D01*
D28*
%TO.N,/MTDI*%
X161838000Y-141838000D02*
X160900000Y-140900000D01*
X160900000Y-140900000D02*
X150900000Y-140900000D01*
D27*
%TO.N,/OLED_SDA*%
X157000000Y-113750000D02*
X155250000Y-112000000D01*
X155250000Y-112000000D02*
X141999992Y-112000000D01*
X141999992Y-112000000D02*
X131000000Y-122999992D01*
%TO.N,/OLED_SCL*%
X156835000Y-110035000D02*
X142565000Y-110035000D01*
X131800000Y-120800000D02*
X131400000Y-120800000D01*
X142565000Y-110035000D02*
X131800000Y-120800000D01*
D28*
%TO.N,/GPIO0*%
X169000000Y-123250000D02*
X157000010Y-123250000D01*
X157000010Y-123250000D02*
X155250010Y-125000000D01*
D27*
%TO.N,Net-(R6-Pad1)*%
X133351456Y-118400000D02*
X133725728Y-118025728D01*
X127339000Y-118400000D02*
X133351456Y-118400000D01*
X126969500Y-118030500D02*
X127339000Y-118400000D01*
D28*
%TO.N,/EC_B*%
X136731594Y-125200000D02*
X135100000Y-125200000D01*
X145131594Y-133600000D02*
X136731594Y-125200000D01*
X155524000Y-133600000D02*
X145131594Y-133600000D01*
X158242000Y-136318000D02*
X155524000Y-133600000D01*
D27*
%TO.N,/EC_A*%
X146200004Y-130200004D02*
X148900000Y-130200004D01*
X139700000Y-121500000D02*
X139700000Y-123700000D01*
X139700000Y-123700000D02*
X146200004Y-130200004D01*
%TO.N,Net-(R10-Pad2)*%
X139800000Y-117700000D02*
X137800000Y-119700000D01*
X137800000Y-123400000D02*
X145800000Y-131400000D01*
X137800000Y-119700000D02*
X137800000Y-123400000D01*
X145800000Y-131400000D02*
X148400000Y-131400000D01*
%TO.N,/HEAT_PWM*%
X121300000Y-128000000D02*
X120700000Y-127400000D01*
X135800000Y-128000000D02*
X121300000Y-128000000D01*
%TD*%
D29*
%TO.N,+3V3*%
X133873000Y-115302606D02*
X133873000Y-115697394D01*
X132697394Y-116873000D01*
X131302606Y-116873000D01*
X131127000Y-116697394D01*
X131127000Y-116052606D01*
X132302606Y-114877000D01*
X133447394Y-114877000D01*
X133873000Y-115302606D01*
%TA.AperFunction,Conductor*%
D30*
G36*
X133873000Y-115302606D02*
G01*
X133873000Y-115697394D01*
X132697394Y-116873000D01*
X131302606Y-116873000D01*
X131127000Y-116697394D01*
X131127000Y-116052606D01*
X132302606Y-114877000D01*
X133447394Y-114877000D01*
X133873000Y-115302606D01*
G37*
%TD.AperFunction*%
%TD*%
D31*
%TO.N,GND*%
X132400000Y-106000000D02*
X132401921Y-106019509D01*
X132407612Y-106038268D01*
X132416853Y-106055557D01*
X132429289Y-106070711D01*
X132444443Y-106083147D01*
X132461732Y-106092388D01*
X132480491Y-106098079D01*
X132500000Y-106100000D01*
X161000000Y-106100000D01*
X161019509Y-106098079D01*
X161038268Y-106092388D01*
X161055557Y-106083147D01*
X161070711Y-106070711D01*
X161083147Y-106055557D01*
X161092388Y-106038268D01*
X161098079Y-106019509D01*
X161100000Y-106000000D01*
X161100000Y-103290000D01*
X162678549Y-103290000D01*
X162678549Y-104990000D01*
X162684341Y-105048810D01*
X162701496Y-105105360D01*
X162729353Y-105157477D01*
X162766842Y-105203158D01*
X162812523Y-105240647D01*
X162864640Y-105268504D01*
X162921190Y-105285659D01*
X162980000Y-105291451D01*
X164680000Y-105291451D01*
X164738810Y-105285659D01*
X164795360Y-105268504D01*
X164847477Y-105240647D01*
X164893158Y-105203158D01*
X164930647Y-105157477D01*
X164958504Y-105105360D01*
X164975659Y-105048810D01*
X164981451Y-104990000D01*
X164981451Y-104812866D01*
X168100000Y-104812866D01*
X168100000Y-105187134D01*
X168173016Y-105554209D01*
X168316242Y-105899987D01*
X168524174Y-106211179D01*
X168788821Y-106475826D01*
X169100013Y-106683758D01*
X169445791Y-106826984D01*
X169812866Y-106900000D01*
X170187134Y-106900000D01*
X170554209Y-106826984D01*
X170899987Y-106683758D01*
X171211179Y-106475826D01*
X171475826Y-106211179D01*
X171683758Y-105899987D01*
X171826984Y-105554209D01*
X171900000Y-105187134D01*
X171900000Y-104812866D01*
X171826984Y-104445791D01*
X171683758Y-104100013D01*
X171475826Y-103788821D01*
X171211179Y-103524174D01*
X170899987Y-103316242D01*
X170554209Y-103173016D01*
X170187134Y-103100000D01*
X169812866Y-103100000D01*
X169445791Y-103173016D01*
X169100013Y-103316242D01*
X168788821Y-103524174D01*
X168524174Y-103788821D01*
X168316242Y-104100013D01*
X168173016Y-104445791D01*
X168100000Y-104812866D01*
X164981451Y-104812866D01*
X164981451Y-103290000D01*
X164975659Y-103231190D01*
X164958504Y-103174640D01*
X164930647Y-103122523D01*
X164893158Y-103076842D01*
X164847477Y-103039353D01*
X164795360Y-103011496D01*
X164738810Y-102994341D01*
X164680000Y-102988549D01*
X162980000Y-102988549D01*
X162921190Y-102994341D01*
X162864640Y-103011496D01*
X162812523Y-103039353D01*
X162766842Y-103076842D01*
X162729353Y-103122523D01*
X162701496Y-103174640D01*
X162684341Y-103231190D01*
X162678549Y-103290000D01*
X161100000Y-103290000D01*
X161100000Y-101100000D01*
X173900000Y-101100000D01*
X173900000Y-130557721D01*
X173894320Y-130554589D01*
X173130909Y-131318000D01*
X173894320Y-132081411D01*
X173900000Y-132078279D01*
X173900000Y-135716596D01*
X173894045Y-135702219D01*
X173751776Y-135489298D01*
X173570702Y-135308224D01*
X173357781Y-135165955D01*
X173121196Y-135067958D01*
X172870039Y-135018000D01*
X172613961Y-135018000D01*
X172362804Y-135067958D01*
X172126219Y-135165955D01*
X171913298Y-135308224D01*
X171732224Y-135489298D01*
X171589955Y-135702219D01*
X171491958Y-135938804D01*
X171442000Y-136189961D01*
X171442000Y-136446039D01*
X171491958Y-136697196D01*
X171589955Y-136933781D01*
X171732224Y-137146702D01*
X171913298Y-137327776D01*
X172126219Y-137470045D01*
X172362804Y-137568042D01*
X172613961Y-137618000D01*
X172870039Y-137618000D01*
X173121196Y-137568042D01*
X173357781Y-137470045D01*
X173570702Y-137327776D01*
X173751776Y-137146702D01*
X173894045Y-136933781D01*
X173900000Y-136919404D01*
X173900000Y-148900000D01*
X150439788Y-148900000D01*
X150634604Y-148861249D01*
X150986867Y-148715337D01*
X151303895Y-148503505D01*
X151573505Y-148233895D01*
X151785337Y-147916867D01*
X151931249Y-147564604D01*
X152005634Y-147190643D01*
X152005634Y-146809357D01*
X151931249Y-146435396D01*
X151785337Y-146083133D01*
X151573505Y-145766105D01*
X151303895Y-145496495D01*
X150986867Y-145284663D01*
X150634604Y-145138751D01*
X150260643Y-145064366D01*
X149879357Y-145064366D01*
X149505396Y-145138751D01*
X149153133Y-145284663D01*
X148836105Y-145496495D01*
X148566495Y-145766105D01*
X148354663Y-146083133D01*
X148208751Y-146435396D01*
X148134366Y-146809357D01*
X148134366Y-147190643D01*
X148208751Y-147564604D01*
X148354663Y-147916867D01*
X148566495Y-148233895D01*
X148836105Y-148503505D01*
X149153133Y-148715337D01*
X149505396Y-148861249D01*
X149700212Y-148900000D01*
X101100000Y-148900000D01*
X101100000Y-146458093D01*
X103660000Y-146458093D01*
X103660000Y-146861907D01*
X103738780Y-147257963D01*
X103893314Y-147631039D01*
X104117661Y-147966799D01*
X104403201Y-148252339D01*
X104738961Y-148476686D01*
X105112037Y-148631220D01*
X105508093Y-148710000D01*
X105911907Y-148710000D01*
X106307963Y-148631220D01*
X106681039Y-148476686D01*
X107016799Y-148252339D01*
X107302339Y-147966799D01*
X107526686Y-147631039D01*
X107627880Y-147386735D01*
X129914000Y-147386735D01*
X129914000Y-147613265D01*
X129958194Y-147835443D01*
X130044884Y-148044729D01*
X130170737Y-148233082D01*
X130330918Y-148393263D01*
X130519271Y-148519116D01*
X130728557Y-148605806D01*
X130950735Y-148650000D01*
X131177265Y-148650000D01*
X131399443Y-148605806D01*
X131608729Y-148519116D01*
X131797082Y-148393263D01*
X131957263Y-148233082D01*
X132083116Y-148044729D01*
X132169806Y-147835443D01*
X132214000Y-147613265D01*
X132214000Y-147386735D01*
X132454000Y-147386735D01*
X132454000Y-147613265D01*
X132498194Y-147835443D01*
X132584884Y-148044729D01*
X132710737Y-148233082D01*
X132870918Y-148393263D01*
X133059271Y-148519116D01*
X133268557Y-148605806D01*
X133490735Y-148650000D01*
X133717265Y-148650000D01*
X133939443Y-148605806D01*
X134148729Y-148519116D01*
X134337082Y-148393263D01*
X134497263Y-148233082D01*
X134623116Y-148044729D01*
X134650601Y-147978375D01*
X134881586Y-147978375D01*
X134999169Y-148215468D01*
X135160747Y-148425066D01*
X135360111Y-148599114D01*
X135589600Y-148730924D01*
X135665627Y-148762402D01*
X135869000Y-148693734D01*
X135869000Y-147775000D01*
X136419000Y-147775000D01*
X136419000Y-148693734D01*
X136622373Y-148762402D01*
X136698400Y-148730924D01*
X136927889Y-148599114D01*
X137127253Y-148425066D01*
X137288831Y-148215468D01*
X137406414Y-147978375D01*
X137340706Y-147775000D01*
X136419000Y-147775000D01*
X135869000Y-147775000D01*
X134947294Y-147775000D01*
X134881586Y-147978375D01*
X134650601Y-147978375D01*
X134709806Y-147835443D01*
X134754000Y-147613265D01*
X134754000Y-147386735D01*
X134709806Y-147164557D01*
X134650602Y-147021625D01*
X134881586Y-147021625D01*
X134947294Y-147225000D01*
X135869000Y-147225000D01*
X135869000Y-146306266D01*
X136419000Y-146306266D01*
X136419000Y-147225000D01*
X137340706Y-147225000D01*
X137406414Y-147021625D01*
X137288831Y-146784532D01*
X137185121Y-146650000D01*
X137532549Y-146650000D01*
X137532549Y-148350000D01*
X137538341Y-148408810D01*
X137555496Y-148465360D01*
X137583353Y-148517477D01*
X137620842Y-148563158D01*
X137666523Y-148600647D01*
X137718640Y-148628504D01*
X137775190Y-148645659D01*
X137834000Y-148651451D01*
X139534000Y-148651451D01*
X139592810Y-148645659D01*
X139649360Y-148628504D01*
X139701477Y-148600647D01*
X139747158Y-148563158D01*
X139784647Y-148517477D01*
X139812504Y-148465360D01*
X139829659Y-148408810D01*
X139835451Y-148350000D01*
X139835451Y-146650000D01*
X139829659Y-146591190D01*
X139812504Y-146534640D01*
X139784647Y-146482523D01*
X139747158Y-146436842D01*
X139701477Y-146399353D01*
X139649360Y-146371496D01*
X139592810Y-146354341D01*
X139534000Y-146348549D01*
X137834000Y-146348549D01*
X137775190Y-146354341D01*
X137718640Y-146371496D01*
X137666523Y-146399353D01*
X137620842Y-146436842D01*
X137583353Y-146482523D01*
X137555496Y-146534640D01*
X137538341Y-146591190D01*
X137532549Y-146650000D01*
X137185121Y-146650000D01*
X137127253Y-146574934D01*
X136927889Y-146400886D01*
X136698400Y-146269076D01*
X136622373Y-146237598D01*
X136419000Y-146306266D01*
X135869000Y-146306266D01*
X135665627Y-146237598D01*
X135589600Y-146269076D01*
X135360111Y-146400886D01*
X135160747Y-146574934D01*
X134999169Y-146784532D01*
X134881586Y-147021625D01*
X134650602Y-147021625D01*
X134623116Y-146955271D01*
X134497263Y-146766918D01*
X134337082Y-146606737D01*
X134148729Y-146480884D01*
X133939443Y-146394194D01*
X133717265Y-146350000D01*
X133490735Y-146350000D01*
X133268557Y-146394194D01*
X133059271Y-146480884D01*
X132870918Y-146606737D01*
X132710737Y-146766918D01*
X132584884Y-146955271D01*
X132498194Y-147164557D01*
X132454000Y-147386735D01*
X132214000Y-147386735D01*
X132169806Y-147164557D01*
X132083116Y-146955271D01*
X131957263Y-146766918D01*
X131797082Y-146606737D01*
X131608729Y-146480884D01*
X131399443Y-146394194D01*
X131177265Y-146350000D01*
X130950735Y-146350000D01*
X130728557Y-146394194D01*
X130519271Y-146480884D01*
X130330918Y-146606737D01*
X130170737Y-146766918D01*
X130044884Y-146955271D01*
X129958194Y-147164557D01*
X129914000Y-147386735D01*
X107627880Y-147386735D01*
X107681220Y-147257963D01*
X107760000Y-146861907D01*
X107760000Y-146458093D01*
X107681220Y-146062037D01*
X107526686Y-145688961D01*
X107302339Y-145353201D01*
X107016799Y-145067661D01*
X106681039Y-144843314D01*
X106607532Y-144812866D01*
X168100000Y-144812866D01*
X168100000Y-145187134D01*
X168173016Y-145554209D01*
X168316242Y-145899987D01*
X168524174Y-146211179D01*
X168788821Y-146475826D01*
X169100013Y-146683758D01*
X169445791Y-146826984D01*
X169812866Y-146900000D01*
X170187134Y-146900000D01*
X170554209Y-146826984D01*
X170899987Y-146683758D01*
X171211179Y-146475826D01*
X171475826Y-146211179D01*
X171683758Y-145899987D01*
X171826984Y-145554209D01*
X171900000Y-145187134D01*
X171900000Y-144812866D01*
X171826984Y-144445791D01*
X171683758Y-144100013D01*
X171475826Y-143788821D01*
X171211179Y-143524174D01*
X170899987Y-143316242D01*
X170554209Y-143173016D01*
X170187134Y-143100000D01*
X169812866Y-143100000D01*
X169445791Y-143173016D01*
X169100013Y-143316242D01*
X168788821Y-143524174D01*
X168524174Y-143788821D01*
X168316242Y-144100013D01*
X168173016Y-144445791D01*
X168100000Y-144812866D01*
X106607532Y-144812866D01*
X106307963Y-144688780D01*
X105911907Y-144610000D01*
X105508093Y-144610000D01*
X105112037Y-144688780D01*
X104738961Y-144843314D01*
X104403201Y-145067661D01*
X104117661Y-145353201D01*
X103893314Y-145688961D01*
X103738780Y-146062037D01*
X103660000Y-146458093D01*
X101100000Y-146458093D01*
X101100000Y-140845830D01*
X150350000Y-140845830D01*
X150350000Y-140954170D01*
X150371136Y-141060429D01*
X150412597Y-141160523D01*
X150472787Y-141250604D01*
X150549396Y-141327213D01*
X150639477Y-141387403D01*
X150739571Y-141428864D01*
X150845830Y-141450000D01*
X150954170Y-141450000D01*
X151060429Y-141428864D01*
X151160523Y-141387403D01*
X151250604Y-141327213D01*
X151252817Y-141325000D01*
X160723960Y-141325000D01*
X161288000Y-141889041D01*
X161288000Y-141892170D01*
X161309136Y-141998429D01*
X161350597Y-142098523D01*
X161410787Y-142188604D01*
X161487396Y-142265213D01*
X161577477Y-142325403D01*
X161677571Y-142366864D01*
X161783830Y-142388000D01*
X161892170Y-142388000D01*
X161998429Y-142366864D01*
X162098523Y-142325403D01*
X162188604Y-142265213D01*
X162265213Y-142188604D01*
X162325403Y-142098523D01*
X162366864Y-141998429D01*
X162388000Y-141892170D01*
X162388000Y-141783830D01*
X162366864Y-141677571D01*
X162325403Y-141577477D01*
X162265213Y-141487396D01*
X162188604Y-141410787D01*
X162098523Y-141350597D01*
X161998429Y-141309136D01*
X161892170Y-141288000D01*
X161889041Y-141288000D01*
X161215283Y-140614243D01*
X161201974Y-140598026D01*
X161137260Y-140544916D01*
X161063427Y-140505452D01*
X160983314Y-140481150D01*
X160920874Y-140475000D01*
X160920867Y-140475000D01*
X160900000Y-140472945D01*
X160879133Y-140475000D01*
X151252817Y-140475000D01*
X151250604Y-140472787D01*
X151160523Y-140412597D01*
X151060429Y-140371136D01*
X150954170Y-140350000D01*
X150845830Y-140350000D01*
X150739571Y-140371136D01*
X150639477Y-140412597D01*
X150549396Y-140472787D01*
X150472787Y-140549396D01*
X150412597Y-140639477D01*
X150371136Y-140739571D01*
X150350000Y-140845830D01*
X101100000Y-140845830D01*
X101100000Y-138245830D01*
X137150000Y-138245830D01*
X137150000Y-138354170D01*
X137171136Y-138460429D01*
X137212597Y-138560523D01*
X137272787Y-138650604D01*
X137349396Y-138727213D01*
X137439477Y-138787403D01*
X137539571Y-138828864D01*
X137645830Y-138850000D01*
X137754170Y-138850000D01*
X137860429Y-138828864D01*
X137960523Y-138787403D01*
X138050604Y-138727213D01*
X138127213Y-138650604D01*
X138187403Y-138560523D01*
X138228864Y-138460429D01*
X138237303Y-138418000D01*
X163840549Y-138418000D01*
X163840549Y-140418000D01*
X163846341Y-140476810D01*
X163863496Y-140533360D01*
X163891353Y-140585477D01*
X163928842Y-140631158D01*
X163974523Y-140668647D01*
X164026640Y-140696504D01*
X164083190Y-140713659D01*
X164142000Y-140719451D01*
X167342000Y-140719451D01*
X167400810Y-140713659D01*
X167457360Y-140696504D01*
X167509477Y-140668647D01*
X167555158Y-140631158D01*
X167592647Y-140585477D01*
X167620504Y-140533360D01*
X167637659Y-140476810D01*
X167643451Y-140418000D01*
X167643451Y-138418000D01*
X167637659Y-138359190D01*
X167620504Y-138302640D01*
X167592647Y-138250523D01*
X167555158Y-138204842D01*
X167509477Y-138167353D01*
X167457360Y-138139496D01*
X167400810Y-138122341D01*
X167342000Y-138116549D01*
X164142000Y-138116549D01*
X164083190Y-138122341D01*
X164026640Y-138139496D01*
X163974523Y-138167353D01*
X163928842Y-138204842D01*
X163891353Y-138250523D01*
X163863496Y-138302640D01*
X163846341Y-138359190D01*
X163840549Y-138418000D01*
X138237303Y-138418000D01*
X138241999Y-138394397D01*
X140094398Y-136541998D01*
X140160429Y-136528864D01*
X140260523Y-136487403D01*
X140350604Y-136427213D01*
X140427213Y-136350604D01*
X140487403Y-136260523D01*
X140528864Y-136160429D01*
X140550000Y-136054170D01*
X140550000Y-135945830D01*
X140528864Y-135839571D01*
X140487403Y-135739477D01*
X140427213Y-135649396D01*
X140350604Y-135572787D01*
X140260523Y-135512597D01*
X140160429Y-135471136D01*
X140054170Y-135450000D01*
X139945830Y-135450000D01*
X139839571Y-135471136D01*
X139739477Y-135512597D01*
X139649396Y-135572787D01*
X139572787Y-135649396D01*
X139512597Y-135739477D01*
X139471136Y-135839571D01*
X139458002Y-135905602D01*
X137605603Y-137758001D01*
X137539571Y-137771136D01*
X137439477Y-137812597D01*
X137349396Y-137872787D01*
X137272787Y-137949396D01*
X137212597Y-138039477D01*
X137171136Y-138139571D01*
X137150000Y-138245830D01*
X101100000Y-138245830D01*
X101100000Y-137100314D01*
X116974687Y-137150000D01*
X116994202Y-137148139D01*
X117012979Y-137142507D01*
X117030297Y-137133320D01*
X117045489Y-137120932D01*
X117057973Y-137105817D01*
X117067268Y-137088557D01*
X117073017Y-137069816D01*
X117075000Y-137050125D01*
X117087099Y-127345830D01*
X120150000Y-127345830D01*
X120150000Y-127454170D01*
X120171136Y-127560429D01*
X120212597Y-127660523D01*
X120272787Y-127750604D01*
X120349396Y-127827213D01*
X120439477Y-127887403D01*
X120539571Y-127928864D01*
X120605603Y-127941998D01*
X120966176Y-128302572D01*
X120980263Y-128319737D01*
X120997428Y-128333824D01*
X120997432Y-128333828D01*
X121048783Y-128375971D01*
X121126959Y-128417757D01*
X121211785Y-128443489D01*
X121277895Y-128450000D01*
X121277905Y-128450000D01*
X121299999Y-128452176D01*
X121322094Y-128450000D01*
X135483499Y-128450000D01*
X135539477Y-128487403D01*
X135639571Y-128528864D01*
X135745830Y-128550000D01*
X135854170Y-128550000D01*
X135960429Y-128528864D01*
X136060523Y-128487403D01*
X136150604Y-128427213D01*
X136227213Y-128350604D01*
X136287403Y-128260523D01*
X136328864Y-128160429D01*
X136350000Y-128054170D01*
X136350000Y-127945830D01*
X136328864Y-127839571D01*
X136287403Y-127739477D01*
X136227213Y-127649396D01*
X136150604Y-127572787D01*
X136060523Y-127512597D01*
X135960429Y-127471136D01*
X135854170Y-127450000D01*
X136747183Y-127450000D01*
X144254487Y-134957304D01*
X144271710Y-134978290D01*
X144292696Y-134995513D01*
X144355458Y-135047021D01*
X144451005Y-135098092D01*
X144554681Y-135129542D01*
X144635482Y-135137500D01*
X144635489Y-135137500D01*
X144662500Y-135140160D01*
X144689511Y-135137500D01*
X152716670Y-135137500D01*
X152743300Y-135132203D01*
X152770319Y-135129542D01*
X152796298Y-135121661D01*
X152822929Y-135116364D01*
X152848016Y-135105973D01*
X152873994Y-135098092D01*
X152897938Y-135085294D01*
X152923023Y-135074903D01*
X152945596Y-135059820D01*
X152969542Y-135047021D01*
X152990530Y-135029797D01*
X153013104Y-135014713D01*
X153032304Y-134995513D01*
X153053290Y-134978290D01*
X153070513Y-134957304D01*
X153089713Y-134938104D01*
X153104797Y-134915530D01*
X153122021Y-134894542D01*
X153134820Y-134870596D01*
X153149903Y-134848023D01*
X153160294Y-134822938D01*
X153173092Y-134798994D01*
X153180973Y-134773016D01*
X153191364Y-134747929D01*
X153196661Y-134721298D01*
X153204542Y-134695319D01*
X153207203Y-134668299D01*
X153212500Y-134641670D01*
X153212500Y-134614518D01*
X153215161Y-134587500D01*
X153212500Y-134560482D01*
X153212500Y-134533330D01*
X153207203Y-134506701D01*
X153204542Y-134479681D01*
X153196661Y-134453702D01*
X153191364Y-134427071D01*
X153180973Y-134401984D01*
X153173092Y-134376006D01*
X153160294Y-134352062D01*
X153149903Y-134326977D01*
X153134820Y-134304404D01*
X153122021Y-134280458D01*
X153104797Y-134259470D01*
X153089713Y-134236896D01*
X153070513Y-134217696D01*
X153053290Y-134196710D01*
X153032304Y-134179487D01*
X153013104Y-134160287D01*
X152990530Y-134145203D01*
X152969542Y-134127979D01*
X152945596Y-134115180D01*
X152923023Y-134100097D01*
X152897938Y-134089706D01*
X152873994Y-134076908D01*
X152848016Y-134069027D01*
X152822929Y-134058636D01*
X152796298Y-134053339D01*
X152770319Y-134045458D01*
X152743300Y-134042797D01*
X152716670Y-134037500D01*
X144890317Y-134037500D01*
X137383012Y-126530195D01*
X137365790Y-126509210D01*
X137282042Y-126440479D01*
X137186494Y-126389408D01*
X137082819Y-126357958D01*
X137002018Y-126350000D01*
X137002008Y-126350000D01*
X136975000Y-126347340D01*
X136947992Y-126350000D01*
X135127818Y-126350000D01*
X134369804Y-125591987D01*
X134350604Y-125572787D01*
X134328030Y-125557704D01*
X134307042Y-125540479D01*
X134283098Y-125527681D01*
X134260523Y-125512597D01*
X134235432Y-125502204D01*
X134211494Y-125489409D01*
X134185525Y-125481531D01*
X134160429Y-125471136D01*
X134133787Y-125465837D01*
X134107818Y-125457959D01*
X134080810Y-125455299D01*
X134054170Y-125450000D01*
X134027008Y-125450000D01*
X134000000Y-125447340D01*
X133972992Y-125450000D01*
X133945830Y-125450000D01*
X133919190Y-125455299D01*
X133892182Y-125457959D01*
X133866213Y-125465837D01*
X133839571Y-125471136D01*
X133814475Y-125481531D01*
X133788506Y-125489409D01*
X133764568Y-125502204D01*
X133739477Y-125512597D01*
X133716902Y-125527681D01*
X133692958Y-125540479D01*
X133671970Y-125557703D01*
X133649396Y-125572787D01*
X133630196Y-125591987D01*
X133609210Y-125609210D01*
X133591987Y-125630196D01*
X133572787Y-125649396D01*
X133557703Y-125671970D01*
X133540479Y-125692958D01*
X133527681Y-125716902D01*
X133512597Y-125739477D01*
X133502204Y-125764568D01*
X133489409Y-125788506D01*
X133481531Y-125814475D01*
X133471136Y-125839571D01*
X133465837Y-125866213D01*
X133457959Y-125892182D01*
X133455299Y-125919190D01*
X133450000Y-125945830D01*
X133450000Y-125972992D01*
X133447340Y-126000000D01*
X133450000Y-126027008D01*
X133450000Y-126054170D01*
X133455299Y-126080810D01*
X133457959Y-126107818D01*
X133465837Y-126133787D01*
X133471136Y-126160429D01*
X133481531Y-126185525D01*
X133489409Y-126211494D01*
X133502204Y-126235432D01*
X133512597Y-126260523D01*
X133527681Y-126283098D01*
X133540479Y-126307042D01*
X133557704Y-126328030D01*
X133572787Y-126350604D01*
X133591987Y-126369804D01*
X134491992Y-127269810D01*
X134509210Y-127290790D01*
X134530190Y-127308008D01*
X134530195Y-127308013D01*
X134576276Y-127345830D01*
X134592958Y-127359521D01*
X134688506Y-127410592D01*
X134792181Y-127442042D01*
X134872982Y-127450000D01*
X134872991Y-127450000D01*
X134899999Y-127452660D01*
X134927007Y-127450000D01*
X135745830Y-127450000D01*
X135639571Y-127471136D01*
X135539477Y-127512597D01*
X135483499Y-127550000D01*
X121486396Y-127550000D01*
X121241998Y-127305603D01*
X121228864Y-127239571D01*
X121187403Y-127139477D01*
X121127213Y-127049396D01*
X121050604Y-126972787D01*
X120960523Y-126912597D01*
X120860429Y-126871136D01*
X120754170Y-126850000D01*
X120645830Y-126850000D01*
X120539571Y-126871136D01*
X120439477Y-126912597D01*
X120349396Y-126972787D01*
X120272787Y-127049396D01*
X120212597Y-127139477D01*
X120171136Y-127239571D01*
X120150000Y-127345830D01*
X117087099Y-127345830D01*
X117089842Y-125145830D01*
X134550000Y-125145830D01*
X134550000Y-125254170D01*
X134571136Y-125360429D01*
X134612597Y-125460523D01*
X134672787Y-125550604D01*
X134749396Y-125627213D01*
X134839477Y-125687403D01*
X134939571Y-125728864D01*
X135045830Y-125750000D01*
X135154170Y-125750000D01*
X135260429Y-125728864D01*
X135360523Y-125687403D01*
X135450604Y-125627213D01*
X135452817Y-125625000D01*
X136555554Y-125625000D01*
X144816313Y-133885760D01*
X144829620Y-133901974D01*
X144894334Y-133955084D01*
X144968167Y-133994548D01*
X145023977Y-134011478D01*
X145048279Y-134018850D01*
X145055921Y-134019603D01*
X145110720Y-134025000D01*
X145110727Y-134025000D01*
X145131594Y-134027055D01*
X145152461Y-134025000D01*
X155347960Y-134025000D01*
X157070982Y-135748023D01*
X156991958Y-135938804D01*
X156942000Y-136189961D01*
X156942000Y-136446039D01*
X156991958Y-136697196D01*
X157089955Y-136933781D01*
X157232224Y-137146702D01*
X157413298Y-137327776D01*
X157626219Y-137470045D01*
X157862804Y-137568042D01*
X158113961Y-137618000D01*
X158370039Y-137618000D01*
X158621196Y-137568042D01*
X158857781Y-137470045D01*
X159070702Y-137327776D01*
X159251776Y-137146702D01*
X159394045Y-136933781D01*
X159492042Y-136697196D01*
X159542000Y-136446039D01*
X159542000Y-136189961D01*
X159492042Y-135938804D01*
X159394045Y-135702219D01*
X159251776Y-135489298D01*
X159070702Y-135308224D01*
X158881994Y-135182133D01*
X158890594Y-135178571D01*
X159005411Y-134970320D01*
X158242000Y-134206909D01*
X158227858Y-134221051D01*
X157838949Y-133832142D01*
X157853091Y-133818000D01*
X158630909Y-133818000D01*
X159394320Y-134581411D01*
X159602571Y-134466594D01*
X159702963Y-134188697D01*
X159747210Y-133896555D01*
X159733613Y-133601393D01*
X159662694Y-133314556D01*
X159602571Y-133169406D01*
X159394320Y-133054589D01*
X158630909Y-133818000D01*
X157853091Y-133818000D01*
X157089680Y-133054589D01*
X156881429Y-133169406D01*
X156781037Y-133447303D01*
X156736790Y-133739445D01*
X156750387Y-134034607D01*
X156813036Y-134287996D01*
X155839283Y-133314243D01*
X155825974Y-133298026D01*
X155761260Y-133244916D01*
X155687427Y-133205452D01*
X155607314Y-133181150D01*
X155544874Y-133175000D01*
X155544867Y-133175000D01*
X155524000Y-133172945D01*
X155503133Y-133175000D01*
X145307635Y-133175000D01*
X137046878Y-124914244D01*
X137033568Y-124898026D01*
X136968854Y-124844916D01*
X136895021Y-124805452D01*
X136814908Y-124781150D01*
X136752468Y-124775000D01*
X136752461Y-124775000D01*
X136731594Y-124772945D01*
X136710727Y-124775000D01*
X135452817Y-124775000D01*
X135450604Y-124772787D01*
X135360523Y-124712597D01*
X135260429Y-124671136D01*
X135154170Y-124650000D01*
X135045830Y-124650000D01*
X134939571Y-124671136D01*
X134839477Y-124712597D01*
X134749396Y-124772787D01*
X134672787Y-124849396D01*
X134612597Y-124939477D01*
X134571136Y-125039571D01*
X134550000Y-125145830D01*
X117089842Y-125145830D01*
X117090715Y-124445830D01*
X129350000Y-124445830D01*
X129350000Y-124554170D01*
X129371136Y-124660429D01*
X129412597Y-124760523D01*
X129472787Y-124850604D01*
X129549396Y-124927213D01*
X129639477Y-124987403D01*
X129739571Y-125028864D01*
X129845830Y-125050000D01*
X129954170Y-125050000D01*
X130060429Y-125028864D01*
X130160523Y-124987403D01*
X130250604Y-124927213D01*
X130327213Y-124850604D01*
X130387403Y-124760523D01*
X130428864Y-124660429D01*
X130441998Y-124594397D01*
X130586396Y-124450000D01*
X136613605Y-124450000D01*
X145166176Y-133002572D01*
X145180263Y-133019737D01*
X145197428Y-133033824D01*
X145197432Y-133033828D01*
X145248783Y-133075971D01*
X145326959Y-133117757D01*
X145411785Y-133143489D01*
X145477895Y-133150000D01*
X145477905Y-133150000D01*
X145500000Y-133152176D01*
X145522094Y-133150000D01*
X149527906Y-133150000D01*
X149550000Y-133152176D01*
X149572094Y-133150000D01*
X149572105Y-133150000D01*
X149638215Y-133143489D01*
X149723041Y-133117757D01*
X149801216Y-133075971D01*
X149869737Y-133019737D01*
X149883829Y-133002566D01*
X152568395Y-130318000D01*
X156940549Y-130318000D01*
X156940549Y-132318000D01*
X156946341Y-132376810D01*
X156963496Y-132433360D01*
X156991353Y-132485477D01*
X157028842Y-132531158D01*
X157074523Y-132568647D01*
X157126640Y-132596504D01*
X157183190Y-132613659D01*
X157242000Y-132619451D01*
X157504077Y-132619451D01*
X157478589Y-132665680D01*
X158242000Y-133429091D01*
X159005411Y-132665680D01*
X158979923Y-132619451D01*
X159242000Y-132619451D01*
X159300810Y-132613659D01*
X159357360Y-132596504D01*
X159409477Y-132568647D01*
X159455158Y-132531158D01*
X159492647Y-132485477D01*
X159500748Y-132470320D01*
X171978589Y-132470320D01*
X172093406Y-132678571D01*
X172371303Y-132778963D01*
X172663445Y-132823210D01*
X172958607Y-132809613D01*
X173245444Y-132738694D01*
X173390594Y-132678571D01*
X173505411Y-132470320D01*
X172742000Y-131706909D01*
X171978589Y-132470320D01*
X159500748Y-132470320D01*
X159520504Y-132433360D01*
X159537659Y-132376810D01*
X159543451Y-132318000D01*
X159543451Y-131239445D01*
X171236790Y-131239445D01*
X171250387Y-131534607D01*
X171321306Y-131821444D01*
X171381429Y-131966594D01*
X171589680Y-132081411D01*
X172353091Y-131318000D01*
X171589680Y-130554589D01*
X171381429Y-130669406D01*
X171281037Y-130947303D01*
X171236790Y-131239445D01*
X159543451Y-131239445D01*
X159543451Y-130318000D01*
X159537659Y-130259190D01*
X159520504Y-130202640D01*
X159500749Y-130165680D01*
X171978589Y-130165680D01*
X172742000Y-130929091D01*
X173505411Y-130165680D01*
X173390594Y-129957429D01*
X173112697Y-129857037D01*
X172820555Y-129812790D01*
X172525393Y-129826387D01*
X172238556Y-129897306D01*
X172093406Y-129957429D01*
X171978589Y-130165680D01*
X159500749Y-130165680D01*
X159492647Y-130150523D01*
X159455158Y-130104842D01*
X159409477Y-130067353D01*
X159357360Y-130039496D01*
X159300810Y-130022341D01*
X159242000Y-130016549D01*
X157242000Y-130016549D01*
X157183190Y-130022341D01*
X157126640Y-130039496D01*
X157074523Y-130067353D01*
X157028842Y-130104842D01*
X156991353Y-130150523D01*
X156963496Y-130202640D01*
X156946341Y-130259190D01*
X156940549Y-130318000D01*
X152568395Y-130318000D01*
X154102567Y-128783829D01*
X154119731Y-128769743D01*
X154133818Y-128752578D01*
X154133822Y-128752574D01*
X154175965Y-128701223D01*
X154217751Y-128623047D01*
X154217751Y-128623046D01*
X154243483Y-128538221D01*
X154249994Y-128472111D01*
X154249994Y-128472101D01*
X154252170Y-128450007D01*
X154249994Y-128427913D01*
X154249994Y-127416501D01*
X154287397Y-127360523D01*
X154328858Y-127260429D01*
X154337297Y-127218000D01*
X163840549Y-127218000D01*
X163840549Y-129218000D01*
X163846341Y-129276810D01*
X163863496Y-129333360D01*
X163891353Y-129385477D01*
X163928842Y-129431158D01*
X163974523Y-129468647D01*
X164026640Y-129496504D01*
X164083190Y-129513659D01*
X164142000Y-129519451D01*
X167342000Y-129519451D01*
X167400810Y-129513659D01*
X167457360Y-129496504D01*
X167509477Y-129468647D01*
X167555158Y-129431158D01*
X167592647Y-129385477D01*
X167620504Y-129333360D01*
X167637659Y-129276810D01*
X167643451Y-129218000D01*
X167643451Y-127218000D01*
X167637659Y-127159190D01*
X167620504Y-127102640D01*
X167592647Y-127050523D01*
X167555158Y-127004842D01*
X167509477Y-126967353D01*
X167457360Y-126939496D01*
X167400810Y-126922341D01*
X167342000Y-126916549D01*
X164142000Y-126916549D01*
X164083190Y-126922341D01*
X164026640Y-126939496D01*
X163974523Y-126967353D01*
X163928842Y-127004842D01*
X163891353Y-127050523D01*
X163863496Y-127102640D01*
X163846341Y-127159190D01*
X163840549Y-127218000D01*
X154337297Y-127218000D01*
X154349994Y-127154170D01*
X154349994Y-127045830D01*
X154328858Y-126939571D01*
X154287397Y-126839477D01*
X154227207Y-126749396D01*
X154150598Y-126672787D01*
X154060517Y-126612597D01*
X153960423Y-126571136D01*
X153854164Y-126550000D01*
X153745824Y-126550000D01*
X153639565Y-126571136D01*
X153539471Y-126612597D01*
X153449390Y-126672787D01*
X153372781Y-126749396D01*
X153312591Y-126839477D01*
X153271130Y-126939571D01*
X153249994Y-127045830D01*
X153249994Y-127154170D01*
X153271130Y-127260429D01*
X153312591Y-127360523D01*
X153349995Y-127416502D01*
X153349994Y-128263610D01*
X149363605Y-132250000D01*
X145686396Y-132250000D01*
X137133829Y-123697434D01*
X137119737Y-123680263D01*
X137051216Y-123624029D01*
X136973041Y-123582243D01*
X136888215Y-123556511D01*
X136822105Y-123550000D01*
X136822094Y-123550000D01*
X136800000Y-123547824D01*
X136777906Y-123550000D01*
X130422094Y-123550000D01*
X130400000Y-123547824D01*
X130377906Y-123550000D01*
X130377895Y-123550000D01*
X130311785Y-123556511D01*
X130226959Y-123582243D01*
X130148783Y-123624029D01*
X130097432Y-123666172D01*
X130097428Y-123666176D01*
X130080263Y-123680263D01*
X130066176Y-123697428D01*
X129805603Y-123958002D01*
X129739571Y-123971136D01*
X129639477Y-124012597D01*
X129549396Y-124072787D01*
X129472787Y-124149396D01*
X129412597Y-124239477D01*
X129371136Y-124339571D01*
X129350000Y-124445830D01*
X117090715Y-124445830D01*
X117092585Y-122945822D01*
X130450000Y-122945822D01*
X130450000Y-123054162D01*
X130471136Y-123160421D01*
X130512597Y-123260515D01*
X130572787Y-123350596D01*
X130649396Y-123427205D01*
X130739477Y-123487395D01*
X130839571Y-123528856D01*
X130945830Y-123549992D01*
X131054170Y-123549992D01*
X131160429Y-123528856D01*
X131260523Y-123487395D01*
X131350604Y-123427205D01*
X131427213Y-123350596D01*
X131487403Y-123260515D01*
X131528864Y-123160421D01*
X131541999Y-123094388D01*
X134936387Y-119700000D01*
X137347824Y-119700000D01*
X137350000Y-119722094D01*
X137350001Y-123377896D01*
X137347824Y-123400000D01*
X137350001Y-123422105D01*
X137352629Y-123448784D01*
X137356512Y-123488215D01*
X137382243Y-123573040D01*
X137424029Y-123651216D01*
X137466172Y-123702567D01*
X137466177Y-123702572D01*
X137480264Y-123719737D01*
X137497429Y-123733824D01*
X145466176Y-131702572D01*
X145480263Y-131719737D01*
X145497428Y-131733824D01*
X145497432Y-131733828D01*
X145548782Y-131775971D01*
X145589175Y-131797561D01*
X145626959Y-131817757D01*
X145711785Y-131843489D01*
X145777895Y-131850000D01*
X145777907Y-131850000D01*
X145799999Y-131852176D01*
X145822091Y-131850000D01*
X148083499Y-131850000D01*
X148139477Y-131887403D01*
X148239571Y-131928864D01*
X148345830Y-131950000D01*
X148454170Y-131950000D01*
X148560429Y-131928864D01*
X148660523Y-131887403D01*
X148750604Y-131827213D01*
X148827213Y-131750604D01*
X148887403Y-131660523D01*
X148928864Y-131560429D01*
X148950000Y-131454170D01*
X148950000Y-131345830D01*
X148928864Y-131239571D01*
X148887403Y-131139477D01*
X148827213Y-131049396D01*
X148750604Y-130972787D01*
X148660523Y-130912597D01*
X148560429Y-130871136D01*
X148454170Y-130850000D01*
X148345830Y-130850000D01*
X148239571Y-130871136D01*
X148139477Y-130912597D01*
X148083499Y-130950000D01*
X145986396Y-130950000D01*
X138250000Y-123213605D01*
X138250000Y-121445830D01*
X139150000Y-121445830D01*
X139150000Y-121554170D01*
X139171136Y-121660429D01*
X139212597Y-121760523D01*
X139250000Y-121816501D01*
X139250001Y-123677896D01*
X139247824Y-123700000D01*
X139256512Y-123788215D01*
X139282243Y-123873040D01*
X139324029Y-123951216D01*
X139366172Y-124002567D01*
X139366177Y-124002572D01*
X139380264Y-124019737D01*
X139397429Y-124033824D01*
X145866180Y-130502576D01*
X145880267Y-130519741D01*
X145897432Y-130533828D01*
X145897436Y-130533832D01*
X145948787Y-130575975D01*
X146026963Y-130617761D01*
X146111789Y-130643493D01*
X146177899Y-130650004D01*
X146177910Y-130650004D01*
X146200004Y-130652180D01*
X146222098Y-130650004D01*
X148583499Y-130650004D01*
X148639477Y-130687407D01*
X148739571Y-130728868D01*
X148845830Y-130750004D01*
X148954170Y-130750004D01*
X149060429Y-130728868D01*
X149160523Y-130687407D01*
X149250604Y-130627217D01*
X149327213Y-130550608D01*
X149387403Y-130460527D01*
X149428864Y-130360433D01*
X149450000Y-130254174D01*
X149450000Y-130145834D01*
X149428864Y-130039575D01*
X149387403Y-129939481D01*
X149327213Y-129849400D01*
X149250604Y-129772791D01*
X149160523Y-129712601D01*
X149060429Y-129671140D01*
X148954170Y-129650004D01*
X148845830Y-129650004D01*
X148739571Y-129671140D01*
X148639477Y-129712601D01*
X148583499Y-129750004D01*
X146386400Y-129750004D01*
X141582226Y-124945830D01*
X154700010Y-124945830D01*
X154700010Y-125054170D01*
X154721146Y-125160429D01*
X154762607Y-125260523D01*
X154822797Y-125350604D01*
X154899406Y-125427213D01*
X154989487Y-125487403D01*
X155089581Y-125528864D01*
X155195840Y-125550000D01*
X155304180Y-125550000D01*
X155410439Y-125528864D01*
X155510533Y-125487403D01*
X155600614Y-125427213D01*
X155677223Y-125350604D01*
X155737413Y-125260523D01*
X155778874Y-125160429D01*
X155800010Y-125054170D01*
X155800010Y-125051040D01*
X157176051Y-123675000D01*
X167848549Y-123675000D01*
X167848549Y-124100000D01*
X167854341Y-124158810D01*
X167871496Y-124215360D01*
X167899353Y-124267477D01*
X167936842Y-124313158D01*
X167982523Y-124350647D01*
X168034640Y-124378504D01*
X168091190Y-124395659D01*
X168150000Y-124401451D01*
X169850000Y-124401451D01*
X169908810Y-124395659D01*
X169965360Y-124378504D01*
X170017477Y-124350647D01*
X170063158Y-124313158D01*
X170100647Y-124267477D01*
X170128504Y-124215360D01*
X170145659Y-124158810D01*
X170151451Y-124100000D01*
X170151451Y-123728375D01*
X170277586Y-123728375D01*
X170395169Y-123965468D01*
X170556747Y-124175066D01*
X170756111Y-124349114D01*
X170985600Y-124480924D01*
X171061627Y-124512402D01*
X171265000Y-124443734D01*
X171265000Y-123525000D01*
X171815000Y-123525000D01*
X171815000Y-124443734D01*
X172018373Y-124512402D01*
X172094400Y-124480924D01*
X172323889Y-124349114D01*
X172523253Y-124175066D01*
X172684831Y-123965468D01*
X172802414Y-123728375D01*
X172736706Y-123525000D01*
X171815000Y-123525000D01*
X171265000Y-123525000D01*
X170343294Y-123525000D01*
X170277586Y-123728375D01*
X170151451Y-123728375D01*
X170151451Y-122771625D01*
X170277586Y-122771625D01*
X170343294Y-122975000D01*
X171265000Y-122975000D01*
X171265000Y-122056266D01*
X171815000Y-122056266D01*
X171815000Y-122975000D01*
X172736706Y-122975000D01*
X172802414Y-122771625D01*
X172684831Y-122534532D01*
X172523253Y-122324934D01*
X172323889Y-122150886D01*
X172094400Y-122019076D01*
X172018373Y-121987598D01*
X171815000Y-122056266D01*
X171265000Y-122056266D01*
X171061627Y-121987598D01*
X170985600Y-122019076D01*
X170756111Y-122150886D01*
X170556747Y-122324934D01*
X170395169Y-122534532D01*
X170277586Y-122771625D01*
X170151451Y-122771625D01*
X170151451Y-122400000D01*
X170145659Y-122341190D01*
X170128504Y-122284640D01*
X170100647Y-122232523D01*
X170063158Y-122186842D01*
X170017477Y-122149353D01*
X169965360Y-122121496D01*
X169908810Y-122104341D01*
X169850000Y-122098549D01*
X168150000Y-122098549D01*
X168091190Y-122104341D01*
X168034640Y-122121496D01*
X167982523Y-122149353D01*
X167936842Y-122186842D01*
X167899353Y-122232523D01*
X167871496Y-122284640D01*
X167854341Y-122341190D01*
X167848549Y-122400000D01*
X167848549Y-122825000D01*
X157020877Y-122825000D01*
X157000010Y-122822945D01*
X156979143Y-122825000D01*
X156979136Y-122825000D01*
X156916696Y-122831150D01*
X156836582Y-122855452D01*
X156810865Y-122869199D01*
X156762750Y-122894916D01*
X156698036Y-122948026D01*
X156684731Y-122964238D01*
X155198970Y-124450000D01*
X155195840Y-124450000D01*
X155089581Y-124471136D01*
X154989487Y-124512597D01*
X154899406Y-124572787D01*
X154822797Y-124649396D01*
X154762607Y-124739477D01*
X154721146Y-124839571D01*
X154700010Y-124945830D01*
X141582226Y-124945830D01*
X140150000Y-123513605D01*
X140150000Y-121816501D01*
X140187403Y-121760523D01*
X140228864Y-121660429D01*
X140250000Y-121554170D01*
X140250000Y-121445830D01*
X140228864Y-121339571D01*
X140187403Y-121239477D01*
X140127213Y-121149396D01*
X140050604Y-121072787D01*
X139960523Y-121012597D01*
X139860429Y-120971136D01*
X139754170Y-120950000D01*
X139645830Y-120950000D01*
X139539571Y-120971136D01*
X139439477Y-121012597D01*
X139349396Y-121072787D01*
X139272787Y-121149396D01*
X139212597Y-121239477D01*
X139171136Y-121339571D01*
X139150000Y-121445830D01*
X138250000Y-121445830D01*
X138250000Y-119886395D01*
X138959660Y-119176735D01*
X167850000Y-119176735D01*
X167850000Y-119403265D01*
X167894194Y-119625443D01*
X167980884Y-119834729D01*
X168106737Y-120023082D01*
X168266918Y-120183263D01*
X168455271Y-120309116D01*
X168664557Y-120395806D01*
X168886735Y-120440000D01*
X169113265Y-120440000D01*
X169335443Y-120395806D01*
X169544729Y-120309116D01*
X169733082Y-120183263D01*
X169893263Y-120023082D01*
X170019116Y-119834729D01*
X170105806Y-119625443D01*
X170150000Y-119403265D01*
X170150000Y-119176735D01*
X170105806Y-118954557D01*
X170019116Y-118745271D01*
X169893263Y-118556918D01*
X169733082Y-118396737D01*
X169544729Y-118270884D01*
X169335443Y-118184194D01*
X169113265Y-118140000D01*
X168886735Y-118140000D01*
X168664557Y-118184194D01*
X168455271Y-118270884D01*
X168266918Y-118396737D01*
X168106737Y-118556918D01*
X167980884Y-118745271D01*
X167894194Y-118954557D01*
X167850000Y-119176735D01*
X138959660Y-119176735D01*
X139894398Y-118241998D01*
X139960429Y-118228864D01*
X140060523Y-118187403D01*
X140150604Y-118127213D01*
X140227213Y-118050604D01*
X140287403Y-117960523D01*
X140328864Y-117860429D01*
X140350000Y-117754170D01*
X140350000Y-117645830D01*
X140328864Y-117539571D01*
X140287403Y-117439477D01*
X140227213Y-117349396D01*
X140150604Y-117272787D01*
X140060523Y-117212597D01*
X139960429Y-117171136D01*
X139854170Y-117150000D01*
X139745830Y-117150000D01*
X139639571Y-117171136D01*
X139539477Y-117212597D01*
X139449396Y-117272787D01*
X139372787Y-117349396D01*
X139312597Y-117439477D01*
X139271136Y-117539571D01*
X139258002Y-117605602D01*
X137497434Y-119366171D01*
X137480263Y-119380263D01*
X137466172Y-119397433D01*
X137424029Y-119448784D01*
X137404357Y-119485588D01*
X137382243Y-119526960D01*
X137356511Y-119611786D01*
X137350000Y-119677896D01*
X137350000Y-119677906D01*
X137347824Y-119700000D01*
X134936387Y-119700000D01*
X138736387Y-115900000D01*
X167848549Y-115900000D01*
X167848549Y-117600000D01*
X167854341Y-117658810D01*
X167871496Y-117715360D01*
X167899353Y-117767477D01*
X167936842Y-117813158D01*
X167982523Y-117850647D01*
X168034640Y-117878504D01*
X168091190Y-117895659D01*
X168150000Y-117901451D01*
X169850000Y-117901451D01*
X169908810Y-117895659D01*
X169965360Y-117878504D01*
X170017477Y-117850647D01*
X170063158Y-117813158D01*
X170100647Y-117767477D01*
X170128504Y-117715360D01*
X170145659Y-117658810D01*
X170151451Y-117600000D01*
X170151451Y-115900000D01*
X170145659Y-115841190D01*
X170128504Y-115784640D01*
X170100647Y-115732523D01*
X170063158Y-115686842D01*
X170017477Y-115649353D01*
X169965360Y-115621496D01*
X169908810Y-115604341D01*
X169850000Y-115598549D01*
X168150000Y-115598549D01*
X168091190Y-115604341D01*
X168034640Y-115621496D01*
X167982523Y-115649353D01*
X167936842Y-115686842D01*
X167899353Y-115732523D01*
X167871496Y-115784640D01*
X167854341Y-115841190D01*
X167848549Y-115900000D01*
X138736387Y-115900000D01*
X142186388Y-112450000D01*
X155063605Y-112450000D01*
X156458002Y-113844398D01*
X156471136Y-113910429D01*
X156512597Y-114010523D01*
X156572787Y-114100604D01*
X156649396Y-114177213D01*
X156739477Y-114237403D01*
X156839571Y-114278864D01*
X156945830Y-114300000D01*
X157054170Y-114300000D01*
X157160429Y-114278864D01*
X157260523Y-114237403D01*
X157350604Y-114177213D01*
X157427213Y-114100604D01*
X157487403Y-114010523D01*
X157528864Y-113910429D01*
X157550000Y-113804170D01*
X157550000Y-113695830D01*
X157528864Y-113589571D01*
X157487403Y-113489477D01*
X157427213Y-113399396D01*
X157350604Y-113322787D01*
X157260523Y-113262597D01*
X157160429Y-113221136D01*
X157094398Y-113208002D01*
X155583829Y-111697434D01*
X155569737Y-111680263D01*
X155501216Y-111624029D01*
X155423041Y-111582243D01*
X155338215Y-111556511D01*
X155272105Y-111550000D01*
X155272094Y-111550000D01*
X155250000Y-111547824D01*
X155227906Y-111550000D01*
X142022086Y-111550000D01*
X141999992Y-111547824D01*
X141977897Y-111550000D01*
X141977887Y-111550000D01*
X141911777Y-111556511D01*
X141839277Y-111578504D01*
X141826951Y-111582243D01*
X141748775Y-111624029D01*
X141697424Y-111666172D01*
X141697420Y-111666176D01*
X141680255Y-111680263D01*
X141666168Y-111697428D01*
X130905604Y-122457993D01*
X130839571Y-122471128D01*
X130739477Y-122512589D01*
X130649396Y-122572779D01*
X130572787Y-122649388D01*
X130512597Y-122739469D01*
X130471136Y-122839563D01*
X130450000Y-122945822D01*
X117092585Y-122945822D01*
X117098367Y-118309357D01*
X117734366Y-118309357D01*
X117734366Y-118690643D01*
X117808751Y-119064604D01*
X117954663Y-119416867D01*
X118166495Y-119733895D01*
X118436105Y-120003505D01*
X118753133Y-120215337D01*
X119105396Y-120361249D01*
X119479357Y-120435634D01*
X119860643Y-120435634D01*
X120234604Y-120361249D01*
X120586867Y-120215337D01*
X120903895Y-120003505D01*
X121173505Y-119733895D01*
X121385337Y-119416867D01*
X121531249Y-119064604D01*
X121605634Y-118690643D01*
X121605634Y-118309357D01*
X121539392Y-117976330D01*
X126419500Y-117976330D01*
X126419500Y-118084670D01*
X126440636Y-118190929D01*
X126482097Y-118291023D01*
X126542287Y-118381104D01*
X126618896Y-118457713D01*
X126708977Y-118517903D01*
X126809071Y-118559364D01*
X126875103Y-118572498D01*
X127005176Y-118702571D01*
X127019263Y-118719737D01*
X127036428Y-118733824D01*
X127036432Y-118733828D01*
X127087783Y-118775971D01*
X127165959Y-118817757D01*
X127250785Y-118843489D01*
X127316895Y-118850000D01*
X127316905Y-118850000D01*
X127339000Y-118852176D01*
X127361094Y-118850000D01*
X133113605Y-118850000D01*
X131653795Y-120309810D01*
X131560429Y-120271136D01*
X131454170Y-120250000D01*
X131345830Y-120250000D01*
X131239571Y-120271136D01*
X131139477Y-120312597D01*
X131049396Y-120372787D01*
X130972787Y-120449396D01*
X130912597Y-120539477D01*
X130871136Y-120639571D01*
X130850000Y-120745830D01*
X130850000Y-120854170D01*
X130871136Y-120960429D01*
X130912597Y-121060523D01*
X130972787Y-121150604D01*
X131049396Y-121227213D01*
X131139477Y-121287403D01*
X131239571Y-121328864D01*
X131345830Y-121350000D01*
X131454170Y-121350000D01*
X131560429Y-121328864D01*
X131660523Y-121287403D01*
X131716501Y-121250000D01*
X131777906Y-121250000D01*
X131800000Y-121252176D01*
X131822094Y-121250000D01*
X131822105Y-121250000D01*
X131888215Y-121243489D01*
X131973041Y-121217757D01*
X132051216Y-121175971D01*
X132119737Y-121119737D01*
X132133829Y-121102566D01*
X142751396Y-110485000D01*
X156518499Y-110485000D01*
X156574477Y-110522403D01*
X156674571Y-110563864D01*
X156780830Y-110585000D01*
X156889170Y-110585000D01*
X156995429Y-110563864D01*
X157095523Y-110522403D01*
X157185604Y-110462213D01*
X157262213Y-110385604D01*
X157322403Y-110295523D01*
X157363864Y-110195429D01*
X157385000Y-110089170D01*
X157385000Y-109980830D01*
X157363864Y-109874571D01*
X157322403Y-109774477D01*
X157262213Y-109684396D01*
X157185604Y-109607787D01*
X157095523Y-109547597D01*
X156995429Y-109506136D01*
X156889170Y-109485000D01*
X156780830Y-109485000D01*
X156674571Y-109506136D01*
X156574477Y-109547597D01*
X156518499Y-109585000D01*
X142587094Y-109585000D01*
X142565000Y-109582824D01*
X142542905Y-109585000D01*
X142542895Y-109585000D01*
X142476785Y-109591511D01*
X142391959Y-109617243D01*
X142313783Y-109659029D01*
X142262432Y-109701172D01*
X142262428Y-109701176D01*
X142245263Y-109715263D01*
X142231176Y-109732428D01*
X134207230Y-117756374D01*
X134152941Y-117675124D01*
X134076332Y-117598515D01*
X133986251Y-117538325D01*
X133886157Y-117496864D01*
X133779898Y-117475728D01*
X133671558Y-117475728D01*
X133565299Y-117496864D01*
X133465205Y-117538325D01*
X133375124Y-117598515D01*
X133298515Y-117675124D01*
X133238325Y-117765205D01*
X133196864Y-117865299D01*
X133183730Y-117931331D01*
X133165061Y-117950000D01*
X127525396Y-117950000D01*
X127511498Y-117936103D01*
X127498364Y-117870071D01*
X127456903Y-117769977D01*
X127396713Y-117679896D01*
X127320104Y-117603287D01*
X127230023Y-117543097D01*
X127129929Y-117501636D01*
X127023670Y-117480500D01*
X126915330Y-117480500D01*
X126809071Y-117501636D01*
X126708977Y-117543097D01*
X126618896Y-117603287D01*
X126542287Y-117679896D01*
X126482097Y-117769977D01*
X126440636Y-117870071D01*
X126419500Y-117976330D01*
X121539392Y-117976330D01*
X121531249Y-117935396D01*
X121385337Y-117583133D01*
X121173505Y-117266105D01*
X120903895Y-116996495D01*
X120586867Y-116784663D01*
X120234604Y-116638751D01*
X119860643Y-116564366D01*
X119479357Y-116564366D01*
X119105396Y-116638751D01*
X118753133Y-116784663D01*
X118436105Y-116996495D01*
X118166495Y-117266105D01*
X117954663Y-117583133D01*
X117808751Y-117935396D01*
X117734366Y-118309357D01*
X117098367Y-118309357D01*
X117100000Y-117000125D01*
X117098103Y-116980613D01*
X117092436Y-116961847D01*
X117083216Y-116944547D01*
X117070799Y-116929378D01*
X117055661Y-116916922D01*
X117038384Y-116907660D01*
X117019631Y-116901946D01*
X117000000Y-116900000D01*
X112374751Y-116900000D01*
X112370627Y-115250000D01*
X116247581Y-115250000D01*
X116257235Y-115348017D01*
X116285825Y-115442267D01*
X116332254Y-115529129D01*
X116394736Y-115605264D01*
X116470871Y-115667746D01*
X116557733Y-115714175D01*
X116651983Y-115742765D01*
X116750000Y-115752419D01*
X117600000Y-115750000D01*
X117725000Y-115625000D01*
X117725000Y-114275000D01*
X118275000Y-114275000D01*
X118275000Y-115625000D01*
X118400000Y-115750000D01*
X119250000Y-115752419D01*
X119348017Y-115742765D01*
X119442267Y-115714175D01*
X119529129Y-115667746D01*
X119605264Y-115605264D01*
X119667746Y-115529129D01*
X119714175Y-115442267D01*
X119742765Y-115348017D01*
X119752419Y-115250000D01*
X119750000Y-114400000D01*
X119625000Y-114275000D01*
X118275000Y-114275000D01*
X117725000Y-114275000D01*
X116375000Y-114275000D01*
X116250000Y-114400000D01*
X116247581Y-115250000D01*
X112370627Y-115250000D01*
X112368562Y-114424227D01*
X112964682Y-114424227D01*
X113062770Y-114569653D01*
X113279850Y-114634399D01*
X113505391Y-114655551D01*
X113730725Y-114632296D01*
X113937230Y-114569653D01*
X114035318Y-114424227D01*
X113500000Y-113888909D01*
X112964682Y-114424227D01*
X112368562Y-114424227D01*
X112366806Y-113722023D01*
X112367704Y-113730725D01*
X112430347Y-113937230D01*
X112575773Y-114035318D01*
X113111091Y-113500000D01*
X113888909Y-113500000D01*
X114424227Y-114035318D01*
X114569653Y-113937230D01*
X114634399Y-113720150D01*
X114655551Y-113494609D01*
X114632296Y-113269275D01*
X114569653Y-113062770D01*
X114424227Y-112964682D01*
X113888909Y-113500000D01*
X113111091Y-113500000D01*
X112575773Y-112964682D01*
X112430347Y-113062770D01*
X112365700Y-113279519D01*
X112354465Y-108785836D01*
X112599990Y-109031361D01*
X112599990Y-109360699D01*
X112596120Y-109399990D01*
X112599990Y-109439281D01*
X112599990Y-109439282D01*
X112611566Y-109556816D01*
X112640909Y-109653546D01*
X112657311Y-109707617D01*
X112700001Y-109787484D01*
X112700001Y-110398549D01*
X112700000Y-110398549D01*
X112641190Y-110404341D01*
X112584640Y-110421496D01*
X112532523Y-110449353D01*
X112486842Y-110486842D01*
X112449353Y-110532523D01*
X112421496Y-110584640D01*
X112404341Y-110641190D01*
X112398549Y-110700000D01*
X112398549Y-112300000D01*
X112404341Y-112358810D01*
X112421496Y-112415360D01*
X112449353Y-112467477D01*
X112486842Y-112513158D01*
X112532523Y-112550647D01*
X112584640Y-112578504D01*
X112641190Y-112595659D01*
X112700000Y-112601451D01*
X112990360Y-112601451D01*
X113500000Y-113111091D01*
X113861091Y-112750000D01*
X116247581Y-112750000D01*
X116250000Y-113600000D01*
X116375000Y-113725000D01*
X117725000Y-113725000D01*
X117725000Y-112375000D01*
X118275000Y-112375000D01*
X118275000Y-113725000D01*
X119625000Y-113725000D01*
X119750000Y-113600000D01*
X119750640Y-113375000D01*
X128448549Y-113375000D01*
X128448549Y-114625000D01*
X128466350Y-114805742D01*
X128519071Y-114979537D01*
X128604684Y-115139709D01*
X128719900Y-115280100D01*
X128860291Y-115395316D01*
X129020463Y-115480929D01*
X129194258Y-115533650D01*
X129375000Y-115551451D01*
X130588707Y-115551451D01*
X130570079Y-115570079D01*
X130494466Y-115662213D01*
X130438281Y-115767328D01*
X130403683Y-115881385D01*
X130392000Y-116000000D01*
X130392000Y-116750000D01*
X130403683Y-116868615D01*
X130438281Y-116982672D01*
X130494466Y-117087787D01*
X130570079Y-117179921D01*
X130820079Y-117429921D01*
X130912213Y-117505534D01*
X131017328Y-117561719D01*
X131131385Y-117596317D01*
X131250000Y-117608000D01*
X132750000Y-117608000D01*
X132868615Y-117596317D01*
X132982672Y-117561719D01*
X133087787Y-117505534D01*
X133179921Y-117429921D01*
X134429921Y-116179921D01*
X134505534Y-116087787D01*
X134561719Y-115982672D01*
X134596317Y-115868615D01*
X134608000Y-115750000D01*
X134608000Y-115250000D01*
X134596317Y-115131385D01*
X134561719Y-115017328D01*
X134505534Y-114912213D01*
X134429921Y-114820079D01*
X134019358Y-114409516D01*
X134026451Y-114337500D01*
X134026451Y-113751366D01*
X138927818Y-108850000D01*
X158072183Y-108850000D01*
X163380195Y-114158013D01*
X163380201Y-114158018D01*
X163399396Y-114177213D01*
X163421968Y-114192295D01*
X163442958Y-114209521D01*
X163466903Y-114222320D01*
X163489477Y-114237403D01*
X163514564Y-114247795D01*
X163538505Y-114260591D01*
X163564477Y-114268470D01*
X163589571Y-114278864D01*
X163616210Y-114284163D01*
X163642181Y-114292041D01*
X163669191Y-114294701D01*
X163695830Y-114300000D01*
X163722992Y-114300000D01*
X163750000Y-114302660D01*
X163777008Y-114300000D01*
X163804170Y-114300000D01*
X163830810Y-114294701D01*
X163857818Y-114292041D01*
X163883787Y-114284163D01*
X163910429Y-114278864D01*
X163935525Y-114268469D01*
X163961494Y-114260591D01*
X163985432Y-114247796D01*
X164010523Y-114237403D01*
X164033098Y-114222319D01*
X164057042Y-114209521D01*
X164078030Y-114192297D01*
X164100604Y-114177213D01*
X164119804Y-114158013D01*
X164140790Y-114140790D01*
X164158013Y-114119804D01*
X164177213Y-114100604D01*
X164192297Y-114078030D01*
X164209521Y-114057042D01*
X164222319Y-114033098D01*
X164237403Y-114010523D01*
X164247796Y-113985432D01*
X164260591Y-113961494D01*
X164268469Y-113935525D01*
X164278864Y-113910429D01*
X164284163Y-113883787D01*
X164292041Y-113857818D01*
X164294701Y-113830810D01*
X164300000Y-113804170D01*
X164300000Y-113777008D01*
X164302660Y-113750000D01*
X164300000Y-113722992D01*
X164300000Y-113695830D01*
X164294701Y-113669191D01*
X164292041Y-113642181D01*
X164284163Y-113616210D01*
X164278864Y-113589571D01*
X164268470Y-113564477D01*
X164260591Y-113538505D01*
X164247795Y-113514564D01*
X164237403Y-113489477D01*
X164222320Y-113466903D01*
X164209521Y-113442958D01*
X164192295Y-113421968D01*
X164177213Y-113399396D01*
X164158018Y-113380201D01*
X164158013Y-113380195D01*
X160476191Y-109698373D01*
X162567598Y-109698373D01*
X162599076Y-109774400D01*
X162730886Y-110003889D01*
X162904934Y-110203253D01*
X163114532Y-110364831D01*
X163351625Y-110482414D01*
X163555000Y-110416706D01*
X163555000Y-109495000D01*
X164105000Y-109495000D01*
X164105000Y-110416706D01*
X164308375Y-110482414D01*
X164545468Y-110364831D01*
X164755066Y-110203253D01*
X164929114Y-110003889D01*
X165060924Y-109774400D01*
X165092402Y-109698373D01*
X165023734Y-109495000D01*
X164105000Y-109495000D01*
X163555000Y-109495000D01*
X162636266Y-109495000D01*
X162567598Y-109698373D01*
X160476191Y-109698373D01*
X159519445Y-108741627D01*
X162567598Y-108741627D01*
X162636266Y-108945000D01*
X163555000Y-108945000D01*
X163555000Y-108023294D01*
X164105000Y-108023294D01*
X164105000Y-108945000D01*
X165023734Y-108945000D01*
X165092402Y-108741627D01*
X165060924Y-108665600D01*
X164929114Y-108436111D01*
X164755066Y-108236747D01*
X164545468Y-108075169D01*
X164308375Y-107957586D01*
X164105000Y-108023294D01*
X163555000Y-108023294D01*
X163351625Y-107957586D01*
X163114532Y-108075169D01*
X162904934Y-108236747D01*
X162730886Y-108436111D01*
X162599076Y-108665600D01*
X162567598Y-108741627D01*
X159519445Y-108741627D01*
X158708013Y-107930196D01*
X158690790Y-107909210D01*
X158607042Y-107840479D01*
X158511494Y-107789408D01*
X158407819Y-107757958D01*
X158327018Y-107750000D01*
X158327008Y-107750000D01*
X158300000Y-107747340D01*
X158272992Y-107750000D01*
X138727007Y-107750000D01*
X138699999Y-107747340D01*
X138672991Y-107750000D01*
X138672982Y-107750000D01*
X138592181Y-107757958D01*
X138488506Y-107789408D01*
X138392958Y-107840479D01*
X138392956Y-107840480D01*
X138392957Y-107840480D01*
X138330195Y-107891987D01*
X138330190Y-107891992D01*
X138309210Y-107909210D01*
X138291992Y-107930190D01*
X134022183Y-112200000D01*
X133275000Y-112200000D01*
X133275000Y-112887500D01*
X133304841Y-112917341D01*
X133111134Y-113111049D01*
X132525000Y-113111049D01*
X132417417Y-113121645D01*
X132313969Y-113153026D01*
X132226086Y-113200000D01*
X131534216Y-113200000D01*
X131533650Y-113194258D01*
X131480929Y-113020463D01*
X131395316Y-112860291D01*
X131280100Y-112719900D01*
X131139709Y-112604684D01*
X130979537Y-112519071D01*
X130957876Y-112512500D01*
X131772581Y-112512500D01*
X131782235Y-112610517D01*
X131810825Y-112704767D01*
X131857254Y-112791629D01*
X131919736Y-112867764D01*
X131995871Y-112930246D01*
X132082733Y-112976675D01*
X132176983Y-113005265D01*
X132275000Y-113014919D01*
X132600000Y-113012500D01*
X132725000Y-112887500D01*
X132725000Y-112200000D01*
X131900000Y-112200000D01*
X131775000Y-112325000D01*
X131772581Y-112512500D01*
X130957876Y-112512500D01*
X130805742Y-112466350D01*
X130625000Y-112448549D01*
X129375000Y-112448549D01*
X129194258Y-112466350D01*
X129020463Y-112519071D01*
X128860291Y-112604684D01*
X128719900Y-112719900D01*
X128604684Y-112860291D01*
X128519071Y-113020463D01*
X128466350Y-113194258D01*
X128448549Y-113375000D01*
X119750640Y-113375000D01*
X119752419Y-112750000D01*
X119742765Y-112651983D01*
X119714175Y-112557733D01*
X119667746Y-112470871D01*
X119605264Y-112394736D01*
X119529129Y-112332254D01*
X119442267Y-112285825D01*
X119348017Y-112257235D01*
X119250000Y-112247581D01*
X118400000Y-112250000D01*
X118275000Y-112375000D01*
X117725000Y-112375000D01*
X117600000Y-112250000D01*
X116750000Y-112247581D01*
X116651983Y-112257235D01*
X116557733Y-112285825D01*
X116470871Y-112332254D01*
X116394736Y-112394736D01*
X116332254Y-112470871D01*
X116285825Y-112557733D01*
X116257235Y-112651983D01*
X116247581Y-112750000D01*
X113861091Y-112750000D01*
X114009640Y-112601451D01*
X114300000Y-112601451D01*
X114358810Y-112595659D01*
X114415360Y-112578504D01*
X114467477Y-112550647D01*
X114513158Y-112513158D01*
X114550647Y-112467477D01*
X114578504Y-112415360D01*
X114595659Y-112358810D01*
X114601451Y-112300000D01*
X114601451Y-111337500D01*
X131772581Y-111337500D01*
X131775000Y-111525000D01*
X131900000Y-111650000D01*
X132725000Y-111650000D01*
X132725000Y-110962500D01*
X133275000Y-110962500D01*
X133275000Y-111650000D01*
X134100000Y-111650000D01*
X134225000Y-111525000D01*
X134227419Y-111337500D01*
X134217765Y-111239483D01*
X134189175Y-111145233D01*
X134142746Y-111058371D01*
X134080264Y-110982236D01*
X134004129Y-110919754D01*
X133917267Y-110873325D01*
X133823017Y-110844735D01*
X133725000Y-110835081D01*
X133400000Y-110837500D01*
X133275000Y-110962500D01*
X132725000Y-110962500D01*
X132600000Y-110837500D01*
X132275000Y-110835081D01*
X132176983Y-110844735D01*
X132082733Y-110873325D01*
X131995871Y-110919754D01*
X131919736Y-110982236D01*
X131857254Y-111058371D01*
X131810825Y-111145233D01*
X131782235Y-111239483D01*
X131772581Y-111337500D01*
X114601451Y-111337500D01*
X114601451Y-110700000D01*
X114595659Y-110641190D01*
X114578504Y-110584640D01*
X114550647Y-110532523D01*
X114513158Y-110486842D01*
X114467477Y-110449353D01*
X114415360Y-110421496D01*
X114358810Y-110404341D01*
X114300000Y-110398549D01*
X114300000Y-109539282D01*
X114303869Y-109499999D01*
X114300000Y-109460716D01*
X114300000Y-109460707D01*
X114288424Y-109343173D01*
X114242679Y-109192372D01*
X114199990Y-109112507D01*
X114199990Y-108739281D01*
X114203860Y-108699990D01*
X114199990Y-108660697D01*
X114188414Y-108543163D01*
X114142669Y-108392362D01*
X114093300Y-108300000D01*
X114068383Y-108253383D01*
X113993459Y-108162088D01*
X113968412Y-108131568D01*
X113937892Y-108106521D01*
X113600000Y-107768630D01*
X113600000Y-107312060D01*
X113607235Y-107385517D01*
X113635825Y-107479767D01*
X113682254Y-107566629D01*
X113744736Y-107642764D01*
X113820871Y-107705246D01*
X113907733Y-107751675D01*
X114001983Y-107780265D01*
X114100000Y-107789919D01*
X114600000Y-107787500D01*
X114725000Y-107662500D01*
X114725000Y-106900000D01*
X115275000Y-106900000D01*
X115275000Y-107662500D01*
X115400000Y-107787500D01*
X115900000Y-107789919D01*
X115998017Y-107780265D01*
X116092267Y-107751675D01*
X116179129Y-107705246D01*
X116255264Y-107642764D01*
X116317746Y-107566629D01*
X116364175Y-107479767D01*
X116392765Y-107385517D01*
X116402419Y-107287500D01*
X116400000Y-107025000D01*
X116275000Y-106900000D01*
X115275000Y-106900000D01*
X114725000Y-106900000D01*
X114705000Y-106900000D01*
X114705000Y-106566735D01*
X162680000Y-106566735D01*
X162680000Y-106793265D01*
X162724194Y-107015443D01*
X162810884Y-107224729D01*
X162936737Y-107413082D01*
X163096918Y-107573263D01*
X163285271Y-107699116D01*
X163494557Y-107785806D01*
X163716735Y-107830000D01*
X163943265Y-107830000D01*
X164165443Y-107785806D01*
X164374729Y-107699116D01*
X164563082Y-107573263D01*
X164723263Y-107413082D01*
X164849116Y-107224729D01*
X164935806Y-107015443D01*
X164980000Y-106793265D01*
X164980000Y-106566735D01*
X164935806Y-106344557D01*
X164849116Y-106135271D01*
X164723263Y-105946918D01*
X164563082Y-105786737D01*
X164374729Y-105660884D01*
X164165443Y-105574194D01*
X163943265Y-105530000D01*
X163716735Y-105530000D01*
X163494557Y-105574194D01*
X163285271Y-105660884D01*
X163096918Y-105786737D01*
X162936737Y-105946918D01*
X162810884Y-106135271D01*
X162724194Y-106344557D01*
X162680000Y-106566735D01*
X114705000Y-106566735D01*
X114705000Y-106350000D01*
X114725000Y-106350000D01*
X114725000Y-105587500D01*
X115275000Y-105587500D01*
X115275000Y-106350000D01*
X116275000Y-106350000D01*
X116400000Y-106225000D01*
X116402419Y-105962500D01*
X116392765Y-105864483D01*
X116364175Y-105770233D01*
X116317746Y-105683371D01*
X116255264Y-105607236D01*
X116179129Y-105544754D01*
X116092267Y-105498325D01*
X115998017Y-105469735D01*
X115900000Y-105460081D01*
X115400000Y-105462500D01*
X115275000Y-105587500D01*
X114725000Y-105587500D01*
X114600000Y-105462500D01*
X114100000Y-105460081D01*
X114001983Y-105469735D01*
X113907733Y-105498325D01*
X113820871Y-105544754D01*
X113744736Y-105607236D01*
X113682254Y-105683371D01*
X113635825Y-105770233D01*
X113607235Y-105864483D01*
X113600000Y-105937940D01*
X113600000Y-104531370D01*
X113831371Y-104300000D01*
X113958067Y-104300000D01*
X113960065Y-104302435D01*
X114043630Y-104371015D01*
X114138968Y-104421974D01*
X114242416Y-104453355D01*
X114349999Y-104463951D01*
X115650001Y-104463951D01*
X115757584Y-104453355D01*
X115861032Y-104421974D01*
X115956370Y-104371015D01*
X116039935Y-104302435D01*
X116041933Y-104300000D01*
X116744148Y-104300000D01*
X116860291Y-104395316D01*
X117020463Y-104480929D01*
X117194258Y-104533650D01*
X117375000Y-104551451D01*
X118625000Y-104551451D01*
X118805742Y-104533650D01*
X118979537Y-104480929D01*
X119139709Y-104395316D01*
X119280100Y-104280100D01*
X119395316Y-104139709D01*
X119480929Y-103979537D01*
X119533650Y-103805742D01*
X119551451Y-103625000D01*
X119551451Y-102375000D01*
X128448549Y-102375000D01*
X128448549Y-103625000D01*
X128466350Y-103805742D01*
X128519071Y-103979537D01*
X128604684Y-104139709D01*
X128719900Y-104280100D01*
X128860291Y-104395316D01*
X129020463Y-104480929D01*
X129194258Y-104533650D01*
X129375000Y-104551451D01*
X130625000Y-104551451D01*
X130805742Y-104533650D01*
X130979537Y-104480929D01*
X131139709Y-104395316D01*
X131280100Y-104280100D01*
X131395316Y-104139709D01*
X131480929Y-103979537D01*
X131533650Y-103805742D01*
X131551451Y-103625000D01*
X131551451Y-102375000D01*
X131533650Y-102194258D01*
X131480929Y-102020463D01*
X131395316Y-101860291D01*
X131280100Y-101719900D01*
X131139709Y-101604684D01*
X130979537Y-101519071D01*
X130805742Y-101466350D01*
X130625000Y-101448549D01*
X129375000Y-101448549D01*
X129194258Y-101466350D01*
X129020463Y-101519071D01*
X128860291Y-101604684D01*
X128719900Y-101719900D01*
X128604684Y-101860291D01*
X128519071Y-102020463D01*
X128466350Y-102194258D01*
X128448549Y-102375000D01*
X119551451Y-102375000D01*
X119533650Y-102194258D01*
X119480929Y-102020463D01*
X119395316Y-101860291D01*
X119280100Y-101719900D01*
X119139709Y-101604684D01*
X118979537Y-101519071D01*
X118805742Y-101466350D01*
X118625000Y-101448549D01*
X117375000Y-101448549D01*
X117194258Y-101466350D01*
X117020463Y-101519071D01*
X116860291Y-101604684D01*
X116719900Y-101719900D01*
X116604684Y-101860291D01*
X116519071Y-102020463D01*
X116466350Y-102194258D01*
X116448549Y-102375000D01*
X116448549Y-102700000D01*
X116041933Y-102700000D01*
X116039935Y-102697565D01*
X115956370Y-102628985D01*
X115861032Y-102578026D01*
X115757584Y-102546645D01*
X115650001Y-102536049D01*
X114349999Y-102536049D01*
X114242416Y-102546645D01*
X114138968Y-102578026D01*
X114043630Y-102628985D01*
X113960065Y-102697565D01*
X113958067Y-102700000D01*
X113539282Y-102700000D01*
X113499999Y-102696131D01*
X113460716Y-102700000D01*
X113460707Y-102700000D01*
X113343173Y-102711576D01*
X113192372Y-102757321D01*
X113101803Y-102805731D01*
X113053393Y-102831607D01*
X112998730Y-102876468D01*
X112931578Y-102931578D01*
X112906531Y-102962098D01*
X112262098Y-103606532D01*
X112231579Y-103631578D01*
X112206532Y-103662098D01*
X112206531Y-103662099D01*
X112131607Y-103753394D01*
X112057321Y-103892373D01*
X112011577Y-104043173D01*
X111996130Y-104200000D01*
X112000001Y-104239300D01*
X112000000Y-106900000D01*
X102500000Y-106900000D01*
X102480491Y-106901921D01*
X102461732Y-106907612D01*
X102444443Y-106916853D01*
X102429289Y-106929289D01*
X102416853Y-106944443D01*
X102407612Y-106961732D01*
X102401921Y-106980491D01*
X102400000Y-107000000D01*
X102400000Y-116900000D01*
X101100000Y-116900000D01*
X101100000Y-103312866D01*
X103100000Y-103312866D01*
X103100000Y-103687134D01*
X103173016Y-104054209D01*
X103316242Y-104399987D01*
X103524174Y-104711179D01*
X103788821Y-104975826D01*
X104100013Y-105183758D01*
X104445791Y-105326984D01*
X104812866Y-105400000D01*
X105187134Y-105400000D01*
X105554209Y-105326984D01*
X105899987Y-105183758D01*
X106211179Y-104975826D01*
X106475826Y-104711179D01*
X106683758Y-104399987D01*
X106826984Y-104054209D01*
X106900000Y-103687134D01*
X106900000Y-103312866D01*
X106826984Y-102945791D01*
X106683758Y-102600013D01*
X106475826Y-102288821D01*
X106211179Y-102024174D01*
X105899987Y-101816242D01*
X105554209Y-101673016D01*
X105187134Y-101600000D01*
X104812866Y-101600000D01*
X104445791Y-101673016D01*
X104100013Y-101816242D01*
X103788821Y-102024174D01*
X103524174Y-102288821D01*
X103316242Y-102600013D01*
X103173016Y-102945791D01*
X103100000Y-103312866D01*
X101100000Y-103312866D01*
X101100000Y-101100000D01*
X132400000Y-101100000D01*
X132400000Y-106000000D01*
%TA.AperFunction,Conductor*%
D30*
G36*
X132400000Y-106000000D02*
G01*
X132401921Y-106019509D01*
X132407612Y-106038268D01*
X132416853Y-106055557D01*
X132429289Y-106070711D01*
X132444443Y-106083147D01*
X132461732Y-106092388D01*
X132480491Y-106098079D01*
X132500000Y-106100000D01*
X161000000Y-106100000D01*
X161019509Y-106098079D01*
X161038268Y-106092388D01*
X161055557Y-106083147D01*
X161070711Y-106070711D01*
X161083147Y-106055557D01*
X161092388Y-106038268D01*
X161098079Y-106019509D01*
X161100000Y-106000000D01*
X161100000Y-103290000D01*
X162678549Y-103290000D01*
X162678549Y-104990000D01*
X162684341Y-105048810D01*
X162701496Y-105105360D01*
X162729353Y-105157477D01*
X162766842Y-105203158D01*
X162812523Y-105240647D01*
X162864640Y-105268504D01*
X162921190Y-105285659D01*
X162980000Y-105291451D01*
X164680000Y-105291451D01*
X164738810Y-105285659D01*
X164795360Y-105268504D01*
X164847477Y-105240647D01*
X164893158Y-105203158D01*
X164930647Y-105157477D01*
X164958504Y-105105360D01*
X164975659Y-105048810D01*
X164981451Y-104990000D01*
X164981451Y-104812866D01*
X168100000Y-104812866D01*
X168100000Y-105187134D01*
X168173016Y-105554209D01*
X168316242Y-105899987D01*
X168524174Y-106211179D01*
X168788821Y-106475826D01*
X169100013Y-106683758D01*
X169445791Y-106826984D01*
X169812866Y-106900000D01*
X170187134Y-106900000D01*
X170554209Y-106826984D01*
X170899987Y-106683758D01*
X171211179Y-106475826D01*
X171475826Y-106211179D01*
X171683758Y-105899987D01*
X171826984Y-105554209D01*
X171900000Y-105187134D01*
X171900000Y-104812866D01*
X171826984Y-104445791D01*
X171683758Y-104100013D01*
X171475826Y-103788821D01*
X171211179Y-103524174D01*
X170899987Y-103316242D01*
X170554209Y-103173016D01*
X170187134Y-103100000D01*
X169812866Y-103100000D01*
X169445791Y-103173016D01*
X169100013Y-103316242D01*
X168788821Y-103524174D01*
X168524174Y-103788821D01*
X168316242Y-104100013D01*
X168173016Y-104445791D01*
X168100000Y-104812866D01*
X164981451Y-104812866D01*
X164981451Y-103290000D01*
X164975659Y-103231190D01*
X164958504Y-103174640D01*
X164930647Y-103122523D01*
X164893158Y-103076842D01*
X164847477Y-103039353D01*
X164795360Y-103011496D01*
X164738810Y-102994341D01*
X164680000Y-102988549D01*
X162980000Y-102988549D01*
X162921190Y-102994341D01*
X162864640Y-103011496D01*
X162812523Y-103039353D01*
X162766842Y-103076842D01*
X162729353Y-103122523D01*
X162701496Y-103174640D01*
X162684341Y-103231190D01*
X162678549Y-103290000D01*
X161100000Y-103290000D01*
X161100000Y-101100000D01*
X173900000Y-101100000D01*
X173900000Y-130557721D01*
X173894320Y-130554589D01*
X173130909Y-131318000D01*
X173894320Y-132081411D01*
X173900000Y-132078279D01*
X173900000Y-135716596D01*
X173894045Y-135702219D01*
X173751776Y-135489298D01*
X173570702Y-135308224D01*
X173357781Y-135165955D01*
X173121196Y-135067958D01*
X172870039Y-135018000D01*
X172613961Y-135018000D01*
X172362804Y-135067958D01*
X172126219Y-135165955D01*
X171913298Y-135308224D01*
X171732224Y-135489298D01*
X171589955Y-135702219D01*
X171491958Y-135938804D01*
X171442000Y-136189961D01*
X171442000Y-136446039D01*
X171491958Y-136697196D01*
X171589955Y-136933781D01*
X171732224Y-137146702D01*
X171913298Y-137327776D01*
X172126219Y-137470045D01*
X172362804Y-137568042D01*
X172613961Y-137618000D01*
X172870039Y-137618000D01*
X173121196Y-137568042D01*
X173357781Y-137470045D01*
X173570702Y-137327776D01*
X173751776Y-137146702D01*
X173894045Y-136933781D01*
X173900000Y-136919404D01*
X173900000Y-148900000D01*
X150439788Y-148900000D01*
X150634604Y-148861249D01*
X150986867Y-148715337D01*
X151303895Y-148503505D01*
X151573505Y-148233895D01*
X151785337Y-147916867D01*
X151931249Y-147564604D01*
X152005634Y-147190643D01*
X152005634Y-146809357D01*
X151931249Y-146435396D01*
X151785337Y-146083133D01*
X151573505Y-145766105D01*
X151303895Y-145496495D01*
X150986867Y-145284663D01*
X150634604Y-145138751D01*
X150260643Y-145064366D01*
X149879357Y-145064366D01*
X149505396Y-145138751D01*
X149153133Y-145284663D01*
X148836105Y-145496495D01*
X148566495Y-145766105D01*
X148354663Y-146083133D01*
X148208751Y-146435396D01*
X148134366Y-146809357D01*
X148134366Y-147190643D01*
X148208751Y-147564604D01*
X148354663Y-147916867D01*
X148566495Y-148233895D01*
X148836105Y-148503505D01*
X149153133Y-148715337D01*
X149505396Y-148861249D01*
X149700212Y-148900000D01*
X101100000Y-148900000D01*
X101100000Y-146458093D01*
X103660000Y-146458093D01*
X103660000Y-146861907D01*
X103738780Y-147257963D01*
X103893314Y-147631039D01*
X104117661Y-147966799D01*
X104403201Y-148252339D01*
X104738961Y-148476686D01*
X105112037Y-148631220D01*
X105508093Y-148710000D01*
X105911907Y-148710000D01*
X106307963Y-148631220D01*
X106681039Y-148476686D01*
X107016799Y-148252339D01*
X107302339Y-147966799D01*
X107526686Y-147631039D01*
X107627880Y-147386735D01*
X129914000Y-147386735D01*
X129914000Y-147613265D01*
X129958194Y-147835443D01*
X130044884Y-148044729D01*
X130170737Y-148233082D01*
X130330918Y-148393263D01*
X130519271Y-148519116D01*
X130728557Y-148605806D01*
X130950735Y-148650000D01*
X131177265Y-148650000D01*
X131399443Y-148605806D01*
X131608729Y-148519116D01*
X131797082Y-148393263D01*
X131957263Y-148233082D01*
X132083116Y-148044729D01*
X132169806Y-147835443D01*
X132214000Y-147613265D01*
X132214000Y-147386735D01*
X132454000Y-147386735D01*
X132454000Y-147613265D01*
X132498194Y-147835443D01*
X132584884Y-148044729D01*
X132710737Y-148233082D01*
X132870918Y-148393263D01*
X133059271Y-148519116D01*
X133268557Y-148605806D01*
X133490735Y-148650000D01*
X133717265Y-148650000D01*
X133939443Y-148605806D01*
X134148729Y-148519116D01*
X134337082Y-148393263D01*
X134497263Y-148233082D01*
X134623116Y-148044729D01*
X134650601Y-147978375D01*
X134881586Y-147978375D01*
X134999169Y-148215468D01*
X135160747Y-148425066D01*
X135360111Y-148599114D01*
X135589600Y-148730924D01*
X135665627Y-148762402D01*
X135869000Y-148693734D01*
X135869000Y-147775000D01*
X136419000Y-147775000D01*
X136419000Y-148693734D01*
X136622373Y-148762402D01*
X136698400Y-148730924D01*
X136927889Y-148599114D01*
X137127253Y-148425066D01*
X137288831Y-148215468D01*
X137406414Y-147978375D01*
X137340706Y-147775000D01*
X136419000Y-147775000D01*
X135869000Y-147775000D01*
X134947294Y-147775000D01*
X134881586Y-147978375D01*
X134650601Y-147978375D01*
X134709806Y-147835443D01*
X134754000Y-147613265D01*
X134754000Y-147386735D01*
X134709806Y-147164557D01*
X134650602Y-147021625D01*
X134881586Y-147021625D01*
X134947294Y-147225000D01*
X135869000Y-147225000D01*
X135869000Y-146306266D01*
X136419000Y-146306266D01*
X136419000Y-147225000D01*
X137340706Y-147225000D01*
X137406414Y-147021625D01*
X137288831Y-146784532D01*
X137185121Y-146650000D01*
X137532549Y-146650000D01*
X137532549Y-148350000D01*
X137538341Y-148408810D01*
X137555496Y-148465360D01*
X137583353Y-148517477D01*
X137620842Y-148563158D01*
X137666523Y-148600647D01*
X137718640Y-148628504D01*
X137775190Y-148645659D01*
X137834000Y-148651451D01*
X139534000Y-148651451D01*
X139592810Y-148645659D01*
X139649360Y-148628504D01*
X139701477Y-148600647D01*
X139747158Y-148563158D01*
X139784647Y-148517477D01*
X139812504Y-148465360D01*
X139829659Y-148408810D01*
X139835451Y-148350000D01*
X139835451Y-146650000D01*
X139829659Y-146591190D01*
X139812504Y-146534640D01*
X139784647Y-146482523D01*
X139747158Y-146436842D01*
X139701477Y-146399353D01*
X139649360Y-146371496D01*
X139592810Y-146354341D01*
X139534000Y-146348549D01*
X137834000Y-146348549D01*
X137775190Y-146354341D01*
X137718640Y-146371496D01*
X137666523Y-146399353D01*
X137620842Y-146436842D01*
X137583353Y-146482523D01*
X137555496Y-146534640D01*
X137538341Y-146591190D01*
X137532549Y-146650000D01*
X137185121Y-146650000D01*
X137127253Y-146574934D01*
X136927889Y-146400886D01*
X136698400Y-146269076D01*
X136622373Y-146237598D01*
X136419000Y-146306266D01*
X135869000Y-146306266D01*
X135665627Y-146237598D01*
X135589600Y-146269076D01*
X135360111Y-146400886D01*
X135160747Y-146574934D01*
X134999169Y-146784532D01*
X134881586Y-147021625D01*
X134650602Y-147021625D01*
X134623116Y-146955271D01*
X134497263Y-146766918D01*
X134337082Y-146606737D01*
X134148729Y-146480884D01*
X133939443Y-146394194D01*
X133717265Y-146350000D01*
X133490735Y-146350000D01*
X133268557Y-146394194D01*
X133059271Y-146480884D01*
X132870918Y-146606737D01*
X132710737Y-146766918D01*
X132584884Y-146955271D01*
X132498194Y-147164557D01*
X132454000Y-147386735D01*
X132214000Y-147386735D01*
X132169806Y-147164557D01*
X132083116Y-146955271D01*
X131957263Y-146766918D01*
X131797082Y-146606737D01*
X131608729Y-146480884D01*
X131399443Y-146394194D01*
X131177265Y-146350000D01*
X130950735Y-146350000D01*
X130728557Y-146394194D01*
X130519271Y-146480884D01*
X130330918Y-146606737D01*
X130170737Y-146766918D01*
X130044884Y-146955271D01*
X129958194Y-147164557D01*
X129914000Y-147386735D01*
X107627880Y-147386735D01*
X107681220Y-147257963D01*
X107760000Y-146861907D01*
X107760000Y-146458093D01*
X107681220Y-146062037D01*
X107526686Y-145688961D01*
X107302339Y-145353201D01*
X107016799Y-145067661D01*
X106681039Y-144843314D01*
X106607532Y-144812866D01*
X168100000Y-144812866D01*
X168100000Y-145187134D01*
X168173016Y-145554209D01*
X168316242Y-145899987D01*
X168524174Y-146211179D01*
X168788821Y-146475826D01*
X169100013Y-146683758D01*
X169445791Y-146826984D01*
X169812866Y-146900000D01*
X170187134Y-146900000D01*
X170554209Y-146826984D01*
X170899987Y-146683758D01*
X171211179Y-146475826D01*
X171475826Y-146211179D01*
X171683758Y-145899987D01*
X171826984Y-145554209D01*
X171900000Y-145187134D01*
X171900000Y-144812866D01*
X171826984Y-144445791D01*
X171683758Y-144100013D01*
X171475826Y-143788821D01*
X171211179Y-143524174D01*
X170899987Y-143316242D01*
X170554209Y-143173016D01*
X170187134Y-143100000D01*
X169812866Y-143100000D01*
X169445791Y-143173016D01*
X169100013Y-143316242D01*
X168788821Y-143524174D01*
X168524174Y-143788821D01*
X168316242Y-144100013D01*
X168173016Y-144445791D01*
X168100000Y-144812866D01*
X106607532Y-144812866D01*
X106307963Y-144688780D01*
X105911907Y-144610000D01*
X105508093Y-144610000D01*
X105112037Y-144688780D01*
X104738961Y-144843314D01*
X104403201Y-145067661D01*
X104117661Y-145353201D01*
X103893314Y-145688961D01*
X103738780Y-146062037D01*
X103660000Y-146458093D01*
X101100000Y-146458093D01*
X101100000Y-140845830D01*
X150350000Y-140845830D01*
X150350000Y-140954170D01*
X150371136Y-141060429D01*
X150412597Y-141160523D01*
X150472787Y-141250604D01*
X150549396Y-141327213D01*
X150639477Y-141387403D01*
X150739571Y-141428864D01*
X150845830Y-141450000D01*
X150954170Y-141450000D01*
X151060429Y-141428864D01*
X151160523Y-141387403D01*
X151250604Y-141327213D01*
X151252817Y-141325000D01*
X160723960Y-141325000D01*
X161288000Y-141889041D01*
X161288000Y-141892170D01*
X161309136Y-141998429D01*
X161350597Y-142098523D01*
X161410787Y-142188604D01*
X161487396Y-142265213D01*
X161577477Y-142325403D01*
X161677571Y-142366864D01*
X161783830Y-142388000D01*
X161892170Y-142388000D01*
X161998429Y-142366864D01*
X162098523Y-142325403D01*
X162188604Y-142265213D01*
X162265213Y-142188604D01*
X162325403Y-142098523D01*
X162366864Y-141998429D01*
X162388000Y-141892170D01*
X162388000Y-141783830D01*
X162366864Y-141677571D01*
X162325403Y-141577477D01*
X162265213Y-141487396D01*
X162188604Y-141410787D01*
X162098523Y-141350597D01*
X161998429Y-141309136D01*
X161892170Y-141288000D01*
X161889041Y-141288000D01*
X161215283Y-140614243D01*
X161201974Y-140598026D01*
X161137260Y-140544916D01*
X161063427Y-140505452D01*
X160983314Y-140481150D01*
X160920874Y-140475000D01*
X160920867Y-140475000D01*
X160900000Y-140472945D01*
X160879133Y-140475000D01*
X151252817Y-140475000D01*
X151250604Y-140472787D01*
X151160523Y-140412597D01*
X151060429Y-140371136D01*
X150954170Y-140350000D01*
X150845830Y-140350000D01*
X150739571Y-140371136D01*
X150639477Y-140412597D01*
X150549396Y-140472787D01*
X150472787Y-140549396D01*
X150412597Y-140639477D01*
X150371136Y-140739571D01*
X150350000Y-140845830D01*
X101100000Y-140845830D01*
X101100000Y-138245830D01*
X137150000Y-138245830D01*
X137150000Y-138354170D01*
X137171136Y-138460429D01*
X137212597Y-138560523D01*
X137272787Y-138650604D01*
X137349396Y-138727213D01*
X137439477Y-138787403D01*
X137539571Y-138828864D01*
X137645830Y-138850000D01*
X137754170Y-138850000D01*
X137860429Y-138828864D01*
X137960523Y-138787403D01*
X138050604Y-138727213D01*
X138127213Y-138650604D01*
X138187403Y-138560523D01*
X138228864Y-138460429D01*
X138237303Y-138418000D01*
X163840549Y-138418000D01*
X163840549Y-140418000D01*
X163846341Y-140476810D01*
X163863496Y-140533360D01*
X163891353Y-140585477D01*
X163928842Y-140631158D01*
X163974523Y-140668647D01*
X164026640Y-140696504D01*
X164083190Y-140713659D01*
X164142000Y-140719451D01*
X167342000Y-140719451D01*
X167400810Y-140713659D01*
X167457360Y-140696504D01*
X167509477Y-140668647D01*
X167555158Y-140631158D01*
X167592647Y-140585477D01*
X167620504Y-140533360D01*
X167637659Y-140476810D01*
X167643451Y-140418000D01*
X167643451Y-138418000D01*
X167637659Y-138359190D01*
X167620504Y-138302640D01*
X167592647Y-138250523D01*
X167555158Y-138204842D01*
X167509477Y-138167353D01*
X167457360Y-138139496D01*
X167400810Y-138122341D01*
X167342000Y-138116549D01*
X164142000Y-138116549D01*
X164083190Y-138122341D01*
X164026640Y-138139496D01*
X163974523Y-138167353D01*
X163928842Y-138204842D01*
X163891353Y-138250523D01*
X163863496Y-138302640D01*
X163846341Y-138359190D01*
X163840549Y-138418000D01*
X138237303Y-138418000D01*
X138241999Y-138394397D01*
X140094398Y-136541998D01*
X140160429Y-136528864D01*
X140260523Y-136487403D01*
X140350604Y-136427213D01*
X140427213Y-136350604D01*
X140487403Y-136260523D01*
X140528864Y-136160429D01*
X140550000Y-136054170D01*
X140550000Y-135945830D01*
X140528864Y-135839571D01*
X140487403Y-135739477D01*
X140427213Y-135649396D01*
X140350604Y-135572787D01*
X140260523Y-135512597D01*
X140160429Y-135471136D01*
X140054170Y-135450000D01*
X139945830Y-135450000D01*
X139839571Y-135471136D01*
X139739477Y-135512597D01*
X139649396Y-135572787D01*
X139572787Y-135649396D01*
X139512597Y-135739477D01*
X139471136Y-135839571D01*
X139458002Y-135905602D01*
X137605603Y-137758001D01*
X137539571Y-137771136D01*
X137439477Y-137812597D01*
X137349396Y-137872787D01*
X137272787Y-137949396D01*
X137212597Y-138039477D01*
X137171136Y-138139571D01*
X137150000Y-138245830D01*
X101100000Y-138245830D01*
X101100000Y-137100314D01*
X116974687Y-137150000D01*
X116994202Y-137148139D01*
X117012979Y-137142507D01*
X117030297Y-137133320D01*
X117045489Y-137120932D01*
X117057973Y-137105817D01*
X117067268Y-137088557D01*
X117073017Y-137069816D01*
X117075000Y-137050125D01*
X117087099Y-127345830D01*
X120150000Y-127345830D01*
X120150000Y-127454170D01*
X120171136Y-127560429D01*
X120212597Y-127660523D01*
X120272787Y-127750604D01*
X120349396Y-127827213D01*
X120439477Y-127887403D01*
X120539571Y-127928864D01*
X120605603Y-127941998D01*
X120966176Y-128302572D01*
X120980263Y-128319737D01*
X120997428Y-128333824D01*
X120997432Y-128333828D01*
X121048783Y-128375971D01*
X121126959Y-128417757D01*
X121211785Y-128443489D01*
X121277895Y-128450000D01*
X121277905Y-128450000D01*
X121299999Y-128452176D01*
X121322094Y-128450000D01*
X135483499Y-128450000D01*
X135539477Y-128487403D01*
X135639571Y-128528864D01*
X135745830Y-128550000D01*
X135854170Y-128550000D01*
X135960429Y-128528864D01*
X136060523Y-128487403D01*
X136150604Y-128427213D01*
X136227213Y-128350604D01*
X136287403Y-128260523D01*
X136328864Y-128160429D01*
X136350000Y-128054170D01*
X136350000Y-127945830D01*
X136328864Y-127839571D01*
X136287403Y-127739477D01*
X136227213Y-127649396D01*
X136150604Y-127572787D01*
X136060523Y-127512597D01*
X135960429Y-127471136D01*
X135854170Y-127450000D01*
X136747183Y-127450000D01*
X144254487Y-134957304D01*
X144271710Y-134978290D01*
X144292696Y-134995513D01*
X144355458Y-135047021D01*
X144451005Y-135098092D01*
X144554681Y-135129542D01*
X144635482Y-135137500D01*
X144635489Y-135137500D01*
X144662500Y-135140160D01*
X144689511Y-135137500D01*
X152716670Y-135137500D01*
X152743300Y-135132203D01*
X152770319Y-135129542D01*
X152796298Y-135121661D01*
X152822929Y-135116364D01*
X152848016Y-135105973D01*
X152873994Y-135098092D01*
X152897938Y-135085294D01*
X152923023Y-135074903D01*
X152945596Y-135059820D01*
X152969542Y-135047021D01*
X152990530Y-135029797D01*
X153013104Y-135014713D01*
X153032304Y-134995513D01*
X153053290Y-134978290D01*
X153070513Y-134957304D01*
X153089713Y-134938104D01*
X153104797Y-134915530D01*
X153122021Y-134894542D01*
X153134820Y-134870596D01*
X153149903Y-134848023D01*
X153160294Y-134822938D01*
X153173092Y-134798994D01*
X153180973Y-134773016D01*
X153191364Y-134747929D01*
X153196661Y-134721298D01*
X153204542Y-134695319D01*
X153207203Y-134668299D01*
X153212500Y-134641670D01*
X153212500Y-134614518D01*
X153215161Y-134587500D01*
X153212500Y-134560482D01*
X153212500Y-134533330D01*
X153207203Y-134506701D01*
X153204542Y-134479681D01*
X153196661Y-134453702D01*
X153191364Y-134427071D01*
X153180973Y-134401984D01*
X153173092Y-134376006D01*
X153160294Y-134352062D01*
X153149903Y-134326977D01*
X153134820Y-134304404D01*
X153122021Y-134280458D01*
X153104797Y-134259470D01*
X153089713Y-134236896D01*
X153070513Y-134217696D01*
X153053290Y-134196710D01*
X153032304Y-134179487D01*
X153013104Y-134160287D01*
X152990530Y-134145203D01*
X152969542Y-134127979D01*
X152945596Y-134115180D01*
X152923023Y-134100097D01*
X152897938Y-134089706D01*
X152873994Y-134076908D01*
X152848016Y-134069027D01*
X152822929Y-134058636D01*
X152796298Y-134053339D01*
X152770319Y-134045458D01*
X152743300Y-134042797D01*
X152716670Y-134037500D01*
X144890317Y-134037500D01*
X137383012Y-126530195D01*
X137365790Y-126509210D01*
X137282042Y-126440479D01*
X137186494Y-126389408D01*
X137082819Y-126357958D01*
X137002018Y-126350000D01*
X137002008Y-126350000D01*
X136975000Y-126347340D01*
X136947992Y-126350000D01*
X135127818Y-126350000D01*
X134369804Y-125591987D01*
X134350604Y-125572787D01*
X134328030Y-125557704D01*
X134307042Y-125540479D01*
X134283098Y-125527681D01*
X134260523Y-125512597D01*
X134235432Y-125502204D01*
X134211494Y-125489409D01*
X134185525Y-125481531D01*
X134160429Y-125471136D01*
X134133787Y-125465837D01*
X134107818Y-125457959D01*
X134080810Y-125455299D01*
X134054170Y-125450000D01*
X134027008Y-125450000D01*
X134000000Y-125447340D01*
X133972992Y-125450000D01*
X133945830Y-125450000D01*
X133919190Y-125455299D01*
X133892182Y-125457959D01*
X133866213Y-125465837D01*
X133839571Y-125471136D01*
X133814475Y-125481531D01*
X133788506Y-125489409D01*
X133764568Y-125502204D01*
X133739477Y-125512597D01*
X133716902Y-125527681D01*
X133692958Y-125540479D01*
X133671970Y-125557703D01*
X133649396Y-125572787D01*
X133630196Y-125591987D01*
X133609210Y-125609210D01*
X133591987Y-125630196D01*
X133572787Y-125649396D01*
X133557703Y-125671970D01*
X133540479Y-125692958D01*
X133527681Y-125716902D01*
X133512597Y-125739477D01*
X133502204Y-125764568D01*
X133489409Y-125788506D01*
X133481531Y-125814475D01*
X133471136Y-125839571D01*
X133465837Y-125866213D01*
X133457959Y-125892182D01*
X133455299Y-125919190D01*
X133450000Y-125945830D01*
X133450000Y-125972992D01*
X133447340Y-126000000D01*
X133450000Y-126027008D01*
X133450000Y-126054170D01*
X133455299Y-126080810D01*
X133457959Y-126107818D01*
X133465837Y-126133787D01*
X133471136Y-126160429D01*
X133481531Y-126185525D01*
X133489409Y-126211494D01*
X133502204Y-126235432D01*
X133512597Y-126260523D01*
X133527681Y-126283098D01*
X133540479Y-126307042D01*
X133557704Y-126328030D01*
X133572787Y-126350604D01*
X133591987Y-126369804D01*
X134491992Y-127269810D01*
X134509210Y-127290790D01*
X134530190Y-127308008D01*
X134530195Y-127308013D01*
X134576276Y-127345830D01*
X134592958Y-127359521D01*
X134688506Y-127410592D01*
X134792181Y-127442042D01*
X134872982Y-127450000D01*
X134872991Y-127450000D01*
X134899999Y-127452660D01*
X134927007Y-127450000D01*
X135745830Y-127450000D01*
X135639571Y-127471136D01*
X135539477Y-127512597D01*
X135483499Y-127550000D01*
X121486396Y-127550000D01*
X121241998Y-127305603D01*
X121228864Y-127239571D01*
X121187403Y-127139477D01*
X121127213Y-127049396D01*
X121050604Y-126972787D01*
X120960523Y-126912597D01*
X120860429Y-126871136D01*
X120754170Y-126850000D01*
X120645830Y-126850000D01*
X120539571Y-126871136D01*
X120439477Y-126912597D01*
X120349396Y-126972787D01*
X120272787Y-127049396D01*
X120212597Y-127139477D01*
X120171136Y-127239571D01*
X120150000Y-127345830D01*
X117087099Y-127345830D01*
X117089842Y-125145830D01*
X134550000Y-125145830D01*
X134550000Y-125254170D01*
X134571136Y-125360429D01*
X134612597Y-125460523D01*
X134672787Y-125550604D01*
X134749396Y-125627213D01*
X134839477Y-125687403D01*
X134939571Y-125728864D01*
X135045830Y-125750000D01*
X135154170Y-125750000D01*
X135260429Y-125728864D01*
X135360523Y-125687403D01*
X135450604Y-125627213D01*
X135452817Y-125625000D01*
X136555554Y-125625000D01*
X144816313Y-133885760D01*
X144829620Y-133901974D01*
X144894334Y-133955084D01*
X144968167Y-133994548D01*
X145023977Y-134011478D01*
X145048279Y-134018850D01*
X145055921Y-134019603D01*
X145110720Y-134025000D01*
X145110727Y-134025000D01*
X145131594Y-134027055D01*
X145152461Y-134025000D01*
X155347960Y-134025000D01*
X157070982Y-135748023D01*
X156991958Y-135938804D01*
X156942000Y-136189961D01*
X156942000Y-136446039D01*
X156991958Y-136697196D01*
X157089955Y-136933781D01*
X157232224Y-137146702D01*
X157413298Y-137327776D01*
X157626219Y-137470045D01*
X157862804Y-137568042D01*
X158113961Y-137618000D01*
X158370039Y-137618000D01*
X158621196Y-137568042D01*
X158857781Y-137470045D01*
X159070702Y-137327776D01*
X159251776Y-137146702D01*
X159394045Y-136933781D01*
X159492042Y-136697196D01*
X159542000Y-136446039D01*
X159542000Y-136189961D01*
X159492042Y-135938804D01*
X159394045Y-135702219D01*
X159251776Y-135489298D01*
X159070702Y-135308224D01*
X158881994Y-135182133D01*
X158890594Y-135178571D01*
X159005411Y-134970320D01*
X158242000Y-134206909D01*
X158227858Y-134221051D01*
X157838949Y-133832142D01*
X157853091Y-133818000D01*
X158630909Y-133818000D01*
X159394320Y-134581411D01*
X159602571Y-134466594D01*
X159702963Y-134188697D01*
X159747210Y-133896555D01*
X159733613Y-133601393D01*
X159662694Y-133314556D01*
X159602571Y-133169406D01*
X159394320Y-133054589D01*
X158630909Y-133818000D01*
X157853091Y-133818000D01*
X157089680Y-133054589D01*
X156881429Y-133169406D01*
X156781037Y-133447303D01*
X156736790Y-133739445D01*
X156750387Y-134034607D01*
X156813036Y-134287996D01*
X155839283Y-133314243D01*
X155825974Y-133298026D01*
X155761260Y-133244916D01*
X155687427Y-133205452D01*
X155607314Y-133181150D01*
X155544874Y-133175000D01*
X155544867Y-133175000D01*
X155524000Y-133172945D01*
X155503133Y-133175000D01*
X145307635Y-133175000D01*
X137046878Y-124914244D01*
X137033568Y-124898026D01*
X136968854Y-124844916D01*
X136895021Y-124805452D01*
X136814908Y-124781150D01*
X136752468Y-124775000D01*
X136752461Y-124775000D01*
X136731594Y-124772945D01*
X136710727Y-124775000D01*
X135452817Y-124775000D01*
X135450604Y-124772787D01*
X135360523Y-124712597D01*
X135260429Y-124671136D01*
X135154170Y-124650000D01*
X135045830Y-124650000D01*
X134939571Y-124671136D01*
X134839477Y-124712597D01*
X134749396Y-124772787D01*
X134672787Y-124849396D01*
X134612597Y-124939477D01*
X134571136Y-125039571D01*
X134550000Y-125145830D01*
X117089842Y-125145830D01*
X117090715Y-124445830D01*
X129350000Y-124445830D01*
X129350000Y-124554170D01*
X129371136Y-124660429D01*
X129412597Y-124760523D01*
X129472787Y-124850604D01*
X129549396Y-124927213D01*
X129639477Y-124987403D01*
X129739571Y-125028864D01*
X129845830Y-125050000D01*
X129954170Y-125050000D01*
X130060429Y-125028864D01*
X130160523Y-124987403D01*
X130250604Y-124927213D01*
X130327213Y-124850604D01*
X130387403Y-124760523D01*
X130428864Y-124660429D01*
X130441998Y-124594397D01*
X130586396Y-124450000D01*
X136613605Y-124450000D01*
X145166176Y-133002572D01*
X145180263Y-133019737D01*
X145197428Y-133033824D01*
X145197432Y-133033828D01*
X145248783Y-133075971D01*
X145326959Y-133117757D01*
X145411785Y-133143489D01*
X145477895Y-133150000D01*
X145477905Y-133150000D01*
X145500000Y-133152176D01*
X145522094Y-133150000D01*
X149527906Y-133150000D01*
X149550000Y-133152176D01*
X149572094Y-133150000D01*
X149572105Y-133150000D01*
X149638215Y-133143489D01*
X149723041Y-133117757D01*
X149801216Y-133075971D01*
X149869737Y-133019737D01*
X149883829Y-133002566D01*
X152568395Y-130318000D01*
X156940549Y-130318000D01*
X156940549Y-132318000D01*
X156946341Y-132376810D01*
X156963496Y-132433360D01*
X156991353Y-132485477D01*
X157028842Y-132531158D01*
X157074523Y-132568647D01*
X157126640Y-132596504D01*
X157183190Y-132613659D01*
X157242000Y-132619451D01*
X157504077Y-132619451D01*
X157478589Y-132665680D01*
X158242000Y-133429091D01*
X159005411Y-132665680D01*
X158979923Y-132619451D01*
X159242000Y-132619451D01*
X159300810Y-132613659D01*
X159357360Y-132596504D01*
X159409477Y-132568647D01*
X159455158Y-132531158D01*
X159492647Y-132485477D01*
X159500748Y-132470320D01*
X171978589Y-132470320D01*
X172093406Y-132678571D01*
X172371303Y-132778963D01*
X172663445Y-132823210D01*
X172958607Y-132809613D01*
X173245444Y-132738694D01*
X173390594Y-132678571D01*
X173505411Y-132470320D01*
X172742000Y-131706909D01*
X171978589Y-132470320D01*
X159500748Y-132470320D01*
X159520504Y-132433360D01*
X159537659Y-132376810D01*
X159543451Y-132318000D01*
X159543451Y-131239445D01*
X171236790Y-131239445D01*
X171250387Y-131534607D01*
X171321306Y-131821444D01*
X171381429Y-131966594D01*
X171589680Y-132081411D01*
X172353091Y-131318000D01*
X171589680Y-130554589D01*
X171381429Y-130669406D01*
X171281037Y-130947303D01*
X171236790Y-131239445D01*
X159543451Y-131239445D01*
X159543451Y-130318000D01*
X159537659Y-130259190D01*
X159520504Y-130202640D01*
X159500749Y-130165680D01*
X171978589Y-130165680D01*
X172742000Y-130929091D01*
X173505411Y-130165680D01*
X173390594Y-129957429D01*
X173112697Y-129857037D01*
X172820555Y-129812790D01*
X172525393Y-129826387D01*
X172238556Y-129897306D01*
X172093406Y-129957429D01*
X171978589Y-130165680D01*
X159500749Y-130165680D01*
X159492647Y-130150523D01*
X159455158Y-130104842D01*
X159409477Y-130067353D01*
X159357360Y-130039496D01*
X159300810Y-130022341D01*
X159242000Y-130016549D01*
X157242000Y-130016549D01*
X157183190Y-130022341D01*
X157126640Y-130039496D01*
X157074523Y-130067353D01*
X157028842Y-130104842D01*
X156991353Y-130150523D01*
X156963496Y-130202640D01*
X156946341Y-130259190D01*
X156940549Y-130318000D01*
X152568395Y-130318000D01*
X154102567Y-128783829D01*
X154119731Y-128769743D01*
X154133818Y-128752578D01*
X154133822Y-128752574D01*
X154175965Y-128701223D01*
X154217751Y-128623047D01*
X154217751Y-128623046D01*
X154243483Y-128538221D01*
X154249994Y-128472111D01*
X154249994Y-128472101D01*
X154252170Y-128450007D01*
X154249994Y-128427913D01*
X154249994Y-127416501D01*
X154287397Y-127360523D01*
X154328858Y-127260429D01*
X154337297Y-127218000D01*
X163840549Y-127218000D01*
X163840549Y-129218000D01*
X163846341Y-129276810D01*
X163863496Y-129333360D01*
X163891353Y-129385477D01*
X163928842Y-129431158D01*
X163974523Y-129468647D01*
X164026640Y-129496504D01*
X164083190Y-129513659D01*
X164142000Y-129519451D01*
X167342000Y-129519451D01*
X167400810Y-129513659D01*
X167457360Y-129496504D01*
X167509477Y-129468647D01*
X167555158Y-129431158D01*
X167592647Y-129385477D01*
X167620504Y-129333360D01*
X167637659Y-129276810D01*
X167643451Y-129218000D01*
X167643451Y-127218000D01*
X167637659Y-127159190D01*
X167620504Y-127102640D01*
X167592647Y-127050523D01*
X167555158Y-127004842D01*
X167509477Y-126967353D01*
X167457360Y-126939496D01*
X167400810Y-126922341D01*
X167342000Y-126916549D01*
X164142000Y-126916549D01*
X164083190Y-126922341D01*
X164026640Y-126939496D01*
X163974523Y-126967353D01*
X163928842Y-127004842D01*
X163891353Y-127050523D01*
X163863496Y-127102640D01*
X163846341Y-127159190D01*
X163840549Y-127218000D01*
X154337297Y-127218000D01*
X154349994Y-127154170D01*
X154349994Y-127045830D01*
X154328858Y-126939571D01*
X154287397Y-126839477D01*
X154227207Y-126749396D01*
X154150598Y-126672787D01*
X154060517Y-126612597D01*
X153960423Y-126571136D01*
X153854164Y-126550000D01*
X153745824Y-126550000D01*
X153639565Y-126571136D01*
X153539471Y-126612597D01*
X153449390Y-126672787D01*
X153372781Y-126749396D01*
X153312591Y-126839477D01*
X153271130Y-126939571D01*
X153249994Y-127045830D01*
X153249994Y-127154170D01*
X153271130Y-127260429D01*
X153312591Y-127360523D01*
X153349995Y-127416502D01*
X153349994Y-128263610D01*
X149363605Y-132250000D01*
X145686396Y-132250000D01*
X137133829Y-123697434D01*
X137119737Y-123680263D01*
X137051216Y-123624029D01*
X136973041Y-123582243D01*
X136888215Y-123556511D01*
X136822105Y-123550000D01*
X136822094Y-123550000D01*
X136800000Y-123547824D01*
X136777906Y-123550000D01*
X130422094Y-123550000D01*
X130400000Y-123547824D01*
X130377906Y-123550000D01*
X130377895Y-123550000D01*
X130311785Y-123556511D01*
X130226959Y-123582243D01*
X130148783Y-123624029D01*
X130097432Y-123666172D01*
X130097428Y-123666176D01*
X130080263Y-123680263D01*
X130066176Y-123697428D01*
X129805603Y-123958002D01*
X129739571Y-123971136D01*
X129639477Y-124012597D01*
X129549396Y-124072787D01*
X129472787Y-124149396D01*
X129412597Y-124239477D01*
X129371136Y-124339571D01*
X129350000Y-124445830D01*
X117090715Y-124445830D01*
X117092585Y-122945822D01*
X130450000Y-122945822D01*
X130450000Y-123054162D01*
X130471136Y-123160421D01*
X130512597Y-123260515D01*
X130572787Y-123350596D01*
X130649396Y-123427205D01*
X130739477Y-123487395D01*
X130839571Y-123528856D01*
X130945830Y-123549992D01*
X131054170Y-123549992D01*
X131160429Y-123528856D01*
X131260523Y-123487395D01*
X131350604Y-123427205D01*
X131427213Y-123350596D01*
X131487403Y-123260515D01*
X131528864Y-123160421D01*
X131541999Y-123094388D01*
X134936387Y-119700000D01*
X137347824Y-119700000D01*
X137350000Y-119722094D01*
X137350001Y-123377896D01*
X137347824Y-123400000D01*
X137350001Y-123422105D01*
X137352629Y-123448784D01*
X137356512Y-123488215D01*
X137382243Y-123573040D01*
X137424029Y-123651216D01*
X137466172Y-123702567D01*
X137466177Y-123702572D01*
X137480264Y-123719737D01*
X137497429Y-123733824D01*
X145466176Y-131702572D01*
X145480263Y-131719737D01*
X145497428Y-131733824D01*
X145497432Y-131733828D01*
X145548782Y-131775971D01*
X145589175Y-131797561D01*
X145626959Y-131817757D01*
X145711785Y-131843489D01*
X145777895Y-131850000D01*
X145777907Y-131850000D01*
X145799999Y-131852176D01*
X145822091Y-131850000D01*
X148083499Y-131850000D01*
X148139477Y-131887403D01*
X148239571Y-131928864D01*
X148345830Y-131950000D01*
X148454170Y-131950000D01*
X148560429Y-131928864D01*
X148660523Y-131887403D01*
X148750604Y-131827213D01*
X148827213Y-131750604D01*
X148887403Y-131660523D01*
X148928864Y-131560429D01*
X148950000Y-131454170D01*
X148950000Y-131345830D01*
X148928864Y-131239571D01*
X148887403Y-131139477D01*
X148827213Y-131049396D01*
X148750604Y-130972787D01*
X148660523Y-130912597D01*
X148560429Y-130871136D01*
X148454170Y-130850000D01*
X148345830Y-130850000D01*
X148239571Y-130871136D01*
X148139477Y-130912597D01*
X148083499Y-130950000D01*
X145986396Y-130950000D01*
X138250000Y-123213605D01*
X138250000Y-121445830D01*
X139150000Y-121445830D01*
X139150000Y-121554170D01*
X139171136Y-121660429D01*
X139212597Y-121760523D01*
X139250000Y-121816501D01*
X139250001Y-123677896D01*
X139247824Y-123700000D01*
X139256512Y-123788215D01*
X139282243Y-123873040D01*
X139324029Y-123951216D01*
X139366172Y-124002567D01*
X139366177Y-124002572D01*
X139380264Y-124019737D01*
X139397429Y-124033824D01*
X145866180Y-130502576D01*
X145880267Y-130519741D01*
X145897432Y-130533828D01*
X145897436Y-130533832D01*
X145948787Y-130575975D01*
X146026963Y-130617761D01*
X146111789Y-130643493D01*
X146177899Y-130650004D01*
X146177910Y-130650004D01*
X146200004Y-130652180D01*
X146222098Y-130650004D01*
X148583499Y-130650004D01*
X148639477Y-130687407D01*
X148739571Y-130728868D01*
X148845830Y-130750004D01*
X148954170Y-130750004D01*
X149060429Y-130728868D01*
X149160523Y-130687407D01*
X149250604Y-130627217D01*
X149327213Y-130550608D01*
X149387403Y-130460527D01*
X149428864Y-130360433D01*
X149450000Y-130254174D01*
X149450000Y-130145834D01*
X149428864Y-130039575D01*
X149387403Y-129939481D01*
X149327213Y-129849400D01*
X149250604Y-129772791D01*
X149160523Y-129712601D01*
X149060429Y-129671140D01*
X148954170Y-129650004D01*
X148845830Y-129650004D01*
X148739571Y-129671140D01*
X148639477Y-129712601D01*
X148583499Y-129750004D01*
X146386400Y-129750004D01*
X141582226Y-124945830D01*
X154700010Y-124945830D01*
X154700010Y-125054170D01*
X154721146Y-125160429D01*
X154762607Y-125260523D01*
X154822797Y-125350604D01*
X154899406Y-125427213D01*
X154989487Y-125487403D01*
X155089581Y-125528864D01*
X155195840Y-125550000D01*
X155304180Y-125550000D01*
X155410439Y-125528864D01*
X155510533Y-125487403D01*
X155600614Y-125427213D01*
X155677223Y-125350604D01*
X155737413Y-125260523D01*
X155778874Y-125160429D01*
X155800010Y-125054170D01*
X155800010Y-125051040D01*
X157176051Y-123675000D01*
X167848549Y-123675000D01*
X167848549Y-124100000D01*
X167854341Y-124158810D01*
X167871496Y-124215360D01*
X167899353Y-124267477D01*
X167936842Y-124313158D01*
X167982523Y-124350647D01*
X168034640Y-124378504D01*
X168091190Y-124395659D01*
X168150000Y-124401451D01*
X169850000Y-124401451D01*
X169908810Y-124395659D01*
X169965360Y-124378504D01*
X170017477Y-124350647D01*
X170063158Y-124313158D01*
X170100647Y-124267477D01*
X170128504Y-124215360D01*
X170145659Y-124158810D01*
X170151451Y-124100000D01*
X170151451Y-123728375D01*
X170277586Y-123728375D01*
X170395169Y-123965468D01*
X170556747Y-124175066D01*
X170756111Y-124349114D01*
X170985600Y-124480924D01*
X171061627Y-124512402D01*
X171265000Y-124443734D01*
X171265000Y-123525000D01*
X171815000Y-123525000D01*
X171815000Y-124443734D01*
X172018373Y-124512402D01*
X172094400Y-124480924D01*
X172323889Y-124349114D01*
X172523253Y-124175066D01*
X172684831Y-123965468D01*
X172802414Y-123728375D01*
X172736706Y-123525000D01*
X171815000Y-123525000D01*
X171265000Y-123525000D01*
X170343294Y-123525000D01*
X170277586Y-123728375D01*
X170151451Y-123728375D01*
X170151451Y-122771625D01*
X170277586Y-122771625D01*
X170343294Y-122975000D01*
X171265000Y-122975000D01*
X171265000Y-122056266D01*
X171815000Y-122056266D01*
X171815000Y-122975000D01*
X172736706Y-122975000D01*
X172802414Y-122771625D01*
X172684831Y-122534532D01*
X172523253Y-122324934D01*
X172323889Y-122150886D01*
X172094400Y-122019076D01*
X172018373Y-121987598D01*
X171815000Y-122056266D01*
X171265000Y-122056266D01*
X171061627Y-121987598D01*
X170985600Y-122019076D01*
X170756111Y-122150886D01*
X170556747Y-122324934D01*
X170395169Y-122534532D01*
X170277586Y-122771625D01*
X170151451Y-122771625D01*
X170151451Y-122400000D01*
X170145659Y-122341190D01*
X170128504Y-122284640D01*
X170100647Y-122232523D01*
X170063158Y-122186842D01*
X170017477Y-122149353D01*
X169965360Y-122121496D01*
X169908810Y-122104341D01*
X169850000Y-122098549D01*
X168150000Y-122098549D01*
X168091190Y-122104341D01*
X168034640Y-122121496D01*
X167982523Y-122149353D01*
X167936842Y-122186842D01*
X167899353Y-122232523D01*
X167871496Y-122284640D01*
X167854341Y-122341190D01*
X167848549Y-122400000D01*
X167848549Y-122825000D01*
X157020877Y-122825000D01*
X157000010Y-122822945D01*
X156979143Y-122825000D01*
X156979136Y-122825000D01*
X156916696Y-122831150D01*
X156836582Y-122855452D01*
X156810865Y-122869199D01*
X156762750Y-122894916D01*
X156698036Y-122948026D01*
X156684731Y-122964238D01*
X155198970Y-124450000D01*
X155195840Y-124450000D01*
X155089581Y-124471136D01*
X154989487Y-124512597D01*
X154899406Y-124572787D01*
X154822797Y-124649396D01*
X154762607Y-124739477D01*
X154721146Y-124839571D01*
X154700010Y-124945830D01*
X141582226Y-124945830D01*
X140150000Y-123513605D01*
X140150000Y-121816501D01*
X140187403Y-121760523D01*
X140228864Y-121660429D01*
X140250000Y-121554170D01*
X140250000Y-121445830D01*
X140228864Y-121339571D01*
X140187403Y-121239477D01*
X140127213Y-121149396D01*
X140050604Y-121072787D01*
X139960523Y-121012597D01*
X139860429Y-120971136D01*
X139754170Y-120950000D01*
X139645830Y-120950000D01*
X139539571Y-120971136D01*
X139439477Y-121012597D01*
X139349396Y-121072787D01*
X139272787Y-121149396D01*
X139212597Y-121239477D01*
X139171136Y-121339571D01*
X139150000Y-121445830D01*
X138250000Y-121445830D01*
X138250000Y-119886395D01*
X138959660Y-119176735D01*
X167850000Y-119176735D01*
X167850000Y-119403265D01*
X167894194Y-119625443D01*
X167980884Y-119834729D01*
X168106737Y-120023082D01*
X168266918Y-120183263D01*
X168455271Y-120309116D01*
X168664557Y-120395806D01*
X168886735Y-120440000D01*
X169113265Y-120440000D01*
X169335443Y-120395806D01*
X169544729Y-120309116D01*
X169733082Y-120183263D01*
X169893263Y-120023082D01*
X170019116Y-119834729D01*
X170105806Y-119625443D01*
X170150000Y-119403265D01*
X170150000Y-119176735D01*
X170105806Y-118954557D01*
X170019116Y-118745271D01*
X169893263Y-118556918D01*
X169733082Y-118396737D01*
X169544729Y-118270884D01*
X169335443Y-118184194D01*
X169113265Y-118140000D01*
X168886735Y-118140000D01*
X168664557Y-118184194D01*
X168455271Y-118270884D01*
X168266918Y-118396737D01*
X168106737Y-118556918D01*
X167980884Y-118745271D01*
X167894194Y-118954557D01*
X167850000Y-119176735D01*
X138959660Y-119176735D01*
X139894398Y-118241998D01*
X139960429Y-118228864D01*
X140060523Y-118187403D01*
X140150604Y-118127213D01*
X140227213Y-118050604D01*
X140287403Y-117960523D01*
X140328864Y-117860429D01*
X140350000Y-117754170D01*
X140350000Y-117645830D01*
X140328864Y-117539571D01*
X140287403Y-117439477D01*
X140227213Y-117349396D01*
X140150604Y-117272787D01*
X140060523Y-117212597D01*
X139960429Y-117171136D01*
X139854170Y-117150000D01*
X139745830Y-117150000D01*
X139639571Y-117171136D01*
X139539477Y-117212597D01*
X139449396Y-117272787D01*
X139372787Y-117349396D01*
X139312597Y-117439477D01*
X139271136Y-117539571D01*
X139258002Y-117605602D01*
X137497434Y-119366171D01*
X137480263Y-119380263D01*
X137466172Y-119397433D01*
X137424029Y-119448784D01*
X137404357Y-119485588D01*
X137382243Y-119526960D01*
X137356511Y-119611786D01*
X137350000Y-119677896D01*
X137350000Y-119677906D01*
X137347824Y-119700000D01*
X134936387Y-119700000D01*
X138736387Y-115900000D01*
X167848549Y-115900000D01*
X167848549Y-117600000D01*
X167854341Y-117658810D01*
X167871496Y-117715360D01*
X167899353Y-117767477D01*
X167936842Y-117813158D01*
X167982523Y-117850647D01*
X168034640Y-117878504D01*
X168091190Y-117895659D01*
X168150000Y-117901451D01*
X169850000Y-117901451D01*
X169908810Y-117895659D01*
X169965360Y-117878504D01*
X170017477Y-117850647D01*
X170063158Y-117813158D01*
X170100647Y-117767477D01*
X170128504Y-117715360D01*
X170145659Y-117658810D01*
X170151451Y-117600000D01*
X170151451Y-115900000D01*
X170145659Y-115841190D01*
X170128504Y-115784640D01*
X170100647Y-115732523D01*
X170063158Y-115686842D01*
X170017477Y-115649353D01*
X169965360Y-115621496D01*
X169908810Y-115604341D01*
X169850000Y-115598549D01*
X168150000Y-115598549D01*
X168091190Y-115604341D01*
X168034640Y-115621496D01*
X167982523Y-115649353D01*
X167936842Y-115686842D01*
X167899353Y-115732523D01*
X167871496Y-115784640D01*
X167854341Y-115841190D01*
X167848549Y-115900000D01*
X138736387Y-115900000D01*
X142186388Y-112450000D01*
X155063605Y-112450000D01*
X156458002Y-113844398D01*
X156471136Y-113910429D01*
X156512597Y-114010523D01*
X156572787Y-114100604D01*
X156649396Y-114177213D01*
X156739477Y-114237403D01*
X156839571Y-114278864D01*
X156945830Y-114300000D01*
X157054170Y-114300000D01*
X157160429Y-114278864D01*
X157260523Y-114237403D01*
X157350604Y-114177213D01*
X157427213Y-114100604D01*
X157487403Y-114010523D01*
X157528864Y-113910429D01*
X157550000Y-113804170D01*
X157550000Y-113695830D01*
X157528864Y-113589571D01*
X157487403Y-113489477D01*
X157427213Y-113399396D01*
X157350604Y-113322787D01*
X157260523Y-113262597D01*
X157160429Y-113221136D01*
X157094398Y-113208002D01*
X155583829Y-111697434D01*
X155569737Y-111680263D01*
X155501216Y-111624029D01*
X155423041Y-111582243D01*
X155338215Y-111556511D01*
X155272105Y-111550000D01*
X155272094Y-111550000D01*
X155250000Y-111547824D01*
X155227906Y-111550000D01*
X142022086Y-111550000D01*
X141999992Y-111547824D01*
X141977897Y-111550000D01*
X141977887Y-111550000D01*
X141911777Y-111556511D01*
X141839277Y-111578504D01*
X141826951Y-111582243D01*
X141748775Y-111624029D01*
X141697424Y-111666172D01*
X141697420Y-111666176D01*
X141680255Y-111680263D01*
X141666168Y-111697428D01*
X130905604Y-122457993D01*
X130839571Y-122471128D01*
X130739477Y-122512589D01*
X130649396Y-122572779D01*
X130572787Y-122649388D01*
X130512597Y-122739469D01*
X130471136Y-122839563D01*
X130450000Y-122945822D01*
X117092585Y-122945822D01*
X117098367Y-118309357D01*
X117734366Y-118309357D01*
X117734366Y-118690643D01*
X117808751Y-119064604D01*
X117954663Y-119416867D01*
X118166495Y-119733895D01*
X118436105Y-120003505D01*
X118753133Y-120215337D01*
X119105396Y-120361249D01*
X119479357Y-120435634D01*
X119860643Y-120435634D01*
X120234604Y-120361249D01*
X120586867Y-120215337D01*
X120903895Y-120003505D01*
X121173505Y-119733895D01*
X121385337Y-119416867D01*
X121531249Y-119064604D01*
X121605634Y-118690643D01*
X121605634Y-118309357D01*
X121539392Y-117976330D01*
X126419500Y-117976330D01*
X126419500Y-118084670D01*
X126440636Y-118190929D01*
X126482097Y-118291023D01*
X126542287Y-118381104D01*
X126618896Y-118457713D01*
X126708977Y-118517903D01*
X126809071Y-118559364D01*
X126875103Y-118572498D01*
X127005176Y-118702571D01*
X127019263Y-118719737D01*
X127036428Y-118733824D01*
X127036432Y-118733828D01*
X127087783Y-118775971D01*
X127165959Y-118817757D01*
X127250785Y-118843489D01*
X127316895Y-118850000D01*
X127316905Y-118850000D01*
X127339000Y-118852176D01*
X127361094Y-118850000D01*
X133113605Y-118850000D01*
X131653795Y-120309810D01*
X131560429Y-120271136D01*
X131454170Y-120250000D01*
X131345830Y-120250000D01*
X131239571Y-120271136D01*
X131139477Y-120312597D01*
X131049396Y-120372787D01*
X130972787Y-120449396D01*
X130912597Y-120539477D01*
X130871136Y-120639571D01*
X130850000Y-120745830D01*
X130850000Y-120854170D01*
X130871136Y-120960429D01*
X130912597Y-121060523D01*
X130972787Y-121150604D01*
X131049396Y-121227213D01*
X131139477Y-121287403D01*
X131239571Y-121328864D01*
X131345830Y-121350000D01*
X131454170Y-121350000D01*
X131560429Y-121328864D01*
X131660523Y-121287403D01*
X131716501Y-121250000D01*
X131777906Y-121250000D01*
X131800000Y-121252176D01*
X131822094Y-121250000D01*
X131822105Y-121250000D01*
X131888215Y-121243489D01*
X131973041Y-121217757D01*
X132051216Y-121175971D01*
X132119737Y-121119737D01*
X132133829Y-121102566D01*
X142751396Y-110485000D01*
X156518499Y-110485000D01*
X156574477Y-110522403D01*
X156674571Y-110563864D01*
X156780830Y-110585000D01*
X156889170Y-110585000D01*
X156995429Y-110563864D01*
X157095523Y-110522403D01*
X157185604Y-110462213D01*
X157262213Y-110385604D01*
X157322403Y-110295523D01*
X157363864Y-110195429D01*
X157385000Y-110089170D01*
X157385000Y-109980830D01*
X157363864Y-109874571D01*
X157322403Y-109774477D01*
X157262213Y-109684396D01*
X157185604Y-109607787D01*
X157095523Y-109547597D01*
X156995429Y-109506136D01*
X156889170Y-109485000D01*
X156780830Y-109485000D01*
X156674571Y-109506136D01*
X156574477Y-109547597D01*
X156518499Y-109585000D01*
X142587094Y-109585000D01*
X142565000Y-109582824D01*
X142542905Y-109585000D01*
X142542895Y-109585000D01*
X142476785Y-109591511D01*
X142391959Y-109617243D01*
X142313783Y-109659029D01*
X142262432Y-109701172D01*
X142262428Y-109701176D01*
X142245263Y-109715263D01*
X142231176Y-109732428D01*
X134207230Y-117756374D01*
X134152941Y-117675124D01*
X134076332Y-117598515D01*
X133986251Y-117538325D01*
X133886157Y-117496864D01*
X133779898Y-117475728D01*
X133671558Y-117475728D01*
X133565299Y-117496864D01*
X133465205Y-117538325D01*
X133375124Y-117598515D01*
X133298515Y-117675124D01*
X133238325Y-117765205D01*
X133196864Y-117865299D01*
X133183730Y-117931331D01*
X133165061Y-117950000D01*
X127525396Y-117950000D01*
X127511498Y-117936103D01*
X127498364Y-117870071D01*
X127456903Y-117769977D01*
X127396713Y-117679896D01*
X127320104Y-117603287D01*
X127230023Y-117543097D01*
X127129929Y-117501636D01*
X127023670Y-117480500D01*
X126915330Y-117480500D01*
X126809071Y-117501636D01*
X126708977Y-117543097D01*
X126618896Y-117603287D01*
X126542287Y-117679896D01*
X126482097Y-117769977D01*
X126440636Y-117870071D01*
X126419500Y-117976330D01*
X121539392Y-117976330D01*
X121531249Y-117935396D01*
X121385337Y-117583133D01*
X121173505Y-117266105D01*
X120903895Y-116996495D01*
X120586867Y-116784663D01*
X120234604Y-116638751D01*
X119860643Y-116564366D01*
X119479357Y-116564366D01*
X119105396Y-116638751D01*
X118753133Y-116784663D01*
X118436105Y-116996495D01*
X118166495Y-117266105D01*
X117954663Y-117583133D01*
X117808751Y-117935396D01*
X117734366Y-118309357D01*
X117098367Y-118309357D01*
X117100000Y-117000125D01*
X117098103Y-116980613D01*
X117092436Y-116961847D01*
X117083216Y-116944547D01*
X117070799Y-116929378D01*
X117055661Y-116916922D01*
X117038384Y-116907660D01*
X117019631Y-116901946D01*
X117000000Y-116900000D01*
X112374751Y-116900000D01*
X112370627Y-115250000D01*
X116247581Y-115250000D01*
X116257235Y-115348017D01*
X116285825Y-115442267D01*
X116332254Y-115529129D01*
X116394736Y-115605264D01*
X116470871Y-115667746D01*
X116557733Y-115714175D01*
X116651983Y-115742765D01*
X116750000Y-115752419D01*
X117600000Y-115750000D01*
X117725000Y-115625000D01*
X117725000Y-114275000D01*
X118275000Y-114275000D01*
X118275000Y-115625000D01*
X118400000Y-115750000D01*
X119250000Y-115752419D01*
X119348017Y-115742765D01*
X119442267Y-115714175D01*
X119529129Y-115667746D01*
X119605264Y-115605264D01*
X119667746Y-115529129D01*
X119714175Y-115442267D01*
X119742765Y-115348017D01*
X119752419Y-115250000D01*
X119750000Y-114400000D01*
X119625000Y-114275000D01*
X118275000Y-114275000D01*
X117725000Y-114275000D01*
X116375000Y-114275000D01*
X116250000Y-114400000D01*
X116247581Y-115250000D01*
X112370627Y-115250000D01*
X112368562Y-114424227D01*
X112964682Y-114424227D01*
X113062770Y-114569653D01*
X113279850Y-114634399D01*
X113505391Y-114655551D01*
X113730725Y-114632296D01*
X113937230Y-114569653D01*
X114035318Y-114424227D01*
X113500000Y-113888909D01*
X112964682Y-114424227D01*
X112368562Y-114424227D01*
X112366806Y-113722023D01*
X112367704Y-113730725D01*
X112430347Y-113937230D01*
X112575773Y-114035318D01*
X113111091Y-113500000D01*
X113888909Y-113500000D01*
X114424227Y-114035318D01*
X114569653Y-113937230D01*
X114634399Y-113720150D01*
X114655551Y-113494609D01*
X114632296Y-113269275D01*
X114569653Y-113062770D01*
X114424227Y-112964682D01*
X113888909Y-113500000D01*
X113111091Y-113500000D01*
X112575773Y-112964682D01*
X112430347Y-113062770D01*
X112365700Y-113279519D01*
X112354465Y-108785836D01*
X112599990Y-109031361D01*
X112599990Y-109360699D01*
X112596120Y-109399990D01*
X112599990Y-109439281D01*
X112599990Y-109439282D01*
X112611566Y-109556816D01*
X112640909Y-109653546D01*
X112657311Y-109707617D01*
X112700001Y-109787484D01*
X112700001Y-110398549D01*
X112700000Y-110398549D01*
X112641190Y-110404341D01*
X112584640Y-110421496D01*
X112532523Y-110449353D01*
X112486842Y-110486842D01*
X112449353Y-110532523D01*
X112421496Y-110584640D01*
X112404341Y-110641190D01*
X112398549Y-110700000D01*
X112398549Y-112300000D01*
X112404341Y-112358810D01*
X112421496Y-112415360D01*
X112449353Y-112467477D01*
X112486842Y-112513158D01*
X112532523Y-112550647D01*
X112584640Y-112578504D01*
X112641190Y-112595659D01*
X112700000Y-112601451D01*
X112990360Y-112601451D01*
X113500000Y-113111091D01*
X113861091Y-112750000D01*
X116247581Y-112750000D01*
X116250000Y-113600000D01*
X116375000Y-113725000D01*
X117725000Y-113725000D01*
X117725000Y-112375000D01*
X118275000Y-112375000D01*
X118275000Y-113725000D01*
X119625000Y-113725000D01*
X119750000Y-113600000D01*
X119750640Y-113375000D01*
X128448549Y-113375000D01*
X128448549Y-114625000D01*
X128466350Y-114805742D01*
X128519071Y-114979537D01*
X128604684Y-115139709D01*
X128719900Y-115280100D01*
X128860291Y-115395316D01*
X129020463Y-115480929D01*
X129194258Y-115533650D01*
X129375000Y-115551451D01*
X130588707Y-115551451D01*
X130570079Y-115570079D01*
X130494466Y-115662213D01*
X130438281Y-115767328D01*
X130403683Y-115881385D01*
X130392000Y-116000000D01*
X130392000Y-116750000D01*
X130403683Y-116868615D01*
X130438281Y-116982672D01*
X130494466Y-117087787D01*
X130570079Y-117179921D01*
X130820079Y-117429921D01*
X130912213Y-117505534D01*
X131017328Y-117561719D01*
X131131385Y-117596317D01*
X131250000Y-117608000D01*
X132750000Y-117608000D01*
X132868615Y-117596317D01*
X132982672Y-117561719D01*
X133087787Y-117505534D01*
X133179921Y-117429921D01*
X134429921Y-116179921D01*
X134505534Y-116087787D01*
X134561719Y-115982672D01*
X134596317Y-115868615D01*
X134608000Y-115750000D01*
X134608000Y-115250000D01*
X134596317Y-115131385D01*
X134561719Y-115017328D01*
X134505534Y-114912213D01*
X134429921Y-114820079D01*
X134019358Y-114409516D01*
X134026451Y-114337500D01*
X134026451Y-113751366D01*
X138927818Y-108850000D01*
X158072183Y-108850000D01*
X163380195Y-114158013D01*
X163380201Y-114158018D01*
X163399396Y-114177213D01*
X163421968Y-114192295D01*
X163442958Y-114209521D01*
X163466903Y-114222320D01*
X163489477Y-114237403D01*
X163514564Y-114247795D01*
X163538505Y-114260591D01*
X163564477Y-114268470D01*
X163589571Y-114278864D01*
X163616210Y-114284163D01*
X163642181Y-114292041D01*
X163669191Y-114294701D01*
X163695830Y-114300000D01*
X163722992Y-114300000D01*
X163750000Y-114302660D01*
X163777008Y-114300000D01*
X163804170Y-114300000D01*
X163830810Y-114294701D01*
X163857818Y-114292041D01*
X163883787Y-114284163D01*
X163910429Y-114278864D01*
X163935525Y-114268469D01*
X163961494Y-114260591D01*
X163985432Y-114247796D01*
X164010523Y-114237403D01*
X164033098Y-114222319D01*
X164057042Y-114209521D01*
X164078030Y-114192297D01*
X164100604Y-114177213D01*
X164119804Y-114158013D01*
X164140790Y-114140790D01*
X164158013Y-114119804D01*
X164177213Y-114100604D01*
X164192297Y-114078030D01*
X164209521Y-114057042D01*
X164222319Y-114033098D01*
X164237403Y-114010523D01*
X164247796Y-113985432D01*
X164260591Y-113961494D01*
X164268469Y-113935525D01*
X164278864Y-113910429D01*
X164284163Y-113883787D01*
X164292041Y-113857818D01*
X164294701Y-113830810D01*
X164300000Y-113804170D01*
X164300000Y-113777008D01*
X164302660Y-113750000D01*
X164300000Y-113722992D01*
X164300000Y-113695830D01*
X164294701Y-113669191D01*
X164292041Y-113642181D01*
X164284163Y-113616210D01*
X164278864Y-113589571D01*
X164268470Y-113564477D01*
X164260591Y-113538505D01*
X164247795Y-113514564D01*
X164237403Y-113489477D01*
X164222320Y-113466903D01*
X164209521Y-113442958D01*
X164192295Y-113421968D01*
X164177213Y-113399396D01*
X164158018Y-113380201D01*
X164158013Y-113380195D01*
X160476191Y-109698373D01*
X162567598Y-109698373D01*
X162599076Y-109774400D01*
X162730886Y-110003889D01*
X162904934Y-110203253D01*
X163114532Y-110364831D01*
X163351625Y-110482414D01*
X163555000Y-110416706D01*
X163555000Y-109495000D01*
X164105000Y-109495000D01*
X164105000Y-110416706D01*
X164308375Y-110482414D01*
X164545468Y-110364831D01*
X164755066Y-110203253D01*
X164929114Y-110003889D01*
X165060924Y-109774400D01*
X165092402Y-109698373D01*
X165023734Y-109495000D01*
X164105000Y-109495000D01*
X163555000Y-109495000D01*
X162636266Y-109495000D01*
X162567598Y-109698373D01*
X160476191Y-109698373D01*
X159519445Y-108741627D01*
X162567598Y-108741627D01*
X162636266Y-108945000D01*
X163555000Y-108945000D01*
X163555000Y-108023294D01*
X164105000Y-108023294D01*
X164105000Y-108945000D01*
X165023734Y-108945000D01*
X165092402Y-108741627D01*
X165060924Y-108665600D01*
X164929114Y-108436111D01*
X164755066Y-108236747D01*
X164545468Y-108075169D01*
X164308375Y-107957586D01*
X164105000Y-108023294D01*
X163555000Y-108023294D01*
X163351625Y-107957586D01*
X163114532Y-108075169D01*
X162904934Y-108236747D01*
X162730886Y-108436111D01*
X162599076Y-108665600D01*
X162567598Y-108741627D01*
X159519445Y-108741627D01*
X158708013Y-107930196D01*
X158690790Y-107909210D01*
X158607042Y-107840479D01*
X158511494Y-107789408D01*
X158407819Y-107757958D01*
X158327018Y-107750000D01*
X158327008Y-107750000D01*
X158300000Y-107747340D01*
X158272992Y-107750000D01*
X138727007Y-107750000D01*
X138699999Y-107747340D01*
X138672991Y-107750000D01*
X138672982Y-107750000D01*
X138592181Y-107757958D01*
X138488506Y-107789408D01*
X138392958Y-107840479D01*
X138392956Y-107840480D01*
X138392957Y-107840480D01*
X138330195Y-107891987D01*
X138330190Y-107891992D01*
X138309210Y-107909210D01*
X138291992Y-107930190D01*
X134022183Y-112200000D01*
X133275000Y-112200000D01*
X133275000Y-112887500D01*
X133304841Y-112917341D01*
X133111134Y-113111049D01*
X132525000Y-113111049D01*
X132417417Y-113121645D01*
X132313969Y-113153026D01*
X132226086Y-113200000D01*
X131534216Y-113200000D01*
X131533650Y-113194258D01*
X131480929Y-113020463D01*
X131395316Y-112860291D01*
X131280100Y-112719900D01*
X131139709Y-112604684D01*
X130979537Y-112519071D01*
X130957876Y-112512500D01*
X131772581Y-112512500D01*
X131782235Y-112610517D01*
X131810825Y-112704767D01*
X131857254Y-112791629D01*
X131919736Y-112867764D01*
X131995871Y-112930246D01*
X132082733Y-112976675D01*
X132176983Y-113005265D01*
X132275000Y-113014919D01*
X132600000Y-113012500D01*
X132725000Y-112887500D01*
X132725000Y-112200000D01*
X131900000Y-112200000D01*
X131775000Y-112325000D01*
X131772581Y-112512500D01*
X130957876Y-112512500D01*
X130805742Y-112466350D01*
X130625000Y-112448549D01*
X129375000Y-112448549D01*
X129194258Y-112466350D01*
X129020463Y-112519071D01*
X128860291Y-112604684D01*
X128719900Y-112719900D01*
X128604684Y-112860291D01*
X128519071Y-113020463D01*
X128466350Y-113194258D01*
X128448549Y-113375000D01*
X119750640Y-113375000D01*
X119752419Y-112750000D01*
X119742765Y-112651983D01*
X119714175Y-112557733D01*
X119667746Y-112470871D01*
X119605264Y-112394736D01*
X119529129Y-112332254D01*
X119442267Y-112285825D01*
X119348017Y-112257235D01*
X119250000Y-112247581D01*
X118400000Y-112250000D01*
X118275000Y-112375000D01*
X117725000Y-112375000D01*
X117600000Y-112250000D01*
X116750000Y-112247581D01*
X116651983Y-112257235D01*
X116557733Y-112285825D01*
X116470871Y-112332254D01*
X116394736Y-112394736D01*
X116332254Y-112470871D01*
X116285825Y-112557733D01*
X116257235Y-112651983D01*
X116247581Y-112750000D01*
X113861091Y-112750000D01*
X114009640Y-112601451D01*
X114300000Y-112601451D01*
X114358810Y-112595659D01*
X114415360Y-112578504D01*
X114467477Y-112550647D01*
X114513158Y-112513158D01*
X114550647Y-112467477D01*
X114578504Y-112415360D01*
X114595659Y-112358810D01*
X114601451Y-112300000D01*
X114601451Y-111337500D01*
X131772581Y-111337500D01*
X131775000Y-111525000D01*
X131900000Y-111650000D01*
X132725000Y-111650000D01*
X132725000Y-110962500D01*
X133275000Y-110962500D01*
X133275000Y-111650000D01*
X134100000Y-111650000D01*
X134225000Y-111525000D01*
X134227419Y-111337500D01*
X134217765Y-111239483D01*
X134189175Y-111145233D01*
X134142746Y-111058371D01*
X134080264Y-110982236D01*
X134004129Y-110919754D01*
X133917267Y-110873325D01*
X133823017Y-110844735D01*
X133725000Y-110835081D01*
X133400000Y-110837500D01*
X133275000Y-110962500D01*
X132725000Y-110962500D01*
X132600000Y-110837500D01*
X132275000Y-110835081D01*
X132176983Y-110844735D01*
X132082733Y-110873325D01*
X131995871Y-110919754D01*
X131919736Y-110982236D01*
X131857254Y-111058371D01*
X131810825Y-111145233D01*
X131782235Y-111239483D01*
X131772581Y-111337500D01*
X114601451Y-111337500D01*
X114601451Y-110700000D01*
X114595659Y-110641190D01*
X114578504Y-110584640D01*
X114550647Y-110532523D01*
X114513158Y-110486842D01*
X114467477Y-110449353D01*
X114415360Y-110421496D01*
X114358810Y-110404341D01*
X114300000Y-110398549D01*
X114300000Y-109539282D01*
X114303869Y-109499999D01*
X114300000Y-109460716D01*
X114300000Y-109460707D01*
X114288424Y-109343173D01*
X114242679Y-109192372D01*
X114199990Y-109112507D01*
X114199990Y-108739281D01*
X114203860Y-108699990D01*
X114199990Y-108660697D01*
X114188414Y-108543163D01*
X114142669Y-108392362D01*
X114093300Y-108300000D01*
X114068383Y-108253383D01*
X113993459Y-108162088D01*
X113968412Y-108131568D01*
X113937892Y-108106521D01*
X113600000Y-107768630D01*
X113600000Y-107312060D01*
X113607235Y-107385517D01*
X113635825Y-107479767D01*
X113682254Y-107566629D01*
X113744736Y-107642764D01*
X113820871Y-107705246D01*
X113907733Y-107751675D01*
X114001983Y-107780265D01*
X114100000Y-107789919D01*
X114600000Y-107787500D01*
X114725000Y-107662500D01*
X114725000Y-106900000D01*
X115275000Y-106900000D01*
X115275000Y-107662500D01*
X115400000Y-107787500D01*
X115900000Y-107789919D01*
X115998017Y-107780265D01*
X116092267Y-107751675D01*
X116179129Y-107705246D01*
X116255264Y-107642764D01*
X116317746Y-107566629D01*
X116364175Y-107479767D01*
X116392765Y-107385517D01*
X116402419Y-107287500D01*
X116400000Y-107025000D01*
X116275000Y-106900000D01*
X115275000Y-106900000D01*
X114725000Y-106900000D01*
X114705000Y-106900000D01*
X114705000Y-106566735D01*
X162680000Y-106566735D01*
X162680000Y-106793265D01*
X162724194Y-107015443D01*
X162810884Y-107224729D01*
X162936737Y-107413082D01*
X163096918Y-107573263D01*
X163285271Y-107699116D01*
X163494557Y-107785806D01*
X163716735Y-107830000D01*
X163943265Y-107830000D01*
X164165443Y-107785806D01*
X164374729Y-107699116D01*
X164563082Y-107573263D01*
X164723263Y-107413082D01*
X164849116Y-107224729D01*
X164935806Y-107015443D01*
X164980000Y-106793265D01*
X164980000Y-106566735D01*
X164935806Y-106344557D01*
X164849116Y-106135271D01*
X164723263Y-105946918D01*
X164563082Y-105786737D01*
X164374729Y-105660884D01*
X164165443Y-105574194D01*
X163943265Y-105530000D01*
X163716735Y-105530000D01*
X163494557Y-105574194D01*
X163285271Y-105660884D01*
X163096918Y-105786737D01*
X162936737Y-105946918D01*
X162810884Y-106135271D01*
X162724194Y-106344557D01*
X162680000Y-106566735D01*
X114705000Y-106566735D01*
X114705000Y-106350000D01*
X114725000Y-106350000D01*
X114725000Y-105587500D01*
X115275000Y-105587500D01*
X115275000Y-106350000D01*
X116275000Y-106350000D01*
X116400000Y-106225000D01*
X116402419Y-105962500D01*
X116392765Y-105864483D01*
X116364175Y-105770233D01*
X116317746Y-105683371D01*
X116255264Y-105607236D01*
X116179129Y-105544754D01*
X116092267Y-105498325D01*
X115998017Y-105469735D01*
X115900000Y-105460081D01*
X115400000Y-105462500D01*
X115275000Y-105587500D01*
X114725000Y-105587500D01*
X114600000Y-105462500D01*
X114100000Y-105460081D01*
X114001983Y-105469735D01*
X113907733Y-105498325D01*
X113820871Y-105544754D01*
X113744736Y-105607236D01*
X113682254Y-105683371D01*
X113635825Y-105770233D01*
X113607235Y-105864483D01*
X113600000Y-105937940D01*
X113600000Y-104531370D01*
X113831371Y-104300000D01*
X113958067Y-104300000D01*
X113960065Y-104302435D01*
X114043630Y-104371015D01*
X114138968Y-104421974D01*
X114242416Y-104453355D01*
X114349999Y-104463951D01*
X115650001Y-104463951D01*
X115757584Y-104453355D01*
X115861032Y-104421974D01*
X115956370Y-104371015D01*
X116039935Y-104302435D01*
X116041933Y-104300000D01*
X116744148Y-104300000D01*
X116860291Y-104395316D01*
X117020463Y-104480929D01*
X117194258Y-104533650D01*
X117375000Y-104551451D01*
X118625000Y-104551451D01*
X118805742Y-104533650D01*
X118979537Y-104480929D01*
X119139709Y-104395316D01*
X119280100Y-104280100D01*
X119395316Y-104139709D01*
X119480929Y-103979537D01*
X119533650Y-103805742D01*
X119551451Y-103625000D01*
X119551451Y-102375000D01*
X128448549Y-102375000D01*
X128448549Y-103625000D01*
X128466350Y-103805742D01*
X128519071Y-103979537D01*
X128604684Y-104139709D01*
X128719900Y-104280100D01*
X128860291Y-104395316D01*
X129020463Y-104480929D01*
X129194258Y-104533650D01*
X129375000Y-104551451D01*
X130625000Y-104551451D01*
X130805742Y-104533650D01*
X130979537Y-104480929D01*
X131139709Y-104395316D01*
X131280100Y-104280100D01*
X131395316Y-104139709D01*
X131480929Y-103979537D01*
X131533650Y-103805742D01*
X131551451Y-103625000D01*
X131551451Y-102375000D01*
X131533650Y-102194258D01*
X131480929Y-102020463D01*
X131395316Y-101860291D01*
X131280100Y-101719900D01*
X131139709Y-101604684D01*
X130979537Y-101519071D01*
X130805742Y-101466350D01*
X130625000Y-101448549D01*
X129375000Y-101448549D01*
X129194258Y-101466350D01*
X129020463Y-101519071D01*
X128860291Y-101604684D01*
X128719900Y-101719900D01*
X128604684Y-101860291D01*
X128519071Y-102020463D01*
X128466350Y-102194258D01*
X128448549Y-102375000D01*
X119551451Y-102375000D01*
X119533650Y-102194258D01*
X119480929Y-102020463D01*
X119395316Y-101860291D01*
X119280100Y-101719900D01*
X119139709Y-101604684D01*
X118979537Y-101519071D01*
X118805742Y-101466350D01*
X118625000Y-101448549D01*
X117375000Y-101448549D01*
X117194258Y-101466350D01*
X117020463Y-101519071D01*
X116860291Y-101604684D01*
X116719900Y-101719900D01*
X116604684Y-101860291D01*
X116519071Y-102020463D01*
X116466350Y-102194258D01*
X116448549Y-102375000D01*
X116448549Y-102700000D01*
X116041933Y-102700000D01*
X116039935Y-102697565D01*
X115956370Y-102628985D01*
X115861032Y-102578026D01*
X115757584Y-102546645D01*
X115650001Y-102536049D01*
X114349999Y-102536049D01*
X114242416Y-102546645D01*
X114138968Y-102578026D01*
X114043630Y-102628985D01*
X113960065Y-102697565D01*
X113958067Y-102700000D01*
X113539282Y-102700000D01*
X113499999Y-102696131D01*
X113460716Y-102700000D01*
X113460707Y-102700000D01*
X113343173Y-102711576D01*
X113192372Y-102757321D01*
X113101803Y-102805731D01*
X113053393Y-102831607D01*
X112998730Y-102876468D01*
X112931578Y-102931578D01*
X112906531Y-102962098D01*
X112262098Y-103606532D01*
X112231579Y-103631578D01*
X112206532Y-103662098D01*
X112206531Y-103662099D01*
X112131607Y-103753394D01*
X112057321Y-103892373D01*
X112011577Y-104043173D01*
X111996130Y-104200000D01*
X112000001Y-104239300D01*
X112000000Y-106900000D01*
X102500000Y-106900000D01*
X102480491Y-106901921D01*
X102461732Y-106907612D01*
X102444443Y-106916853D01*
X102429289Y-106929289D01*
X102416853Y-106944443D01*
X102407612Y-106961732D01*
X102401921Y-106980491D01*
X102400000Y-107000000D01*
X102400000Y-116900000D01*
X101100000Y-116900000D01*
X101100000Y-103312866D01*
X103100000Y-103312866D01*
X103100000Y-103687134D01*
X103173016Y-104054209D01*
X103316242Y-104399987D01*
X103524174Y-104711179D01*
X103788821Y-104975826D01*
X104100013Y-105183758D01*
X104445791Y-105326984D01*
X104812866Y-105400000D01*
X105187134Y-105400000D01*
X105554209Y-105326984D01*
X105899987Y-105183758D01*
X106211179Y-104975826D01*
X106475826Y-104711179D01*
X106683758Y-104399987D01*
X106826984Y-104054209D01*
X106900000Y-103687134D01*
X106900000Y-103312866D01*
X106826984Y-102945791D01*
X106683758Y-102600013D01*
X106475826Y-102288821D01*
X106211179Y-102024174D01*
X105899987Y-101816242D01*
X105554209Y-101673016D01*
X105187134Y-101600000D01*
X104812866Y-101600000D01*
X104445791Y-101673016D01*
X104100013Y-101816242D01*
X103788821Y-102024174D01*
X103524174Y-102288821D01*
X103316242Y-102600013D01*
X103173016Y-102945791D01*
X103100000Y-103312866D01*
X101100000Y-103312866D01*
X101100000Y-101100000D01*
X132400000Y-101100000D01*
X132400000Y-106000000D01*
G37*
%TD.AperFunction*%
%TD*%
D31*
%TO.N,GND*%
X115900000Y-131958578D02*
X112458578Y-135400000D01*
X103291422Y-135400000D01*
X102100000Y-134208578D01*
X102100000Y-129041422D01*
X102291422Y-128850000D01*
X103958578Y-128850000D01*
X104150000Y-129041422D01*
X104150000Y-131750000D01*
X104151921Y-131769509D01*
X104157612Y-131788268D01*
X104166853Y-131805557D01*
X104179289Y-131820711D01*
X104429289Y-132070711D01*
X104444443Y-132083147D01*
X104461732Y-132092388D01*
X104480491Y-132098079D01*
X104500000Y-132100000D01*
X110250000Y-132100000D01*
X110269509Y-132098079D01*
X110288268Y-132092388D01*
X110305557Y-132083147D01*
X110320711Y-132070711D01*
X112070711Y-130320711D01*
X112083147Y-130305557D01*
X112092388Y-130288268D01*
X112098079Y-130269509D01*
X112100000Y-130250000D01*
X112100000Y-122850000D01*
X115900000Y-122850000D01*
X115900000Y-131958578D01*
%TA.AperFunction,Conductor*%
D30*
G36*
X115900000Y-131958578D02*
G01*
X112458578Y-135400000D01*
X103291422Y-135400000D01*
X102100000Y-134208578D01*
X102100000Y-129041422D01*
X102291422Y-128850000D01*
X103958578Y-128850000D01*
X104150000Y-129041422D01*
X104150000Y-131750000D01*
X104151921Y-131769509D01*
X104157612Y-131788268D01*
X104166853Y-131805557D01*
X104179289Y-131820711D01*
X104429289Y-132070711D01*
X104444443Y-132083147D01*
X104461732Y-132092388D01*
X104480491Y-132098079D01*
X104500000Y-132100000D01*
X110250000Y-132100000D01*
X110269509Y-132098079D01*
X110288268Y-132092388D01*
X110305557Y-132083147D01*
X110320711Y-132070711D01*
X112070711Y-130320711D01*
X112083147Y-130305557D01*
X112092388Y-130288268D01*
X112098079Y-130269509D01*
X112100000Y-130250000D01*
X112100000Y-122850000D01*
X115900000Y-122850000D01*
X115900000Y-131958578D01*
G37*
%TD.AperFunction*%
%TD*%
M02*
