%TF.GenerationSoftware,KiCad,Pcbnew,(5.1.10)-1*%
%TF.CreationDate,2021-10-19T15:37:20+02:00*%
%TF.ProjectId,OpenHeat,4f70656e-4865-4617-942e-6b696361645f,1.0*%
%TF.SameCoordinates,Original*%
%TF.FileFunction,Soldermask,Bot*%
%TF.FilePolarity,Negative*%
%FSLAX46Y46*%
G04 Gerber Fmt 4.6, Leading zero omitted, Abs format (unit mm)*
G04 Created by KiCad (PCBNEW (5.1.10)-1) date 2021-10-19 15:37:20*
%MOMM*%
%LPD*%
G01*
G04 APERTURE LIST*
%ADD10O,1.905000X2.000000*%
%ADD11R,1.905000X2.000000*%
%ADD12O,3.500000X3.500000*%
%ADD13C,3.200000*%
%ADD14R,2.000000X2.000000*%
%ADD15C,2.000000*%
%ADD16R,3.200000X2.000000*%
%ADD17O,1.700000X1.700000*%
%ADD18R,1.700000X1.700000*%
%ADD19C,2.600000*%
%ADD20R,2.600000X2.600000*%
%ADD21R,1.800000X2.500000*%
%ADD22C,1.600000*%
%ADD23R,1.600000X1.600000*%
G04 APERTURE END LIST*
D10*
%TO.C,Q2*%
X103170000Y-130000000D03*
X105710000Y-130000000D03*
D11*
X108250000Y-130000000D03*
D12*
X105710000Y-146660000D03*
%TD*%
D13*
%TO.C,H4*%
X170000000Y-105000000D03*
%TD*%
%TO.C,H3*%
X170000000Y-145000000D03*
%TD*%
%TO.C,H1*%
X105000000Y-103500000D03*
%TD*%
%TO.C,U1*%
G36*
G01*
X128750000Y-103625000D02*
X128750000Y-102375000D01*
G75*
G02*
X129375000Y-101750000I625000J0D01*
G01*
X130625000Y-101750000D01*
G75*
G02*
X131250000Y-102375000I0J-625000D01*
G01*
X131250000Y-103625000D01*
G75*
G02*
X130625000Y-104250000I-625000J0D01*
G01*
X129375000Y-104250000D01*
G75*
G02*
X128750000Y-103625000I0J625000D01*
G01*
G37*
G36*
G01*
X118625000Y-104250000D02*
X117375000Y-104250000D01*
G75*
G02*
X116750000Y-103625000I0J625000D01*
G01*
X116750000Y-102375000D01*
G75*
G02*
X117375000Y-101750000I625000J0D01*
G01*
X118625000Y-101750000D01*
G75*
G02*
X119250000Y-102375000I0J-625000D01*
G01*
X119250000Y-103625000D01*
G75*
G02*
X118625000Y-104250000I-625000J0D01*
G01*
G37*
G36*
G01*
X119250000Y-113375000D02*
X119250000Y-114625000D01*
G75*
G02*
X118625000Y-115250000I-625000J0D01*
G01*
X117375000Y-115250000D01*
G75*
G02*
X116750000Y-114625000I0J625000D01*
G01*
X116750000Y-113375000D01*
G75*
G02*
X117375000Y-112750000I625000J0D01*
G01*
X118625000Y-112750000D01*
G75*
G02*
X119250000Y-113375000I0J-625000D01*
G01*
G37*
G36*
G01*
X129375000Y-112750000D02*
X130625000Y-112750000D01*
G75*
G02*
X131250000Y-113375000I0J-625000D01*
G01*
X131250000Y-114625000D01*
G75*
G02*
X130625000Y-115250000I-625000J0D01*
G01*
X129375000Y-115250000D01*
G75*
G02*
X128750000Y-114625000I0J625000D01*
G01*
X128750000Y-113375000D01*
G75*
G02*
X129375000Y-112750000I625000J0D01*
G01*
G37*
%TD*%
D14*
%TO.C,SW1*%
X158242000Y-131318000D03*
D15*
X158242000Y-133818000D03*
X158242000Y-136318000D03*
D16*
X165742000Y-128218000D03*
X165742000Y-139418000D03*
D15*
X172742000Y-131318000D03*
X172742000Y-136318000D03*
%TD*%
D17*
%TO.C,JP1*%
X171540000Y-123250000D03*
D18*
X169000000Y-123250000D03*
%TD*%
D17*
%TO.C,J5*%
X169000000Y-119290000D03*
D18*
X169000000Y-116750000D03*
%TD*%
D17*
%TO.C,J4*%
X163830000Y-109220000D03*
X163830000Y-106680000D03*
D18*
X163830000Y-104140000D03*
%TD*%
D17*
%TO.C,J3*%
X131064000Y-147500000D03*
X133604000Y-147500000D03*
X136144000Y-147500000D03*
D18*
X138684000Y-147500000D03*
%TD*%
D19*
%TO.C,J1*%
X105000000Y-125240000D03*
X105000000Y-120160000D03*
X105000000Y-115080000D03*
D20*
X105000000Y-110000000D03*
%TD*%
D21*
%TO.C,D4*%
X109750000Y-124000000D03*
X109750000Y-120000000D03*
%TD*%
D22*
%TO.C,C9*%
X114046000Y-119750000D03*
X114046000Y-124750000D03*
%TD*%
%TO.C,C3*%
G36*
G01*
X133475000Y-112512500D02*
X132525000Y-112512500D01*
G75*
G02*
X132275000Y-112262500I0J250000D01*
G01*
X132275000Y-111587500D01*
G75*
G02*
X132525000Y-111337500I250000J0D01*
G01*
X133475000Y-111337500D01*
G75*
G02*
X133725000Y-111587500I0J-250000D01*
G01*
X133725000Y-112262500D01*
G75*
G02*
X133475000Y-112512500I-250000J0D01*
G01*
G37*
G36*
G01*
X133475000Y-114587500D02*
X132525000Y-114587500D01*
G75*
G02*
X132275000Y-114337500I0J250000D01*
G01*
X132275000Y-113662500D01*
G75*
G02*
X132525000Y-113412500I250000J0D01*
G01*
X133475000Y-113412500D01*
G75*
G02*
X133725000Y-113662500I0J-250000D01*
G01*
X133725000Y-114337500D01*
G75*
G02*
X133475000Y-114587500I-250000J0D01*
G01*
G37*
%TD*%
%TO.C,C2*%
G36*
G01*
X114349999Y-105962500D02*
X115650001Y-105962500D01*
G75*
G02*
X115900000Y-106212499I0J-249999D01*
G01*
X115900000Y-107037501D01*
G75*
G02*
X115650001Y-107287500I-249999J0D01*
G01*
X114349999Y-107287500D01*
G75*
G02*
X114100000Y-107037501I0J249999D01*
G01*
X114100000Y-106212499D01*
G75*
G02*
X114349999Y-105962500I249999J0D01*
G01*
G37*
G36*
G01*
X114349999Y-102837500D02*
X115650001Y-102837500D01*
G75*
G02*
X115900000Y-103087499I0J-249999D01*
G01*
X115900000Y-103912501D01*
G75*
G02*
X115650001Y-104162500I-249999J0D01*
G01*
X114349999Y-104162500D01*
G75*
G02*
X114100000Y-103912501I0J249999D01*
G01*
X114100000Y-103087499D01*
G75*
G02*
X114349999Y-102837500I249999J0D01*
G01*
G37*
%TD*%
%TO.C,C1*%
X113500000Y-113500000D03*
D23*
X113500000Y-111500000D03*
%TD*%
M02*
