%TF.GenerationSoftware,KiCad,Pcbnew,(5.1.10)-1*%
%TF.CreationDate,2021-10-19T15:37:20+02:00*%
%TF.ProjectId,OpenHeat,4f70656e-4865-4617-942e-6b696361645f,1.0*%
%TF.SameCoordinates,Original*%
%TF.FileFunction,Paste,Bot*%
%TF.FilePolarity,Positive*%
%FSLAX46Y46*%
G04 Gerber Fmt 4.6, Leading zero omitted, Abs format (unit mm)*
G04 Created by KiCad (PCBNEW (5.1.10)-1) date 2021-10-19 15:37:20*
%MOMM*%
%LPD*%
G01*
G04 APERTURE LIST*
%ADD10R,1.800000X2.500000*%
G04 APERTURE END LIST*
%TO.C,U1*%
G36*
G01*
X128750000Y-103625000D02*
X128750000Y-102375000D01*
G75*
G02*
X129375000Y-101750000I625000J0D01*
G01*
X130625000Y-101750000D01*
G75*
G02*
X131250000Y-102375000I0J-625000D01*
G01*
X131250000Y-103625000D01*
G75*
G02*
X130625000Y-104250000I-625000J0D01*
G01*
X129375000Y-104250000D01*
G75*
G02*
X128750000Y-103625000I0J625000D01*
G01*
G37*
G36*
G01*
X118625000Y-104250000D02*
X117375000Y-104250000D01*
G75*
G02*
X116750000Y-103625000I0J625000D01*
G01*
X116750000Y-102375000D01*
G75*
G02*
X117375000Y-101750000I625000J0D01*
G01*
X118625000Y-101750000D01*
G75*
G02*
X119250000Y-102375000I0J-625000D01*
G01*
X119250000Y-103625000D01*
G75*
G02*
X118625000Y-104250000I-625000J0D01*
G01*
G37*
G36*
G01*
X119250000Y-113375000D02*
X119250000Y-114625000D01*
G75*
G02*
X118625000Y-115250000I-625000J0D01*
G01*
X117375000Y-115250000D01*
G75*
G02*
X116750000Y-114625000I0J625000D01*
G01*
X116750000Y-113375000D01*
G75*
G02*
X117375000Y-112750000I625000J0D01*
G01*
X118625000Y-112750000D01*
G75*
G02*
X119250000Y-113375000I0J-625000D01*
G01*
G37*
G36*
G01*
X129375000Y-112750000D02*
X130625000Y-112750000D01*
G75*
G02*
X131250000Y-113375000I0J-625000D01*
G01*
X131250000Y-114625000D01*
G75*
G02*
X130625000Y-115250000I-625000J0D01*
G01*
X129375000Y-115250000D01*
G75*
G02*
X128750000Y-114625000I0J625000D01*
G01*
X128750000Y-113375000D01*
G75*
G02*
X129375000Y-112750000I625000J0D01*
G01*
G37*
%TD*%
D10*
%TO.C,D4*%
X109750000Y-124000000D03*
X109750000Y-120000000D03*
%TD*%
%TO.C,C3*%
G36*
G01*
X133475000Y-112512500D02*
X132525000Y-112512500D01*
G75*
G02*
X132275000Y-112262500I0J250000D01*
G01*
X132275000Y-111587500D01*
G75*
G02*
X132525000Y-111337500I250000J0D01*
G01*
X133475000Y-111337500D01*
G75*
G02*
X133725000Y-111587500I0J-250000D01*
G01*
X133725000Y-112262500D01*
G75*
G02*
X133475000Y-112512500I-250000J0D01*
G01*
G37*
G36*
G01*
X133475000Y-114587500D02*
X132525000Y-114587500D01*
G75*
G02*
X132275000Y-114337500I0J250000D01*
G01*
X132275000Y-113662500D01*
G75*
G02*
X132525000Y-113412500I250000J0D01*
G01*
X133475000Y-113412500D01*
G75*
G02*
X133725000Y-113662500I0J-250000D01*
G01*
X133725000Y-114337500D01*
G75*
G02*
X133475000Y-114587500I-250000J0D01*
G01*
G37*
%TD*%
%TO.C,C2*%
G36*
G01*
X114349999Y-105962500D02*
X115650001Y-105962500D01*
G75*
G02*
X115900000Y-106212499I0J-249999D01*
G01*
X115900000Y-107037501D01*
G75*
G02*
X115650001Y-107287500I-249999J0D01*
G01*
X114349999Y-107287500D01*
G75*
G02*
X114100000Y-107037501I0J249999D01*
G01*
X114100000Y-106212499D01*
G75*
G02*
X114349999Y-105962500I249999J0D01*
G01*
G37*
G36*
G01*
X114349999Y-102837500D02*
X115650001Y-102837500D01*
G75*
G02*
X115900000Y-103087499I0J-249999D01*
G01*
X115900000Y-103912501D01*
G75*
G02*
X115650001Y-104162500I-249999J0D01*
G01*
X114349999Y-104162500D01*
G75*
G02*
X114100000Y-103912501I0J249999D01*
G01*
X114100000Y-103087499D01*
G75*
G02*
X114349999Y-102837500I249999J0D01*
G01*
G37*
%TD*%
M02*
