%TF.GenerationSoftware,KiCad,Pcbnew,(5.1.10)-1*%
%TF.CreationDate,2021-10-19T15:37:20+02:00*%
%TF.ProjectId,OpenHeat,4f70656e-4865-4617-942e-6b696361645f,1.0*%
%TF.SameCoordinates,Original*%
%TF.FileFunction,Soldermask,Top*%
%TF.FilePolarity,Negative*%
%FSLAX46Y46*%
G04 Gerber Fmt 4.6, Leading zero omitted, Abs format (unit mm)*
G04 Created by KiCad (PCBNEW (5.1.10)-1) date 2021-10-19 15:37:20*
%MOMM*%
%LPD*%
G01*
G04 APERTURE LIST*
%ADD10C,0.100000*%
%ADD11O,1.905000X2.000000*%
%ADD12R,1.905000X2.000000*%
%ADD13O,3.500000X3.500000*%
%ADD14C,3.200000*%
%ADD15R,2.000000X0.900000*%
%ADD16R,0.900000X2.000000*%
%ADD17R,5.000000X5.000000*%
%ADD18R,1.060000X0.650000*%
%ADD19R,2.000000X2.000000*%
%ADD20C,2.000000*%
%ADD21R,3.200000X2.000000*%
%ADD22R,0.900000X0.800000*%
%ADD23O,1.700000X1.700000*%
%ADD24R,1.700000X1.700000*%
%ADD25R,0.740000X2.400000*%
%ADD26C,2.600000*%
%ADD27R,2.600000X2.600000*%
%ADD28R,0.800000X0.900000*%
%ADD29C,1.600000*%
%ADD30R,1.600000X1.600000*%
G04 APERTURE END LIST*
D10*
G36*
X111000000Y-149500000D02*
G01*
X100500000Y-149500000D01*
X100500000Y-135000000D01*
X111000000Y-135000000D01*
X111000000Y-149500000D01*
G37*
X111000000Y-149500000D02*
X100500000Y-149500000D01*
X100500000Y-135000000D01*
X111000000Y-135000000D01*
X111000000Y-149500000D01*
D11*
%TO.C,Q2*%
X103170000Y-130000000D03*
X105710000Y-130000000D03*
D12*
X108250000Y-130000000D03*
D13*
X105710000Y-146660000D03*
%TD*%
D14*
%TO.C,H4*%
X170000000Y-105000000D03*
%TD*%
%TO.C,H3*%
X170000000Y-145000000D03*
%TD*%
%TO.C,H1*%
X105000000Y-103500000D03*
%TD*%
%TO.C,U4*%
G36*
G01*
X159750000Y-120755000D02*
X159750000Y-121055000D01*
G75*
G02*
X159600000Y-121205000I-150000J0D01*
G01*
X157950000Y-121205000D01*
G75*
G02*
X157800000Y-121055000I0J150000D01*
G01*
X157800000Y-120755000D01*
G75*
G02*
X157950000Y-120605000I150000J0D01*
G01*
X159600000Y-120605000D01*
G75*
G02*
X159750000Y-120755000I0J-150000D01*
G01*
G37*
G36*
G01*
X159750000Y-119485000D02*
X159750000Y-119785000D01*
G75*
G02*
X159600000Y-119935000I-150000J0D01*
G01*
X157950000Y-119935000D01*
G75*
G02*
X157800000Y-119785000I0J150000D01*
G01*
X157800000Y-119485000D01*
G75*
G02*
X157950000Y-119335000I150000J0D01*
G01*
X159600000Y-119335000D01*
G75*
G02*
X159750000Y-119485000I0J-150000D01*
G01*
G37*
G36*
G01*
X159750000Y-118215000D02*
X159750000Y-118515000D01*
G75*
G02*
X159600000Y-118665000I-150000J0D01*
G01*
X157950000Y-118665000D01*
G75*
G02*
X157800000Y-118515000I0J150000D01*
G01*
X157800000Y-118215000D01*
G75*
G02*
X157950000Y-118065000I150000J0D01*
G01*
X159600000Y-118065000D01*
G75*
G02*
X159750000Y-118215000I0J-150000D01*
G01*
G37*
G36*
G01*
X159750000Y-116945000D02*
X159750000Y-117245000D01*
G75*
G02*
X159600000Y-117395000I-150000J0D01*
G01*
X157950000Y-117395000D01*
G75*
G02*
X157800000Y-117245000I0J150000D01*
G01*
X157800000Y-116945000D01*
G75*
G02*
X157950000Y-116795000I150000J0D01*
G01*
X159600000Y-116795000D01*
G75*
G02*
X159750000Y-116945000I0J-150000D01*
G01*
G37*
G36*
G01*
X164700000Y-116945000D02*
X164700000Y-117245000D01*
G75*
G02*
X164550000Y-117395000I-150000J0D01*
G01*
X162900000Y-117395000D01*
G75*
G02*
X162750000Y-117245000I0J150000D01*
G01*
X162750000Y-116945000D01*
G75*
G02*
X162900000Y-116795000I150000J0D01*
G01*
X164550000Y-116795000D01*
G75*
G02*
X164700000Y-116945000I0J-150000D01*
G01*
G37*
G36*
G01*
X164700000Y-118215000D02*
X164700000Y-118515000D01*
G75*
G02*
X164550000Y-118665000I-150000J0D01*
G01*
X162900000Y-118665000D01*
G75*
G02*
X162750000Y-118515000I0J150000D01*
G01*
X162750000Y-118215000D01*
G75*
G02*
X162900000Y-118065000I150000J0D01*
G01*
X164550000Y-118065000D01*
G75*
G02*
X164700000Y-118215000I0J-150000D01*
G01*
G37*
G36*
G01*
X164700000Y-119485000D02*
X164700000Y-119785000D01*
G75*
G02*
X164550000Y-119935000I-150000J0D01*
G01*
X162900000Y-119935000D01*
G75*
G02*
X162750000Y-119785000I0J150000D01*
G01*
X162750000Y-119485000D01*
G75*
G02*
X162900000Y-119335000I150000J0D01*
G01*
X164550000Y-119335000D01*
G75*
G02*
X164700000Y-119485000I0J-150000D01*
G01*
G37*
G36*
G01*
X164700000Y-120755000D02*
X164700000Y-121055000D01*
G75*
G02*
X164550000Y-121205000I-150000J0D01*
G01*
X162900000Y-121205000D01*
G75*
G02*
X162750000Y-121055000I0J150000D01*
G01*
X162750000Y-120755000D01*
G75*
G02*
X162900000Y-120605000I150000J0D01*
G01*
X164550000Y-120605000D01*
G75*
G02*
X164700000Y-120755000I0J-150000D01*
G01*
G37*
%TD*%
D15*
%TO.C,U3*%
X155250000Y-107495000D03*
X155250000Y-108765000D03*
X155250000Y-110035000D03*
X155250000Y-111305000D03*
X155250000Y-112575000D03*
X155250000Y-113845000D03*
X155250000Y-115115000D03*
X155250000Y-116385000D03*
X155250000Y-117655000D03*
X155250000Y-118925000D03*
X155250000Y-120195000D03*
X155250000Y-121465000D03*
X155250000Y-122735000D03*
X155250000Y-124005000D03*
D16*
X152465000Y-125005000D03*
X151195000Y-125005000D03*
X149925000Y-125005000D03*
X148655000Y-125005000D03*
X147385000Y-125005000D03*
X146115000Y-125005000D03*
X144845000Y-125005000D03*
X143575000Y-125005000D03*
X142305000Y-125005000D03*
X141035000Y-125005000D03*
D15*
X138250000Y-124005000D03*
X138250000Y-122735000D03*
X138250000Y-121465000D03*
X138250000Y-120195000D03*
X138250000Y-118925000D03*
X138250000Y-117655000D03*
X138250000Y-116385000D03*
X138250000Y-115115000D03*
X138250000Y-113845000D03*
X138250000Y-112575000D03*
X138250000Y-111305000D03*
X138250000Y-110035000D03*
X138250000Y-108765000D03*
X138250000Y-107495000D03*
D17*
X145750000Y-114995000D03*
%TD*%
D18*
%TO.C,U2*%
X117400000Y-129950000D03*
X117400000Y-128050000D03*
X119600000Y-128050000D03*
X119600000Y-129000000D03*
X119600000Y-129950000D03*
%TD*%
D19*
%TO.C,SW1*%
X158242000Y-131318000D03*
D20*
X158242000Y-133818000D03*
X158242000Y-136318000D03*
D21*
X165742000Y-128218000D03*
X165742000Y-139418000D03*
D20*
X172742000Y-131318000D03*
X172742000Y-136318000D03*
%TD*%
%TO.C,R14*%
G36*
G01*
X155330500Y-147636500D02*
X155805500Y-147636500D01*
G75*
G02*
X156043000Y-147874000I0J-237500D01*
G01*
X156043000Y-148374000D01*
G75*
G02*
X155805500Y-148611500I-237500J0D01*
G01*
X155330500Y-148611500D01*
G75*
G02*
X155093000Y-148374000I0J237500D01*
G01*
X155093000Y-147874000D01*
G75*
G02*
X155330500Y-147636500I237500J0D01*
G01*
G37*
G36*
G01*
X155330500Y-145811500D02*
X155805500Y-145811500D01*
G75*
G02*
X156043000Y-146049000I0J-237500D01*
G01*
X156043000Y-146549000D01*
G75*
G02*
X155805500Y-146786500I-237500J0D01*
G01*
X155330500Y-146786500D01*
G75*
G02*
X155093000Y-146549000I0J237500D01*
G01*
X155093000Y-146049000D01*
G75*
G02*
X155330500Y-145811500I237500J0D01*
G01*
G37*
%TD*%
%TO.C,R13*%
G36*
G01*
X158575000Y-112762500D02*
X158575000Y-113237500D01*
G75*
G02*
X158337500Y-113475000I-237500J0D01*
G01*
X157837500Y-113475000D01*
G75*
G02*
X157600000Y-113237500I0J237500D01*
G01*
X157600000Y-112762500D01*
G75*
G02*
X157837500Y-112525000I237500J0D01*
G01*
X158337500Y-112525000D01*
G75*
G02*
X158575000Y-112762500I0J-237500D01*
G01*
G37*
G36*
G01*
X160400000Y-112762500D02*
X160400000Y-113237500D01*
G75*
G02*
X160162500Y-113475000I-237500J0D01*
G01*
X159662500Y-113475000D01*
G75*
G02*
X159425000Y-113237500I0J237500D01*
G01*
X159425000Y-112762500D01*
G75*
G02*
X159662500Y-112525000I237500J0D01*
G01*
X160162500Y-112525000D01*
G75*
G02*
X160400000Y-112762500I0J-237500D01*
G01*
G37*
%TD*%
%TO.C,R12*%
G36*
G01*
X158575000Y-111012500D02*
X158575000Y-111487500D01*
G75*
G02*
X158337500Y-111725000I-237500J0D01*
G01*
X157837500Y-111725000D01*
G75*
G02*
X157600000Y-111487500I0J237500D01*
G01*
X157600000Y-111012500D01*
G75*
G02*
X157837500Y-110775000I237500J0D01*
G01*
X158337500Y-110775000D01*
G75*
G02*
X158575000Y-111012500I0J-237500D01*
G01*
G37*
G36*
G01*
X160400000Y-111012500D02*
X160400000Y-111487500D01*
G75*
G02*
X160162500Y-111725000I-237500J0D01*
G01*
X159662500Y-111725000D01*
G75*
G02*
X159425000Y-111487500I0J237500D01*
G01*
X159425000Y-111012500D01*
G75*
G02*
X159662500Y-110775000I237500J0D01*
G01*
X160162500Y-110775000D01*
G75*
G02*
X160400000Y-111012500I0J-237500D01*
G01*
G37*
%TD*%
%TO.C,R11*%
G36*
G01*
X129337500Y-123237500D02*
X129337500Y-122762500D01*
G75*
G02*
X129575000Y-122525000I237500J0D01*
G01*
X130075000Y-122525000D01*
G75*
G02*
X130312500Y-122762500I0J-237500D01*
G01*
X130312500Y-123237500D01*
G75*
G02*
X130075000Y-123475000I-237500J0D01*
G01*
X129575000Y-123475000D01*
G75*
G02*
X129337500Y-123237500I0J237500D01*
G01*
G37*
G36*
G01*
X127512500Y-123237500D02*
X127512500Y-122762500D01*
G75*
G02*
X127750000Y-122525000I237500J0D01*
G01*
X128250000Y-122525000D01*
G75*
G02*
X128487500Y-122762500I0J-237500D01*
G01*
X128487500Y-123237500D01*
G75*
G02*
X128250000Y-123475000I-237500J0D01*
G01*
X127750000Y-123475000D01*
G75*
G02*
X127512500Y-123237500I0J237500D01*
G01*
G37*
%TD*%
%TO.C,R10*%
G36*
G01*
X153462500Y-135925000D02*
X153937500Y-135925000D01*
G75*
G02*
X154175000Y-136162500I0J-237500D01*
G01*
X154175000Y-136662500D01*
G75*
G02*
X153937500Y-136900000I-237500J0D01*
G01*
X153462500Y-136900000D01*
G75*
G02*
X153225000Y-136662500I0J237500D01*
G01*
X153225000Y-136162500D01*
G75*
G02*
X153462500Y-135925000I237500J0D01*
G01*
G37*
G36*
G01*
X153462500Y-134100000D02*
X153937500Y-134100000D01*
G75*
G02*
X154175000Y-134337500I0J-237500D01*
G01*
X154175000Y-134837500D01*
G75*
G02*
X153937500Y-135075000I-237500J0D01*
G01*
X153462500Y-135075000D01*
G75*
G02*
X153225000Y-134837500I0J237500D01*
G01*
X153225000Y-134337500D01*
G75*
G02*
X153462500Y-134100000I237500J0D01*
G01*
G37*
%TD*%
%TO.C,R9*%
G36*
G01*
X159262500Y-124175000D02*
X159737500Y-124175000D01*
G75*
G02*
X159975000Y-124412500I0J-237500D01*
G01*
X159975000Y-124912500D01*
G75*
G02*
X159737500Y-125150000I-237500J0D01*
G01*
X159262500Y-125150000D01*
G75*
G02*
X159025000Y-124912500I0J237500D01*
G01*
X159025000Y-124412500D01*
G75*
G02*
X159262500Y-124175000I237500J0D01*
G01*
G37*
G36*
G01*
X159262500Y-122350000D02*
X159737500Y-122350000D01*
G75*
G02*
X159975000Y-122587500I0J-237500D01*
G01*
X159975000Y-123087500D01*
G75*
G02*
X159737500Y-123325000I-237500J0D01*
G01*
X159262500Y-123325000D01*
G75*
G02*
X159025000Y-123087500I0J237500D01*
G01*
X159025000Y-122587500D01*
G75*
G02*
X159262500Y-122350000I237500J0D01*
G01*
G37*
%TD*%
%TO.C,R8*%
G36*
G01*
X155737500Y-131487500D02*
X155262500Y-131487500D01*
G75*
G02*
X155025000Y-131250000I0J237500D01*
G01*
X155025000Y-130750000D01*
G75*
G02*
X155262500Y-130512500I237500J0D01*
G01*
X155737500Y-130512500D01*
G75*
G02*
X155975000Y-130750000I0J-237500D01*
G01*
X155975000Y-131250000D01*
G75*
G02*
X155737500Y-131487500I-237500J0D01*
G01*
G37*
G36*
G01*
X155737500Y-133312500D02*
X155262500Y-133312500D01*
G75*
G02*
X155025000Y-133075000I0J237500D01*
G01*
X155025000Y-132575000D01*
G75*
G02*
X155262500Y-132337500I237500J0D01*
G01*
X155737500Y-132337500D01*
G75*
G02*
X155975000Y-132575000I0J-237500D01*
G01*
X155975000Y-133075000D01*
G75*
G02*
X155737500Y-133312500I-237500J0D01*
G01*
G37*
%TD*%
%TO.C,R7*%
G36*
G01*
X155262500Y-135925000D02*
X155737500Y-135925000D01*
G75*
G02*
X155975000Y-136162500I0J-237500D01*
G01*
X155975000Y-136662500D01*
G75*
G02*
X155737500Y-136900000I-237500J0D01*
G01*
X155262500Y-136900000D01*
G75*
G02*
X155025000Y-136662500I0J237500D01*
G01*
X155025000Y-136162500D01*
G75*
G02*
X155262500Y-135925000I237500J0D01*
G01*
G37*
G36*
G01*
X155262500Y-134100000D02*
X155737500Y-134100000D01*
G75*
G02*
X155975000Y-134337500I0J-237500D01*
G01*
X155975000Y-134837500D01*
G75*
G02*
X155737500Y-135075000I-237500J0D01*
G01*
X155262500Y-135075000D01*
G75*
G02*
X155025000Y-134837500I0J237500D01*
G01*
X155025000Y-134337500D01*
G75*
G02*
X155262500Y-134100000I237500J0D01*
G01*
G37*
%TD*%
%TO.C,R6*%
G36*
G01*
X114887500Y-104373500D02*
X114412500Y-104373500D01*
G75*
G02*
X114175000Y-104136000I0J237500D01*
G01*
X114175000Y-103636000D01*
G75*
G02*
X114412500Y-103398500I237500J0D01*
G01*
X114887500Y-103398500D01*
G75*
G02*
X115125000Y-103636000I0J-237500D01*
G01*
X115125000Y-104136000D01*
G75*
G02*
X114887500Y-104373500I-237500J0D01*
G01*
G37*
G36*
G01*
X114887500Y-106198500D02*
X114412500Y-106198500D01*
G75*
G02*
X114175000Y-105961000I0J237500D01*
G01*
X114175000Y-105461000D01*
G75*
G02*
X114412500Y-105223500I237500J0D01*
G01*
X114887500Y-105223500D01*
G75*
G02*
X115125000Y-105461000I0J-237500D01*
G01*
X115125000Y-105961000D01*
G75*
G02*
X114887500Y-106198500I-237500J0D01*
G01*
G37*
%TD*%
%TO.C,R5*%
G36*
G01*
X122575000Y-122512500D02*
X122575000Y-122987500D01*
G75*
G02*
X122337500Y-123225000I-237500J0D01*
G01*
X121837500Y-123225000D01*
G75*
G02*
X121600000Y-122987500I0J237500D01*
G01*
X121600000Y-122512500D01*
G75*
G02*
X121837500Y-122275000I237500J0D01*
G01*
X122337500Y-122275000D01*
G75*
G02*
X122575000Y-122512500I0J-237500D01*
G01*
G37*
G36*
G01*
X124400000Y-122512500D02*
X124400000Y-122987500D01*
G75*
G02*
X124162500Y-123225000I-237500J0D01*
G01*
X123662500Y-123225000D01*
G75*
G02*
X123425000Y-122987500I0J237500D01*
G01*
X123425000Y-122512500D01*
G75*
G02*
X123662500Y-122275000I237500J0D01*
G01*
X124162500Y-122275000D01*
G75*
G02*
X124400000Y-122512500I0J-237500D01*
G01*
G37*
%TD*%
%TO.C,R4*%
G36*
G01*
X112237500Y-128075000D02*
X111762500Y-128075000D01*
G75*
G02*
X111525000Y-127837500I0J237500D01*
G01*
X111525000Y-127337500D01*
G75*
G02*
X111762500Y-127100000I237500J0D01*
G01*
X112237500Y-127100000D01*
G75*
G02*
X112475000Y-127337500I0J-237500D01*
G01*
X112475000Y-127837500D01*
G75*
G02*
X112237500Y-128075000I-237500J0D01*
G01*
G37*
G36*
G01*
X112237500Y-129900000D02*
X111762500Y-129900000D01*
G75*
G02*
X111525000Y-129662500I0J237500D01*
G01*
X111525000Y-129162500D01*
G75*
G02*
X111762500Y-128925000I237500J0D01*
G01*
X112237500Y-128925000D01*
G75*
G02*
X112475000Y-129162500I0J-237500D01*
G01*
X112475000Y-129662500D01*
G75*
G02*
X112237500Y-129900000I-237500J0D01*
G01*
G37*
%TD*%
%TO.C,R3*%
G36*
G01*
X125549999Y-124400000D02*
X126450001Y-124400000D01*
G75*
G02*
X126700000Y-124649999I0J-249999D01*
G01*
X126700000Y-125350001D01*
G75*
G02*
X126450001Y-125600000I-249999J0D01*
G01*
X125549999Y-125600000D01*
G75*
G02*
X125300000Y-125350001I0J249999D01*
G01*
X125300000Y-124649999D01*
G75*
G02*
X125549999Y-124400000I249999J0D01*
G01*
G37*
G36*
G01*
X125549999Y-122400000D02*
X126450001Y-122400000D01*
G75*
G02*
X126700000Y-122649999I0J-249999D01*
G01*
X126700000Y-123350001D01*
G75*
G02*
X126450001Y-123600000I-249999J0D01*
G01*
X125549999Y-123600000D01*
G75*
G02*
X125300000Y-123350001I0J249999D01*
G01*
X125300000Y-122649999D01*
G75*
G02*
X125549999Y-122400000I249999J0D01*
G01*
G37*
%TD*%
%TO.C,R2*%
G36*
G01*
X115087500Y-129737500D02*
X115087500Y-129262500D01*
G75*
G02*
X115325000Y-129025000I237500J0D01*
G01*
X115825000Y-129025000D01*
G75*
G02*
X116062500Y-129262500I0J-237500D01*
G01*
X116062500Y-129737500D01*
G75*
G02*
X115825000Y-129975000I-237500J0D01*
G01*
X115325000Y-129975000D01*
G75*
G02*
X115087500Y-129737500I0J237500D01*
G01*
G37*
G36*
G01*
X113262500Y-129737500D02*
X113262500Y-129262500D01*
G75*
G02*
X113500000Y-129025000I237500J0D01*
G01*
X114000000Y-129025000D01*
G75*
G02*
X114237500Y-129262500I0J-237500D01*
G01*
X114237500Y-129737500D01*
G75*
G02*
X114000000Y-129975000I-237500J0D01*
G01*
X113500000Y-129975000D01*
G75*
G02*
X113262500Y-129737500I0J237500D01*
G01*
G37*
%TD*%
%TO.C,R1*%
G36*
G01*
X134237500Y-111325000D02*
X133762500Y-111325000D01*
G75*
G02*
X133525000Y-111087500I0J237500D01*
G01*
X133525000Y-110587500D01*
G75*
G02*
X133762500Y-110350000I237500J0D01*
G01*
X134237500Y-110350000D01*
G75*
G02*
X134475000Y-110587500I0J-237500D01*
G01*
X134475000Y-111087500D01*
G75*
G02*
X134237500Y-111325000I-237500J0D01*
G01*
G37*
G36*
G01*
X134237500Y-113150000D02*
X133762500Y-113150000D01*
G75*
G02*
X133525000Y-112912500I0J237500D01*
G01*
X133525000Y-112412500D01*
G75*
G02*
X133762500Y-112175000I237500J0D01*
G01*
X134237500Y-112175000D01*
G75*
G02*
X134475000Y-112412500I0J-237500D01*
G01*
X134475000Y-112912500D01*
G75*
G02*
X134237500Y-113150000I-237500J0D01*
G01*
G37*
%TD*%
D22*
%TO.C,Q1*%
X124000000Y-125500000D03*
X122000000Y-126450000D03*
X122000000Y-124550000D03*
%TD*%
D23*
%TO.C,JP1*%
X171540000Y-123250000D03*
D24*
X169000000Y-123250000D03*
%TD*%
D23*
%TO.C,J5*%
X169000000Y-119290000D03*
D24*
X169000000Y-116750000D03*
%TD*%
D23*
%TO.C,J4*%
X163830000Y-109220000D03*
X163830000Y-106680000D03*
D24*
X163830000Y-104140000D03*
%TD*%
D23*
%TO.C,J3*%
X131064000Y-147500000D03*
X133604000Y-147500000D03*
X136144000Y-147500000D03*
D24*
X138684000Y-147500000D03*
%TD*%
D25*
%TO.C,J2*%
X163108000Y-143674000D03*
X163108000Y-147574000D03*
X161838000Y-143674000D03*
X161838000Y-147574000D03*
X160568000Y-143674000D03*
X160568000Y-147574000D03*
X159298000Y-143674000D03*
X159298000Y-147574000D03*
X158028000Y-143674000D03*
X158028000Y-147574000D03*
%TD*%
D26*
%TO.C,J1*%
X105000000Y-125240000D03*
X105000000Y-120160000D03*
X105000000Y-115080000D03*
D27*
X105000000Y-110000000D03*
%TD*%
D28*
%TO.C,D3*%
X154800000Y-127100000D03*
X155750000Y-129100000D03*
X153850000Y-129100000D03*
%TD*%
%TO.C,D2*%
G36*
G01*
X112814001Y-104452000D02*
X111913999Y-104452000D01*
G75*
G02*
X111664000Y-104202001I0J249999D01*
G01*
X111664000Y-103551999D01*
G75*
G02*
X111913999Y-103302000I249999J0D01*
G01*
X112814001Y-103302000D01*
G75*
G02*
X113064000Y-103551999I0J-249999D01*
G01*
X113064000Y-104202001D01*
G75*
G02*
X112814001Y-104452000I-249999J0D01*
G01*
G37*
G36*
G01*
X112814001Y-106502000D02*
X111913999Y-106502000D01*
G75*
G02*
X111664000Y-106252001I0J249999D01*
G01*
X111664000Y-105601999D01*
G75*
G02*
X111913999Y-105352000I249999J0D01*
G01*
X112814001Y-105352000D01*
G75*
G02*
X113064000Y-105601999I0J-249999D01*
G01*
X113064000Y-106252001D01*
G75*
G02*
X112814001Y-106502000I-249999J0D01*
G01*
G37*
%TD*%
D22*
%TO.C,D1*%
X120250000Y-124500000D03*
X118250000Y-125450000D03*
X118250000Y-123550000D03*
%TD*%
%TO.C,C13*%
G36*
G01*
X138075000Y-144987500D02*
X138075000Y-144512500D01*
G75*
G02*
X138312500Y-144275000I237500J0D01*
G01*
X138912500Y-144275000D01*
G75*
G02*
X139150000Y-144512500I0J-237500D01*
G01*
X139150000Y-144987500D01*
G75*
G02*
X138912500Y-145225000I-237500J0D01*
G01*
X138312500Y-145225000D01*
G75*
G02*
X138075000Y-144987500I0J237500D01*
G01*
G37*
G36*
G01*
X136350000Y-144987500D02*
X136350000Y-144512500D01*
G75*
G02*
X136587500Y-144275000I237500J0D01*
G01*
X137187500Y-144275000D01*
G75*
G02*
X137425000Y-144512500I0J-237500D01*
G01*
X137425000Y-144987500D01*
G75*
G02*
X137187500Y-145225000I-237500J0D01*
G01*
X136587500Y-145225000D01*
G75*
G02*
X136350000Y-144987500I0J237500D01*
G01*
G37*
%TD*%
%TO.C,C12*%
G36*
G01*
X166237500Y-118812500D02*
X165762500Y-118812500D01*
G75*
G02*
X165525000Y-118575000I0J237500D01*
G01*
X165525000Y-117975000D01*
G75*
G02*
X165762500Y-117737500I237500J0D01*
G01*
X166237500Y-117737500D01*
G75*
G02*
X166475000Y-117975000I0J-237500D01*
G01*
X166475000Y-118575000D01*
G75*
G02*
X166237500Y-118812500I-237500J0D01*
G01*
G37*
G36*
G01*
X166237500Y-120537500D02*
X165762500Y-120537500D01*
G75*
G02*
X165525000Y-120300000I0J237500D01*
G01*
X165525000Y-119700000D01*
G75*
G02*
X165762500Y-119462500I237500J0D01*
G01*
X166237500Y-119462500D01*
G75*
G02*
X166475000Y-119700000I0J-237500D01*
G01*
X166475000Y-120300000D01*
G75*
G02*
X166237500Y-120537500I-237500J0D01*
G01*
G37*
%TD*%
%TO.C,C11*%
G36*
G01*
X162675000Y-115012500D02*
X162675000Y-115487500D01*
G75*
G02*
X162437500Y-115725000I-237500J0D01*
G01*
X161837500Y-115725000D01*
G75*
G02*
X161600000Y-115487500I0J237500D01*
G01*
X161600000Y-115012500D01*
G75*
G02*
X161837500Y-114775000I237500J0D01*
G01*
X162437500Y-114775000D01*
G75*
G02*
X162675000Y-115012500I0J-237500D01*
G01*
G37*
G36*
G01*
X164400000Y-115012500D02*
X164400000Y-115487500D01*
G75*
G02*
X164162500Y-115725000I-237500J0D01*
G01*
X163562500Y-115725000D01*
G75*
G02*
X163325000Y-115487500I0J237500D01*
G01*
X163325000Y-115012500D01*
G75*
G02*
X163562500Y-114775000I237500J0D01*
G01*
X164162500Y-114775000D01*
G75*
G02*
X164400000Y-115012500I0J-237500D01*
G01*
G37*
%TD*%
%TO.C,C10*%
G36*
G01*
X157512500Y-124075000D02*
X157987500Y-124075000D01*
G75*
G02*
X158225000Y-124312500I0J-237500D01*
G01*
X158225000Y-124912500D01*
G75*
G02*
X157987500Y-125150000I-237500J0D01*
G01*
X157512500Y-125150000D01*
G75*
G02*
X157275000Y-124912500I0J237500D01*
G01*
X157275000Y-124312500D01*
G75*
G02*
X157512500Y-124075000I237500J0D01*
G01*
G37*
G36*
G01*
X157512500Y-122350000D02*
X157987500Y-122350000D01*
G75*
G02*
X158225000Y-122587500I0J-237500D01*
G01*
X158225000Y-123187500D01*
G75*
G02*
X157987500Y-123425000I-237500J0D01*
G01*
X157512500Y-123425000D01*
G75*
G02*
X157275000Y-123187500I0J237500D01*
G01*
X157275000Y-122587500D01*
G75*
G02*
X157512500Y-122350000I237500J0D01*
G01*
G37*
%TD*%
D29*
%TO.C,C9*%
X114046000Y-119750000D03*
X114046000Y-124750000D03*
%TD*%
%TO.C,C8*%
G36*
G01*
X133525000Y-108523200D02*
X134475000Y-108523200D01*
G75*
G02*
X134725000Y-108773200I0J-250000D01*
G01*
X134725000Y-109448200D01*
G75*
G02*
X134475000Y-109698200I-250000J0D01*
G01*
X133525000Y-109698200D01*
G75*
G02*
X133275000Y-109448200I0J250000D01*
G01*
X133275000Y-108773200D01*
G75*
G02*
X133525000Y-108523200I250000J0D01*
G01*
G37*
G36*
G01*
X133525000Y-106448200D02*
X134475000Y-106448200D01*
G75*
G02*
X134725000Y-106698200I0J-250000D01*
G01*
X134725000Y-107373200D01*
G75*
G02*
X134475000Y-107623200I-250000J0D01*
G01*
X133525000Y-107623200D01*
G75*
G02*
X133275000Y-107373200I0J250000D01*
G01*
X133275000Y-106698200D01*
G75*
G02*
X133525000Y-106448200I250000J0D01*
G01*
G37*
%TD*%
%TO.C,C7*%
G36*
G01*
X136237500Y-107675000D02*
X135762500Y-107675000D01*
G75*
G02*
X135525000Y-107437500I0J237500D01*
G01*
X135525000Y-106837500D01*
G75*
G02*
X135762500Y-106600000I237500J0D01*
G01*
X136237500Y-106600000D01*
G75*
G02*
X136475000Y-106837500I0J-237500D01*
G01*
X136475000Y-107437500D01*
G75*
G02*
X136237500Y-107675000I-237500J0D01*
G01*
G37*
G36*
G01*
X136237500Y-109400000D02*
X135762500Y-109400000D01*
G75*
G02*
X135525000Y-109162500I0J237500D01*
G01*
X135525000Y-108562500D01*
G75*
G02*
X135762500Y-108325000I237500J0D01*
G01*
X136237500Y-108325000D01*
G75*
G02*
X136475000Y-108562500I0J-237500D01*
G01*
X136475000Y-109162500D01*
G75*
G02*
X136237500Y-109400000I-237500J0D01*
G01*
G37*
%TD*%
%TO.C,C6*%
G36*
G01*
X122512500Y-130075000D02*
X122987500Y-130075000D01*
G75*
G02*
X123225000Y-130312500I0J-237500D01*
G01*
X123225000Y-130912500D01*
G75*
G02*
X122987500Y-131150000I-237500J0D01*
G01*
X122512500Y-131150000D01*
G75*
G02*
X122275000Y-130912500I0J237500D01*
G01*
X122275000Y-130312500D01*
G75*
G02*
X122512500Y-130075000I237500J0D01*
G01*
G37*
G36*
G01*
X122512500Y-128350000D02*
X122987500Y-128350000D01*
G75*
G02*
X123225000Y-128587500I0J-237500D01*
G01*
X123225000Y-129187500D01*
G75*
G02*
X122987500Y-129425000I-237500J0D01*
G01*
X122512500Y-129425000D01*
G75*
G02*
X122275000Y-129187500I0J237500D01*
G01*
X122275000Y-128587500D01*
G75*
G02*
X122512500Y-128350000I237500J0D01*
G01*
G37*
%TD*%
%TO.C,C5*%
G36*
G01*
X135762500Y-112075000D02*
X136237500Y-112075000D01*
G75*
G02*
X136475000Y-112312500I0J-237500D01*
G01*
X136475000Y-112912500D01*
G75*
G02*
X136237500Y-113150000I-237500J0D01*
G01*
X135762500Y-113150000D01*
G75*
G02*
X135525000Y-112912500I0J237500D01*
G01*
X135525000Y-112312500D01*
G75*
G02*
X135762500Y-112075000I237500J0D01*
G01*
G37*
G36*
G01*
X135762500Y-110350000D02*
X136237500Y-110350000D01*
G75*
G02*
X136475000Y-110587500I0J-237500D01*
G01*
X136475000Y-111187500D01*
G75*
G02*
X136237500Y-111425000I-237500J0D01*
G01*
X135762500Y-111425000D01*
G75*
G02*
X135525000Y-111187500I0J237500D01*
G01*
X135525000Y-110587500D01*
G75*
G02*
X135762500Y-110350000I237500J0D01*
G01*
G37*
%TD*%
%TO.C,C4*%
G36*
G01*
X121012500Y-130075000D02*
X121487500Y-130075000D01*
G75*
G02*
X121725000Y-130312500I0J-237500D01*
G01*
X121725000Y-130912500D01*
G75*
G02*
X121487500Y-131150000I-237500J0D01*
G01*
X121012500Y-131150000D01*
G75*
G02*
X120775000Y-130912500I0J237500D01*
G01*
X120775000Y-130312500D01*
G75*
G02*
X121012500Y-130075000I237500J0D01*
G01*
G37*
G36*
G01*
X121012500Y-128350000D02*
X121487500Y-128350000D01*
G75*
G02*
X121725000Y-128587500I0J-237500D01*
G01*
X121725000Y-129187500D01*
G75*
G02*
X121487500Y-129425000I-237500J0D01*
G01*
X121012500Y-129425000D01*
G75*
G02*
X120775000Y-129187500I0J237500D01*
G01*
X120775000Y-128587500D01*
G75*
G02*
X121012500Y-128350000I237500J0D01*
G01*
G37*
%TD*%
%TO.C,C1*%
X113500000Y-113500000D03*
D30*
X113500000Y-111500000D03*
%TD*%
M02*
